<svg xmlns="http://www.w3.org/2000/svg" xmlns:xlink="http://www.w3.org/1999/xlink" xmlns:ifc="http://www.ifcopenshell.org/ns" width="100.113mm" height="150mm" viewBox="0 0 100.113 150">
    <defs>
        <marker id="arrowend" markerWidth="10" markerHeight="7" refX="10" refY="3.5" orient="auto">
          <polygon points="0 0, 10 3.5, 0 7"/>
        </marker>
        <marker id="arrowstart" markerWidth="10" markerHeight="7" refX="0" refY="3.5" orient="auto">
          <polygon points="10 0, 0 3.5, 10 7"/>
        </marker>
    </defs>
    <g ifc:name="Elevation BED 1 PLUMBING" class="section" ifc:plane="[[1.000000,0.000000,0.000000,0.000000],[0.000000,1.000000,0.000000,0.000000],[0.000000,0.000000,1.000000,0.000000],[0.000000,0.000000,0.000000,1.000000]]" ifc:matrix3="[[50.000001,0.000000,-1090.566687],[0.000000,50.000001,72.526791],[0.000000,0.000000,1.000000]]">
        <g id="product-8a6ba564-daf1-4053-9e74-7b0bcc900487" class="IfcSanitaryTerminal material-blank projection" ifc:name="SanitaryTerminal" ifc:guid="2AQwLasl50KvvqUmlCa0I7">
            <path d="M48.4441,-55.1733 L3.44421,-55.1733"/>
            <path d="M48.4441,49.8267 L3.44421,49.8267"/>
            <path d="M3.44421,49.8267 L3.44421,-55.1733"/>
        </g>
        <g id="product-804deb6b-e609-4b6d-bb5c-7c171585fba4" class="IfcSanitaryTerminal material-null projection" ifc:name="SanitaryTerminal" ifc:guid="20JUjhvWbBRRjSV1SLXVka">
            <path d="M21.9441,35.6689 L21.9441,29.8267"/>
            <path d="M21.9441,35.6689 L21.9441,37.3267"/>
            <path d="M21.9441,39.2741 L21.9441,37.3267"/>
            <path d="M21.9441,39.2741 L21.9441,39.8267"/>
            <path d="M39.6108,39.8267 L30.7774,39.8267"/>
            <path d="M30.7774,49.8267 L30.7774,39.8267"/>
            <path d="M39.6108,49.8267 L30.7774,49.8267"/>
            <path d="M39.6108,39.8267 L39.6108,49.8267"/>
            <path d="M21.9571,37.3267 L21.9441,37.3267"/>
            <path d="M21.9441,39.8267 L21.9571,39.8267"/>
            <path d="M41.8266,37.3267 L39.4267,37.3267"/>
            <path d="M21.9571,37.3267 L21.9571,39.8267"/>
            <path d="M48.4441,39.8267 L21.9571,39.8267"/>
            <path d="M48.4441,38.1965 L48.4441,39.8267"/>
            <path d="M24.5473,29.8267 L24.4614,29.8267"/>
            <path d="M25.0367,29.8267 L24.5473,29.8267"/>
            <path d="M25.903,29.8267 L25.0367,29.8267"/>
            <path d="M27.0989,29.8267 L25.903,29.8267"/>
            <path d="M28.5592,29.8267 L27.0989,29.8267"/>
            <path d="M30.2042,29.8267 L28.5592,29.8267"/>
            <path d="M31.9441,29.8267 L30.2042,29.8267"/>
            <path d="M33.684,29.8267 L31.9441,29.8267"/>
            <path d="M35.329,29.8267 L33.684,29.8267"/>
            <path d="M36.7893,29.8267 L35.329,29.8267"/>
            <path d="M37.9852,29.8267 L36.7893,29.8267"/>
            <path d="M38.8515,29.8267 L37.9852,29.8267"/>
            <path d="M39.3409,29.8267 L38.8515,29.8267"/>
            <path d="M39.4267,29.8267 L39.3409,29.8267"/>
            <path d="M24.4614,37.3267 L21.9571,37.3267"/>
            <path d="M24.4614,29.8267 L24.4614,37.3267"/>
            <path d="M24.4614,29.8267 L21.9571,29.8267"/>
            <path d="M21.9571,29.8267 L21.9571,37.3267"/>
            <path d="M21.9571,29.8267 L21.9571,29.8267"/>
            <path d="M21.9571,29.8267 L21.9441,29.8267"/>
            <path d="M21.9441,37.3267 L21.9571,37.3267"/>
            <path d="M48.4441,29.8267 L39.4267,29.8267"/>
            <path d="M39.4267,29.8267 L39.4267,37.3267"/>
            <path d="M41.8266,37.3267 L39.4267,37.3267"/>
            <path d="M48.4441,29.8267 L48.4441,32.604"/>
        </g>
        <g id="product-16e394bb-4889-4f3f-bc3d-83a06b3b6547" class="IfcWall material-null projection" ifc:name="Wall" ifc:guid="0MuvIxI8bFFxmzWw1hEsL7">
            <path d="M195.4,-17.4733 L65.8418,-17.4732"/>
            <path d="M3.44421,-17.4732 L-4.26233,-17.4732"/>
            <path d="M-4.26233,50.0268 L-4.26233,50.0267"/>
            <path d="M-4.26233,-14.9733 L-4.26233,-17.4732"/>
            <path d="M195.4,72.5267 L103.857,72.5268"/>
            <path d="M83.857,72.5268 L78.4068,72.5268"/>
            <path d="M204.752,-17.4733 L195.4,-17.4733"/>
            <path d="M195.4,72.5267 L195.4,-17.4733"/>
            <path d="M204.752,72.5267 L195.4,72.5267"/>
            <path d="M204.752,-17.4733 L204.752,72.5267"/>
        </g>
        <g id="product-1eb6a3aa-fe52-4813-8c3b-4f6eef6b71aa" class="IfcWall material-null projection" ifc:name="Wall" ifc:guid="0UjgEg$b984umxJsxlQt6g">
            <path d="M35.9442,122.527 L-219.9,122.527"/>
            <path d="M35.9442,128.527 L-219.9,128.527"/>
            <path d="M73.4442,122.527 L73.4442,122.527"/>
            <path d="M73.4442,128.527 L73.4442,128.527"/>
            <path d="M35.9442,122.527 L35.9442,122.527"/>
            <path d="M73.4442,122.527 L73.4442,122.527"/>
            <path d="M-219.9,122.527 L-257.4,122.527"/>
            <path d="M-219.9,128.527 L-257.4,128.527"/>
            <path d="M-257.4,128.527 L-257.4,122.527"/>
            <path d="M-219.9,128.527 L-219.9,122.527"/>
        </g>
        <g id="product-c2ecda9d-3439-411d-952b-4cce77ba61a1" class="IfcSlab material-null projection" ifc:name="Slab" ifc:guid="32xDgTD3b17PKhJCvtkc6X">
            <path d="M48.4441,54.4041 L48.4442,54.9545"/>
            <path d="M-33.557,55.1895 L-33.557,54.4041"/>
            <path d="M-33.557,54.4041 L48.4441,54.4041"/>
            <path d="M48.4441,54.4041 L48.4441,53.9041"/>
            <path d="M-33.557,54.4041 L-33.557,53.9041"/>
        </g>
        <g id="product-86e69032-ab82-4c0c-8042-d8f9f6b42476" class="IfcSlab material-null projection" ifc:name="Slab" ifc:guid="26vf0ogu9C3812sFdsj2Hs">
            <path d="M-40.057,50.0267 L-40.057,47.5267"/>
            <path d="M-146.057,47.5267 L-40.057,47.5267"/>
            <path d="M-146.057,47.5267 L-146.057,50.0267"/>
            <path d="M-146.057,50.0267 L-40.057,50.0267"/>
        </g>
        <g id="product-7a69cf9e-a453-4ebf-9a68-dee8aa4088ad" class="IfcWall material-concrete projection" ifc:name="Wall" ifc:guid="1wQS_Uf5DElvfetkYgG8Yj">
            <path d="M69.6942,92.5267 L39.6942,92.5267"/>
            <path d="M39.6942,122.527 L39.6942,92.5267"/>
            <path d="M69.6942,122.527 L39.6942,122.527"/>
            <path d="M69.6942,92.5267 L69.6942,122.527"/>
        </g>
        <g id="product-cebc5e7a-0670-438b-a124-55af5117dc6d" class="IfcWall material-concrete projection" ifc:name="Wall" ifc:guid="3El5vw1d13Yw4aLQzH5znj">
            <path d="M-30.5571,92.5268 L-223.65,92.5268"/>
            <path d="M69.6942,92.5268 L69.6942,92.5268"/>
            <path d="M39.6942,122.527 L39.6942,122.527"/>
            <path d="M69.6942,122.527 L69.6942,122.527"/>
            <path d="M-223.65,92.5268 L-253.65,92.5268"/>
            <path d="M-253.65,122.527 L-253.65,92.5268"/>
            <path d="M-223.65,122.527 L-223.65,92.5268"/>
        </g>
        <g id="product-21671aa2-15c5-4ee7-b1f8-44615df4c51c" class="IfcWall material-randomrubble projection" ifc:name="Wall" ifc:guid="0XPngY5SLEvx7uH65TzCKS">
            <path d="M60.9442,92.5267 L60.9442,82.9057"/>
            <path d="M39.6942,57.5268 L-26.807,57.5268"/>
            <path d="M-26.807,67.5268 L-26.807,57.5268"/>
            <path d="M-30.5571,67.5268 L-26.807,67.5268"/>
            <path d="M-30.5571,92.5268 L-30.5571,67.5268"/>
            <path d="M39.6942,92.5268 L-30.5571,92.5268"/>
        </g>
        <g id="product-1b99fad0-d90b-4eb9-900b-555a5ee42567" class="IfcWall material-null projection" ifc:name="Wall" ifc:guid="0RcVhGsGjEkP0BLLfUv2Ld">
            <path d="M73.4442,122.527 L35.9442,122.527"/>
            <path d="M35.9442,128.527 L35.9442,122.527"/>
            <path d="M73.4442,128.527 L35.9442,128.527"/>
            <path d="M73.4442,122.527 L73.4442,128.527"/>
        </g>
        <g id="product-f41af3bb-2234-4b6a-ba90-1b600de2c3e6" class="IfcTank material-null projection" ifc:name="Tank" ifc:guid="3q6lEx8ZHBQhgG6s0DuiFc">
            <path d="M73.538,110.227 L74.1918,104.843"/>
            <path d="M71.6146,115.299 L73.538,110.227"/>
            <path d="M69.6942,118.081 L71.6146,115.299"/>
            <path d="M65.4134,122.527 L65.4134,122.527"/>
            <path d="M37.9702,122.527 L37.9702,122.527"/>
            <path d="M68.5333,89.9223 L65.8293,87.5267"/>
            <path d="M71.6146,94.3862 L68.5333,89.9223"/>
            <path d="M73.538,99.4579 L71.6146,94.3862"/>
            <path d="M74.1918,104.843 L73.538,99.4579"/>
            <path d="M73.538,110.227 L74.1918,104.843"/>
            <path d="M71.6146,115.299 L73.538,110.227"/>
            <path d="M69.6942,118.081 L71.6146,115.299"/>
            <path d="M65.4135,122.527 L65.4135,122.527"/>
            <path d="M71.6146,94.3863 L71.6146,94.3862"/>
            <path d="M73.538,99.4579 L71.6146,94.3863"/>
            <path d="M74.1918,104.843 L73.538,99.4579"/>
        </g>
        <g id="product-b336ede9-f1d1-45a9-92b1-8c568e3d44ab" class="IfcTank material-null projection" ifc:name="Tank" ifc:guid="2pDktfyT55gPAnZ5QEFKIh">
            <path d="M33.4068,128.527 L33.4068,147.527"/>
            <path d="M78.4068,110.027 L78.4068,82.9057"/>
            <path d="M78.4068,77.1907 L78.4068,72.5268"/>
            <path d="M78.4068,110.027 L78.4068,147.527"/>
            <path d="M74.4239,72.5268 L74.4239,72.5268"/>
            <path d="M76.9446,72.5268 L76.9446,72.5268"/>
            <path d="M78.2427,72.5268 L78.2427,72.5268"/>
            <path d="M78.2427,72.5268 L78.4068,72.5268"/>
            <path d="M76.9446,72.5268 L78.2427,72.5268"/>
            <path d="M74.4239,72.5268 L76.9446,72.5268"/>
            <path d="M72.4983,72.5268 L74.4239,72.5268"/>
            <path d="M70.8271,147.527 L70.8271,147.527"/>
            <path d="M74.4239,147.527 L74.4239,147.527"/>
            <path d="M76.9447,147.527 L76.9447,147.527"/>
            <path d="M78.2427,147.527 L78.2427,147.527"/>
            <path d="M78.2427,147.527 L78.4068,147.527"/>
            <path d="M76.9447,147.527 L78.2427,147.527"/>
            <path d="M74.4239,147.527 L76.9447,147.527"/>
            <path d="M70.8271,147.527 L74.4239,147.527"/>
            <path d="M66.3631,147.527 L70.8271,147.527"/>
            <path d="M61.2914,147.527 L66.3631,147.527"/>
            <path d="M55.9068,147.527 L61.2914,147.527"/>
            <path d="M50.5222,147.527 L55.9068,147.527"/>
            <path d="M45.4505,147.527 L50.5222,147.527"/>
            <path d="M40.9865,147.527 L45.4505,147.527"/>
            <path d="M37.3897,147.527 L40.9865,147.527"/>
            <path d="M34.8689,147.527 L37.3897,147.527"/>
            <path d="M33.5708,147.527 L34.8689,147.527"/>
            <path d="M33.4068,147.527 L33.5708,147.527"/>
            <path d="M33.5708,147.527 L33.5708,147.527"/>
            <path d="M34.8689,147.527 L34.8689,147.527"/>
            <path d="M37.3897,147.527 L37.3897,147.527"/>
            <path d="M40.9865,147.527 L40.9865,147.527"/>
        </g>
        <g id="product-a1e1621e-11d4-4a51-90eb-19f288a55fe6" class="IfcTank material-null projection" ifc:name="Tank" ifc:guid="2XuM8U4THAKP3h6VA8fL$c">
            <path d="M-18.9208,128.527 L-18.9208,147.527"/>
            <path d="M26.0792,128.527 L26.0792,147.527"/>
            <path d="M18.4994,147.527 L18.4994,147.527"/>
            <path d="M22.0963,147.527 L22.0963,147.527"/>
            <path d="M24.617,147.527 L24.617,147.527"/>
            <path d="M25.9151,147.527 L25.9151,147.527"/>
            <path d="M25.9151,147.527 L26.0792,147.527"/>
            <path d="M24.617,147.527 L25.9151,147.527"/>
            <path d="M22.0963,147.527 L24.617,147.527"/>
            <path d="M18.4994,147.527 L22.0963,147.527"/>
            <path d="M14.0354,147.527 L18.4994,147.527"/>
            <path d="M8.96377,147.527 L14.0354,147.527"/>
            <path d="M3.57916,147.527 L8.96377,147.527"/>
            <path d="M-1.80544,147.527 L3.57916,147.527"/>
            <path d="M-6.87711,147.527 L-1.80544,147.527"/>
            <path d="M-11.3411,147.527 L-6.87711,147.527"/>
            <path d="M-14.938,147.527 L-11.3411,147.527"/>
            <path d="M-17.4587,147.527 L-14.938,147.527"/>
            <path d="M-18.7568,147.527 L-17.4587,147.527"/>
            <path d="M-18.9208,147.527 L-18.7568,147.527"/>
            <path d="M-18.7568,147.527 L-18.7568,147.527"/>
            <path d="M-17.4587,147.527 L-17.4587,147.527"/>
            <path d="M-14.938,147.527 L-14.938,147.527"/>
            <path d="M-11.3411,147.527 L-11.3411,147.527"/>
        </g>
        <g id="product-60b74b77-67fe-460e-80d2-cca72e63ecea" class="IfcWall material-randomrubble projection" ifc:name="Wall" ifc:guid="1WjqjtP$v63e3IpASkO_pg">
            <path d="M60.9442,57.5268 L60.9442,77.1907"/>
            <path d="M60.9442,82.9057 L60.9442,92.5267"/>
            <path d="M54.6742,92.5267 L39.6942,92.5268"/>
            <path d="M54.6742,92.5267 L54.6742,57.5268"/>
            <path d="M54.6742,57.5268 L39.6942,57.5268"/>
            <path d="M39.6942,92.5268 L39.6942,57.5268"/>
            <path d="M60.9442,72.5268 L60.9442,72.5268"/>
            <path d="M60.9442,72.5268 L60.9442,58.0811"/>
        </g>
        <g id="product-2e464b9a-fcf9-48bd-9794-9fe43b329d46" class="IfcWall material-brick projection" ifc:name="Wall" ifc:guid="0kHakQ$Fb8lPUKd_GxCfr6">
            <path d="M-30.5572,-54.9733 L-30.5572,-14.9733"/>
            <path d="M3.44421,-54.9733 L-30.5572,-54.9733"/>
            <path d="M-30.5572,-14.9733 L3.44421,-14.9733"/>
            <path d="M48.4441,-99.9733 L-232.4,-99.9733"/>
            <path d="M48.4442,50.0267 L43.4689,50.0267"/>
            <path d="M40.9289,50.0267 L-40.057,50.0267"/>
            <path d="M-146.057,50.0267 L-232.4,50.0267"/>
            <path d="M-232.4,50.0267 L-244.9,50.0267"/>
            <path d="M-244.9,50.0267 L-244.9,-99.9733"/>
            <path d="M-232.4,-99.9733 L-244.9,-99.9733"/>
            <path d="M-232.4,50.0267 L-232.4,-99.9733"/>
        </g>
        <g id="product-9be882ff-7692-41d2-9b16-7234af05b34e" class="IfcPipeSegment material-graywater projection" ifc:name="PipeSegment" ifc:guid="2Rw8B$Tf91qfiMSZIl1RDE">
            <path d="M65.7443,55.5411 L60.9442,55.5411"/>
            <path d="M48.4442,55.5411 L43.4689,55.5411"/>
            <path d="M65.7443,58.0811 L60.9442,58.0811"/>
            <path d="M43.4689,57.2971 L43.4689,56.8111"/>
            <path d="M43.4689,57.5268 L43.4689,57.2971"/>
            <path d="M43.4689,55.6377 L43.4689,55.6377"/>
            <path d="M43.4689,55.6377 L43.4689,55.5411"/>
            <path d="M43.4689,55.913 L43.4689,55.6377"/>
            <path d="M43.4689,56.3251 L43.4689,55.913"/>
            <path d="M43.4689,56.8111 L43.4689,56.3251"/>
            <path d="M65.7443,57.2971 L65.7443,56.8111"/>
            <path d="M65.7443,57.7091 L65.7443,57.2971"/>
            <path d="M65.7443,57.9844 L65.7443,57.7091"/>
            <path d="M65.7443,58.0811 L65.7443,57.9844"/>
            <path d="M65.7443,57.9844 L65.7443,57.9844"/>
            <path d="M65.7443,55.6377 L65.7443,55.6377"/>
            <path d="M65.7443,55.6377 L65.7443,55.5411"/>
            <path d="M65.7443,55.913 L65.7443,55.6377"/>
            <path d="M65.7443,56.3251 L65.7443,55.913"/>
            <path d="M65.7443,56.8111 L65.7443,56.3251"/>
        </g>
        <g id="product-1796c5ab-96f1-4aa3-8ce6-14fd07ab3743" class="IfcSlab material-null projection" ifc:name="Slab" ifc:guid="0NbiMhbl5Aeupc5Fq7gpT3">
            <path d="M48.4442,51.0279 L48.4442,53.5283"/>
            <path d="M48.4442,51.0279 L-33.557,51.0279"/>
            <path d="M-33.557,53.5283 L-33.557,51.0279"/>
            <path d="M48.4442,53.5283 L-33.557,53.5283"/>
            <path d="M-33.557,53.5283 L-33.557,53.9041"/>
            <path d="M-33.557,53.9041 L48.4442,53.9041"/>
            <path d="M48.4442,53.9041 L48.4442,53.5283"/>
        </g>
        <g id="product-307ae029-adf6-46b7-bcd4-88b2cca8793a" class="IfcPipeSegment material-graywater projection" ifc:name="PipeSegment" ifc:guid="0mUk0fhVP6jxpKYBBCg7aw">
            <path d="M67.7746,54.4656 L65.84,54.4656"/>
            <path d="M48.4442,54.4656 L48.4441,54.4656"/>
            <path d="M67.7746,57.0056 L65.84,57.0056"/>
            <path d="M67.7746,55.7356 L67.7746,55.7356"/>
            <path d="M43.4689,55.2496 L43.4689,54.9545"/>
            <path d="M43.4689,55.5411 L43.4689,55.2496"/>
            <path d="M67.7746,56.2216 L67.7746,55.7356"/>
            <path d="M67.7746,56.6336 L67.7746,56.2216"/>
            <path d="M67.7746,56.9089 L67.7746,56.6336"/>
            <path d="M67.7746,57.0056 L67.7746,56.9089"/>
            <path d="M67.7746,56.9089 L67.7746,56.9089"/>
            <path d="M67.7746,54.5623 L67.7746,54.5623"/>
            <path d="M67.7746,54.5623 L67.7746,54.4656"/>
            <path d="M67.7746,54.8376 L67.7746,54.5623"/>
            <path d="M67.7746,55.2496 L67.7746,54.8376"/>
            <path d="M67.7746,55.7356 L67.7746,55.2496"/>
        </g>
        <g id="product-4a464a74-cd1c-4022-8301-9021513c8aa5" class="IfcSlab material-null projection" ifc:name="Slab" ifc:guid="1AHafqpHn08eC1a25HF8gb">
            <path d="M-40.057,55.0267 L-40.057,50.0267"/>
            <path d="M-146.057,50.0267 L-40.057,50.0267"/>
            <path d="M-146.057,50.0267 L-146.057,55.0267"/>
            <path d="M-146.057,55.0267 L-40.057,55.0267"/>
        </g>
        <g id="product-673a36cd-ee0d-4e41-8ad1-7e4048c84080" class="IfcPipeSegment material-graywater projection" ifc:name="PipeSegment" ifc:guid="1dEZRDxWrEGOhHVa18o420">
            <path d="M43.2677,56.2568 L43.3689,55.7809"/>
            <path d="M42.9817,56.6504 L43.2677,56.2568"/>
            <path d="M42.5604,56.8936 L42.9817,56.6504"/>
            <path d="M42.0766,56.9445 L42.5604,56.8936"/>
            <path d="M41.6139,56.7941 L42.0766,56.9445"/>
            <path d="M41.2523,56.4686 L41.6139,56.7941"/>
            <path d="M41.0544,56.0241 L41.2523,56.4686"/>
            <path d="M41.0544,55.5376 L41.0544,56.0241"/>
            <path d="M41.2523,55.0932 L41.0544,55.5376"/>
            <path d="M41.412,54.9494 L41.2523,55.0932"/>
            <path d="M43.2677,55.305 L43.0093,54.9494"/>
            <path d="M43.3689,55.7809 L43.2677,55.305"/>
            <path d="M43.3722,56.2669 L43.4689,55.7809"/>
            <path d="M43.0969,56.6789 L43.3722,56.2669"/>
            <path d="M42.6849,56.9542 L43.0969,56.6789"/>
            <path d="M42.1989,57.0509 L42.6849,56.9542"/>
            <path d="M41.7129,56.9542 L42.1989,57.0509"/>
            <path d="M41.3008,56.6789 L41.7129,56.9542"/>
            <path d="M41.0255,56.2669 L41.3008,56.6789"/>
            <path d="M40.9289,55.7809 L41.0255,56.2669"/>
            <path d="M41.0255,55.2949 L40.9289,55.7809"/>
            <path d="M41.2564,54.9494 L41.0255,55.2949"/>
            <path d="M43.3722,55.2949 L43.1413,54.9494"/>
            <path d="M43.4689,55.7809 L43.3722,55.2949"/>
        </g>
        <g id="product-3139f1ea-c09e-45c1-bb1c-41d6e23e4b36" class="IfcPipeSegment material-graywater projection" ifc:name="PipeSegment" ifc:guid="0nEV7gm9v5mRiSGTRYFais">
            <path d="M40.9289,57.0056 L40.9289,55.0796"/>
            <path d="M40.9289,51.0279 L40.9289,49.8267"/>
            <path d="M43.4689,57.0056 L43.4689,55.7809"/>
            <path d="M43.4689,55.7809 L43.4689,55.0796"/>
            <path d="M43.4689,51.0279 L43.4689,49.8267"/>
            <path d="M43.3722,57.0056 L43.3722,57.0056"/>
            <path d="M43.3722,57.0056 L43.4689,57.0056"/>
            <path d="M43.0969,57.0056 L43.3722,57.0056"/>
            <path d="M42.6849,57.0056 L43.0969,57.0056"/>
            <path d="M42.4265,57.0056 L42.6849,57.0056"/>
            <path d="M41.7129,57.0056 L41.9712,57.0056"/>
            <path d="M41.3008,57.0056 L41.7129,57.0056"/>
            <path d="M41.0255,57.0056 L41.3008,57.0056"/>
            <path d="M40.9289,57.0056 L41.0255,57.0056"/>
        </g>
        <g id="product-6f5c51d1-b027-4fa3-895a-e2336502d074" class="IfcDistributionChamberElement material-null projection" ifc:name="DistributionChamberElement" ifc:guid="1lN57Hi2TFeubQuZDb0j1q">
            <path d="M72.4983,87.5267 L72.4983,87.5267"/>
            <path d="M72.4983,72.5267 L72.4983,72.5267"/>
            <path d="M65.8418,72.5267 L72.4983,72.5267"/>
            <path d="M60.9442,87.5267 L72.4983,87.5267"/>
            <path d="M72.4983,87.5267 L72.4983,82.9057"/>
            <path d="M72.4983,77.1907 L72.4983,72.5267"/>
            <path d="M72.4983,72.5267 L72.4983,72.5267"/>
            <path d="M72.4983,87.5267 L72.4983,87.5267"/>
            <path d="M72.4983,87.5267 L72.4983,87.5267"/>
        </g>
        <g id="product-84e86a97-8155-43e5-931e-65ac340e3da3" class="IfcDistributionChamberElement material-null projection" ifc:name="DistributionChamberElement" ifc:guid="24w6gNWLL3vPCUPQmq3ZsZ">
            <path d="M103.857,87.5267 L83.857,87.5267"/>
            <path d="M83.857,87.5267 L83.857,87.5267"/>
            <path d="M83.857,87.5267 L83.857,82.8445"/>
            <path d="M83.857,78.1534 L83.857,77.16"/>
            <path d="M83.857,87.5267 L103.857,87.5267"/>
            <path d="M86.357,72.5267 L86.357,72.7767"/>
            <path d="M86.357,72.5267 L86.357,72.7767"/>
            <path d="M86.6782,72.7767 L86.6782,82.5267"/>
            <path d="M86.6782,72.7767 L86.6782,82.5267"/>
            <path d="M86.6782,82.5267 L86.6782,82.5267"/>
            <path d="M86.6782,82.5267 L101.036,82.5267"/>
            <path d="M86.6782,82.5267 L101.036,82.5267"/>
            <path d="M101.036,82.5267 L101.036,72.7767"/>
            <path d="M101.036,82.5267 L101.036,72.7767"/>
            <path d="M101.036,82.5267 L101.036,82.5267"/>
            <path d="M86.357,72.7767 L86.6782,72.7767"/>
            <path d="M86.6782,72.7767 L86.6782,72.7767"/>
            <path d="M86.6782,72.7767 L101.036,72.7767"/>
            <path d="M101.036,72.7767 L101.036,72.7767"/>
            <path d="M101.036,72.7767 L101.357,72.7767"/>
            <path d="M86.357,72.7767 L101.357,72.7767"/>
            <path d="M86.357,72.7767 L86.357,72.7767"/>
            <path d="M101.357,72.7767 L101.357,72.5267"/>
            <path d="M101.357,72.7767 L101.357,72.5267"/>
            <path d="M101.357,72.7767 L101.357,72.7767"/>
            <path d="M83.857,72.5267 L86.357,72.5267"/>
            <path d="M86.357,72.5267 L86.357,72.5267"/>
            <path d="M86.357,72.5267 L101.357,72.5267"/>
            <path d="M101.357,72.5267 L101.357,72.5267"/>
            <path d="M101.357,72.5267 L103.857,72.5267"/>
            <path d="M83.857,72.5267 L86.357,72.5267"/>
            <path d="M101.357,72.5267 L103.857,72.5267"/>
            <path d="M83.857,72.5267 L83.857,72.5267"/>
            <path d="M103.857,87.5267 L103.857,87.5267"/>
            <path d="M103.857,72.5267 L103.857,87.5267"/>
            <path d="M103.857,72.5267 L103.857,72.5267"/>
            <path d="M103.857,72.5267 L103.857,87.5267"/>
            <path d="M101.357,72.5267 L86.357,72.5267"/>
            <path d="M86.357,72.7767 L101.357,72.7767"/>
            <path d="M101.357,72.7767 L101.357,72.5267"/>
            <path d="M101.357,72.5267 L101.357,72.5267"/>
            <path d="M101.357,72.7767 L101.357,72.7767"/>
            <path d="M101.357,72.7767 L86.357,72.7767"/>
            <path d="M101.357,72.5267 L86.357,72.5267"/>
            <path d="M101.357,72.7767 L101.357,72.5267"/>
            <path d="M86.357,72.7767 L86.357,72.5267"/>
            <path d="M86.357,72.5267 L86.357,72.5267"/>
            <path d="M86.357,72.5267 L86.357,72.7767"/>
            <path d="M86.357,72.7767 L86.357,72.7767"/>
        </g>
        <g id="product-653b7eef-0ec4-495f-a225-f78171916502" class="IfcDistributionChamberElement material-null projection" ifc:name="DistributionChamberElement" ifc:guid="1bEtxl3iH9Nw8bzu5naMK2">
            <path d="M83.857,87.5267 L83.857,87.5267"/>
            <path d="M103.857,87.5267 L103.857,87.5267"/>
            <path d="M103.857,72.5267 L103.857,72.5267"/>
            <path d="M83.857,87.5267 L83.857,87.5267"/>
            <path d="M103.857,72.5267 L103.857,72.5267"/>
            <path d="M103.857,87.5267 L103.857,87.5267"/>
            <path d="M103.857,87.5267 L103.857,87.5267"/>
            <path d="M103.857,72.5267 L103.857,72.5267"/>
            <path d="M103.857,87.5267 L103.857,87.5267"/>
            <path d="M103.857,87.5267 L103.857,87.5267"/>
        </g>
        <g id="product-c8992923-927e-4b50-a317-9e669a81fcf3" class="IfcPipeSegment material-blackwater projection" ifc:name="PipeSegment" ifc:guid="38cIaZadvBKACNdcQQWVpp">
            <path d="M71.9631,77.1907 L83.857,77.1907"/>
            <path d="M71.9631,77.1907 L60.4052,77.1907"/>
            <path d="M71.9631,82.9057 L83.857,82.9057"/>
            <path d="M71.9631,82.9057 L60.0693,82.9057"/>
            <path d="M83.857,80.0482 L83.857,80.0482"/>
            <path d="M83.857,80.0482 L83.857,80.0482"/>
            <path d="M60.0693,80.0482 L60.0693,80.0482"/>
            <path d="M83.857,82.3999 L83.857,82.3999"/>
            <path d="M83.857,82.72 L83.857,82.72"/>
            <path d="M83.857,82.8849 L83.857,82.8849"/>
            <path d="M83.857,82.8849 L83.857,82.9057"/>
            <path d="M83.857,82.72 L83.857,82.8849"/>
            <path d="M83.857,82.3999 L83.857,82.72"/>
            <path d="M83.857,81.9431 L83.857,82.3999"/>
            <path d="M83.857,81.3762 L83.857,81.9431"/>
            <path d="M83.857,80.7321 L83.857,81.3762"/>
            <path d="M83.857,80.0482 L83.857,80.7321"/>
            <path d="M83.857,79.3644 L83.857,80.0482"/>
            <path d="M83.857,78.7203 L83.857,79.3644"/>
            <path d="M83.857,78.1534 L83.857,78.7203"/>
            <path d="M83.857,77.6966 L83.857,78.1534"/>
            <path d="M83.857,77.3764 L83.857,77.6966"/>
            <path d="M83.857,77.2116 L83.857,77.3764"/>
            <path d="M83.857,77.1907 L83.857,77.2116"/>
            <path d="M83.857,77.2116 L83.857,77.2116"/>
            <path d="M83.857,77.3764 L83.857,77.3764"/>
            <path d="M83.857,77.6966 L83.857,77.6966"/>
            <path d="M60.0693,82.8849 L60.0693,82.8849"/>
            <path d="M60.0693,82.8849 L60.0693,82.9057"/>
            <path d="M60.0693,82.3999 L60.0693,82.5705"/>
            <path d="M60.0693,81.9431 L60.0693,82.3999"/>
            <path d="M60.0693,81.3762 L60.0693,81.9431"/>
            <path d="M60.0693,80.7321 L60.0693,81.3762"/>
            <path d="M60.0693,80.0482 L60.0693,80.7321"/>
            <path d="M60.0693,79.3644 L60.0693,80.0482"/>
            <path d="M60.0693,78.7203 L60.0693,79.3644"/>
            <path d="M60.0693,78.1534 L60.0693,78.7203"/>
            <path d="M60.0693,77.6966 L60.0693,78.1534"/>
            <path d="M60.0693,77.5259 L60.0693,77.6966"/>
        </g>
        <g id="product-54d3d5d6-c30c-42b3-bccd-88a818efcc88" class="IfcPipeSegment material-blackwater projection" ifc:name="PipeSegment" ifc:guid="1KqzNMmmn2ixpDYAWOxyo8">
            <path d="M83.857,77.1907 L83.857,77.1907"/>
            <path d="M83.857,82.9057 L83.857,82.9057"/>
        </g>
        <g id="product-961e2b02-da9d-4719-b8fc-265e2f2a6862" class="IfcPipeSegment material-blackwater projection" ifc:name="PipeSegment" ifc:guid="2M7Yi2sfr76RZy9bulAcXY">
            <path d="M60.1268,-113.053 L60.1268,-193.756"/>
            <path d="M60.1268,-113.053 L60.1268,-99.9733"/>
            <path d="M65.8418,-49.7519 L65.8418,-194.764"/>
            <path d="M65.8418,-49.7519 L65.8418,54.4656"/>
            <path d="M65.8418,57.0056 L65.8418,77.1907"/>
            <path d="M65.4914,-194.702 L65.1905,-194.649"/>
            <path d="M65.8074,-194.758 L65.8418,-194.764"/>
            <path d="M65.4914,-194.702 L65.8074,-194.758"/>
            <path d="M65.1905,-194.649 L65.4914,-194.702"/>
            <path d="M64.7737,-194.576 L65.1905,-194.649"/>
            <path d="M64.2441,-194.482 L64.7737,-194.576"/>
            <path d="M63.653,-194.378 L64.2441,-194.482"/>
            <path d="M63.0292,-194.268 L63.653,-194.378"/>
            <path d="M62.4035,-194.158 L63.0292,-194.268"/>
            <path d="M61.8065,-194.053 L62.4035,-194.158"/>
            <path d="M61.267,-193.957 L61.8065,-194.053"/>
            <path d="M60.8109,-193.877 L61.267,-193.957"/>
            <path d="M60.4596,-193.815 L60.8109,-193.877"/>
            <path d="M60.2292,-193.774 L60.4596,-193.815"/>
            <path d="M60.1303,-193.757 L60.2292,-193.774"/>
            <path d="M60.1268,-193.756 L60.1303,-193.757"/>
        </g>
        <g id="product-98a0450f-5c80-4bd4-b90a-086ebe7efa4b" class="IfcPipeSegment material-blackwater projection" ifc:name="PipeSegment" ifc:guid="2Oe4KFN81BrBaA26w_VlfB">
            <path d="M54.6903,61.6798 L54.6903,50.0268"/>
            <path d="M54.6903,61.6798 L54.6903,82.8849"/>
            <path d="M60.4053,61.6798 L60.4053,40.4749"/>
            <path d="M60.4053,61.6798 L60.4053,77.1907"/>
            <path d="M57.5478,40.4749 L57.5478,40.4749"/>
            <path d="M57.5478,40.4749 L57.5478,40.4749"/>
            <path d="M57.5478,82.8849 L57.5478,82.8849"/>
            <path d="M57.5478,82.8849 L57.5478,82.8849"/>
            <path d="M60.3844,40.4749 L60.4053,40.4749"/>
            <path d="M60.2196,40.4749 L60.3844,40.4749"/>
            <path d="M59.8994,40.4749 L60.2196,40.4749"/>
            <path d="M59.4426,40.4749 L59.8994,40.4749"/>
            <path d="M58.8757,40.4749 L59.4426,40.4749"/>
            <path d="M58.2316,40.4749 L58.8757,40.4749"/>
            <path d="M57.5478,40.4749 L58.2316,40.4749"/>
            <path d="M56.8639,40.4749 L57.5478,40.4749"/>
            <path d="M56.2198,40.4749 L56.8639,40.4749"/>
            <path d="M55.6529,40.4749 L56.2198,40.4749"/>
            <path d="M55.1961,40.4749 L55.6529,40.4749"/>
            <path d="M54.876,40.4749 L55.1961,40.4749"/>
            <path d="M54.7111,40.4749 L54.876,40.4749"/>
            <path d="M54.6942,40.4749 L54.7111,40.4749"/>
            <path d="M59.8995,82.8849 L59.8994,82.8849"/>
            <path d="M60.2196,82.8849 L60.3841,82.8849"/>
            <path d="M59.8995,82.8849 L60.2196,82.8849"/>
            <path d="M59.4426,82.8849 L59.8995,82.8849"/>
            <path d="M58.8757,82.8849 L59.4426,82.8849"/>
            <path d="M58.2316,82.8849 L58.8757,82.8849"/>
            <path d="M57.5478,82.8849 L58.2316,82.8849"/>
            <path d="M56.8639,82.8849 L57.5478,82.8849"/>
            <path d="M56.2198,82.8849 L56.8639,82.8849"/>
            <path d="M55.6529,82.8849 L56.2198,82.8849"/>
            <path d="M55.1961,82.8849 L55.6529,82.8849"/>
            <path d="M54.876,82.8849 L55.1961,82.8849"/>
            <path d="M54.7111,82.8849 L54.876,82.8849"/>
            <path d="M54.6903,82.8849 L54.7111,82.8849"/>
            <path d="M54.7111,82.8849 L54.7111,82.8849"/>
            <path d="M54.876,82.8849 L54.876,82.8849"/>
            <path d="M55.1961,82.8849 L55.1961,82.8849"/>
        </g>
        <g id="product-59f7ba37-597c-4793-9dbc-44ced4975d81" class="IfcWall material-brick projection" ifc:name="Wall" ifc:guid="1PzxetMNn7avsyHCxKbrs1">
            <path d="M54.6942,50.0268 L48.4441,50.0267"/>
            <path d="M54.6942,50.0268 L54.6942,39.134"/>
            <path d="M54.6942,39.134 L48.4441,39.134"/>
            <path d="M48.4441,50.0267 L48.4441,39.134"/>
            <path d="M60.9441,-99.9733 L48.4441,-99.9733"/>
            <path d="M48.4441,32.604 L48.4441,-99.9733"/>
            <path d="M52.1576,32.884 L60.9442,32.884"/>
            <path d="M60.9441,-99.9733 L60.9442,32.884"/>
            <path d="M60.9442,50.0268 L60.4053,50.0268"/>
            <path d="M48.4441,38.2578 L48.4441,39.134"/>
            <path d="M60.9442,32.884 L60.9442,50.0268"/>
        </g>
        <g id="product-5708e7d9-6a46-419b-a61e-97170341e21d" class="IfcPipeSegment material-blackwater projection" ifc:name="PipeSegment" ifc:guid="1N2EVPQaP1cwOUbnS3GU8T">
            <path d="M48.4441,32.5428 L48.4441,32.5428"/>
            <path d="M48.4441,38.2578 L52.1576,38.2578"/>
            <path d="M52.1576,35.4003 L52.1576,35.4003"/>
            <path d="M52.1576,35.4003 L52.1576,35.4003"/>
            <path d="M41.8266,35.4003 L41.8266,35.4003"/>
            <path d="M52.1576,37.752 L52.1576,37.752"/>
            <path d="M52.1576,38.0721 L52.1576,38.0721"/>
            <path d="M52.1576,38.237 L52.1576,38.237"/>
            <path d="M52.1576,38.237 L52.1576,38.2578"/>
            <path d="M52.1576,38.0721 L52.1576,38.237"/>
            <path d="M52.1576,37.752 L52.1576,38.0721"/>
            <path d="M52.1576,37.2952 L52.1576,37.752"/>
            <path d="M52.1576,36.7282 L52.1576,37.2952"/>
            <path d="M52.1576,36.0841 L52.1576,36.7282"/>
            <path d="M52.1576,35.4003 L52.1576,36.0841"/>
            <path d="M52.1576,34.7164 L52.1576,35.4003"/>
            <path d="M52.1576,34.0723 L52.1576,34.7164"/>
            <path d="M52.1576,33.5054 L52.1576,34.0723"/>
            <path d="M52.1576,33.0486 L52.1576,33.5054"/>
            <path d="M52.1576,32.7285 L52.1576,33.0486"/>
            <path d="M52.1576,32.604 L52.1576,32.7285"/>
            <path d="M52.1576,33.0486 L52.1576,33.0486"/>
            <path d="M41.8266,38.0721 L41.8266,38.1965"/>
            <path d="M41.8266,37.752 L41.8266,38.0721"/>
            <path d="M41.8266,37.2952 L41.8266,37.752"/>
            <path d="M41.8266,36.7282 L41.8266,37.2952"/>
            <path d="M41.8266,36.0841 L41.8266,36.7282"/>
            <path d="M41.8266,35.4003 L41.8266,36.0841"/>
            <path d="M41.8266,34.7164 L41.8266,35.4003"/>
            <path d="M41.8266,34.0723 L41.8266,34.7164"/>
            <path d="M41.8266,33.5054 L41.8266,34.0723"/>
            <path d="M41.8266,33.0486 L41.8266,33.5054"/>
            <path d="M41.8266,32.7285 L41.8266,33.0486"/>
            <path d="M41.8266,32.604 L41.8266,32.7285"/>
        </g>
        <g id="product-f3e7ebd6-94a4-4d57-8b2a-2e84a45fd2f0" class="IfcPipeFitting material-blackwater projection" ifc:name="PipeFitting" ifc:guid="3pv_lMbAHDLuigBeIaNzBm">
            <path d="M55.236,40.4749 L55.2388,37.9824"/>
            <path d="M54.8301,40.4749 L54.833,38.2753"/>
            <path d="M54.6921,39.134 L54.6933,38.2755"/>
            <path d="M54.6935,38.1948 L54.6937,38.0092"/>
            <path d="M54.771,40.4749 L54.7741,38.1947"/>
            <path d="M54.7741,38.1947 L54.7744,38.0053"/>
            <path d="M60.3212,37.7328 L60.3245,40.4749"/>
            <path d="M60.4053,40.4749 L60.4018,37.7288"/>
            <path d="M60.2196,40.4749 L59.8994,40.4749"/>
            <path d="M60.2654,40.4749 L60.2621,37.7357"/>
            <path d="M59.8595,40.4749 L59.8568,37.7556"/>
            <path d="M55.7819,37.9558 L55.2388,37.9824"/>
            <path d="M55.7812,37.9362 L55.2334,37.8425"/>
            <path d="M55.2388,37.9824 L55.0757,37.9905"/>
            <path d="M55.2388,37.9824 L55.082,37.9588"/>
            <path d="M54.9869,37.9445 L54.9869,37.9445"/>
            <path d="M55.2388,37.9824 L55.2334,37.8425"/>
            <path d="M55.2334,37.8425 L55.0999,37.869"/>
            <path d="M55.0999,37.869 L54.8353,37.9216"/>
            <path d="M54.7763,37.9798 L54.7774,37.9332"/>
            <path d="M54.7763,37.9798 L54.6981,37.9489"/>
            <path d="M54.6937,38.0092 L54.6981,37.9489"/>
            <path d="M54.6937,38.0092 L54.7744,38.0053"/>
            <path d="M54.7744,38.0053 L54.7763,37.9798"/>
            <path d="M60.2241,36.8497 L60.3212,37.7328"/>
            <path d="M60.3212,37.7328 L60.4018,37.7288"/>
            <path d="M60.3212,37.7328 L60.2621,37.7357"/>
            <path d="M60.4018,37.7288 L60.3033,36.834"/>
            <path d="M60.2621,37.7357 L59.8568,37.7556"/>
            <path d="M60.2621,37.7357 L60.1662,36.8613"/>
            <path d="M59.8568,37.7556 L59.3136,37.7823"/>
            <path d="M59.8568,37.7556 L59.7681,36.9405"/>
            <path d="M55.2334,37.8425 L55.2256,37.8169"/>
            <path d="M55.7667,37.7364 L55.2334,37.8425"/>
            <path d="M55.0999,37.869 L54.8353,37.9216"/>
            <path d="M54.8353,37.9216 L54.8507,37.9722"/>
            <path d="M55.0999,37.869 L54.8507,37.9722"/>
            <path d="M54.8353,37.9216 L54.7774,37.9332"/>
            <path d="M54.8353,37.9216 L54.8507,37.9722"/>
            <path d="M54.6981,37.9489 L54.7774,37.9332"/>
            <path d="M54.7774,37.9332 L54.7961,37.9949"/>
            <path d="M59.9268,35.8696 L60.2241,36.8497"/>
            <path d="M60.2241,36.8497 L60.3033,36.834"/>
            <path d="M60.2241,36.8497 L60.1662,36.8613"/>
            <path d="M60.3033,36.834 L60.0014,35.8387"/>
            <path d="M60.1662,36.8613 L59.7681,36.9405"/>
            <path d="M60.1662,36.8613 L59.8722,35.8923"/>
            <path d="M59.7681,36.9405 L59.2347,37.0465"/>
            <path d="M59.7681,36.9405 L59.4972,36.0476"/>
            <path d="M55.2256,37.8169 L55.2131,37.7934"/>
            <path d="M55.728,37.6088 L55.2256,37.8169"/>
            <path d="M55.0999,37.869 L54.8507,37.9722"/>
            <path d="M54.8507,37.9722 L54.8756,38.0189"/>
            <path d="M55.0999,37.869 L54.8756,38.0189"/>
            <path d="M54.8507,37.9722 L54.7961,37.9949"/>
            <path d="M54.8507,37.9722 L54.8756,38.0189"/>
            <path d="M54.7745,38.0038 L54.7961,37.9949"/>
            <path d="M54.7961,37.9949 L54.8265,38.0517"/>
            <path d="M59.444,34.9664 L59.9268,35.8696"/>
            <path d="M59.9268,35.8696 L60.0014,35.8387"/>
            <path d="M59.9268,35.8696 L59.8722,35.8923"/>
            <path d="M60.0014,35.8387 L59.5112,34.9215"/>
            <path d="M59.8722,35.8923 L59.4972,36.0476"/>
            <path d="M59.8722,35.8923 L59.3949,34.9992"/>
            <path d="M59.4972,36.0476 L58.9948,36.2557"/>
            <path d="M59.4972,36.0476 L59.0574,35.2247"/>
            <path d="M55.2131,37.7934 L55.1961,37.7728"/>
            <path d="M55.6652,37.4913 L55.2131,37.7934"/>
            <path d="M55.0999,37.869 L54.8756,38.0189"/>
            <path d="M54.8756,38.0189 L54.9091,38.0598"/>
            <path d="M55.0999,37.869 L54.9091,38.0598"/>
            <path d="M54.8756,38.0189 L54.8265,38.0517"/>
            <path d="M54.8756,38.0189 L54.9091,38.0598"/>
            <path d="M54.7742,38.1148 L54.8102,38.1587"/>
            <path d="M54.7743,38.0866 L54.8265,38.0517"/>
            <path d="M54.8265,38.0517 L54.8674,38.1015"/>
            <path d="M58.7942,34.1746 L59.444,34.9664"/>
            <path d="M59.444,34.9664 L59.5112,34.9215"/>
            <path d="M59.444,34.9664 L59.3949,34.9992"/>
            <path d="M59.5112,34.9215 L58.8514,34.1175"/>
            <path d="M59.3949,34.9992 L59.0574,35.2247"/>
            <path d="M59.3949,34.9992 L58.7525,34.2164"/>
            <path d="M59.0574,35.2247 L58.6052,35.5268"/>
            <path d="M59.0574,35.2247 L58.4655,34.5034"/>
            <path d="M55.1961,37.7728 L55.1755,37.7558"/>
            <path d="M55.5807,37.3882 L55.1961,37.7728"/>
            <path d="M55.0999,37.869 L54.9091,38.0598"/>
            <path d="M54.9091,38.0598 L54.95,38.0933"/>
            <path d="M55.0999,37.869 L54.95,38.0933"/>
            <path d="M54.9091,38.0598 L54.8674,38.1015"/>
            <path d="M54.9091,38.0598 L54.95,38.0933"/>
            <path d="M54.8102,38.1587 L54.8541,38.1946"/>
            <path d="M54.8102,38.1587 L54.8674,38.1015"/>
            <path d="M54.8674,38.1015 L54.9172,38.1424"/>
            <path d="M58.0025,33.5249 L58.7942,34.1746"/>
            <path d="M58.7942,34.1746 L58.8514,34.1175"/>
            <path d="M58.7942,34.1746 L58.7525,34.2164"/>
            <path d="M58.8514,34.1175 L58.0474,33.4577"/>
            <path d="M58.7525,34.2164 L58.4655,34.5034"/>
            <path d="M58.7525,34.2164 L57.9697,33.574"/>
            <path d="M58.4655,34.5034 L58.0809,34.888"/>
            <path d="M58.4655,34.5034 L57.7442,33.9115"/>
            <path d="M55.1755,37.7558 L55.152,37.7432"/>
            <path d="M55.4776,37.3037 L55.1755,37.7558"/>
            <path d="M55.0999,37.869 L54.95,38.0933"/>
            <path d="M54.95,38.0933 L54.9966,38.1182"/>
            <path d="M55.0999,37.869 L54.9966,38.1182"/>
            <path d="M54.95,38.0933 L54.9172,38.1424"/>
            <path d="M54.95,38.0933 L54.9966,38.1182"/>
            <path d="M54.8823,38.1946 L54.9172,38.1424"/>
            <path d="M54.9172,38.1424 L54.974,38.1728"/>
            <path d="M57.0993,33.0421 L58.0025,33.5249"/>
            <path d="M58.0025,33.5249 L58.0474,33.4577"/>
            <path d="M58.0025,33.5249 L57.9697,33.574"/>
            <path d="M58.0474,33.4577 L57.1302,32.9675"/>
            <path d="M57.9697,33.574 L57.7442,33.9115"/>
            <path d="M57.9697,33.574 L57.0766,33.0967"/>
            <path d="M57.7442,33.9115 L57.4421,34.3637"/>
            <path d="M57.7442,33.9115 L56.9213,33.4717"/>
            <path d="M55.152,37.7432 L55.1264,37.7355"/>
            <path d="M55.3601,37.2408 L55.152,37.7432"/>
            <path d="M55.0999,37.869 L54.9966,38.1182"/>
            <path d="M54.9966,38.1182 L55.0473,38.1336"/>
            <path d="M55.0999,37.869 L55.0473,38.1336"/>
            <path d="M54.9966,38.1182 L54.974,38.1728"/>
            <path d="M54.9966,38.1182 L55.0473,38.1336"/>
            <path d="M54.9651,38.1944 L54.974,38.1728"/>
            <path d="M54.974,38.1728 L55.0357,38.1915"/>
            <path d="M56.1191,32.7448 L57.0993,33.0421"/>
            <path d="M57.0993,33.0421 L57.1302,32.9675"/>
            <path d="M57.0993,33.0421 L57.0766,33.0967"/>
            <path d="M57.1302,32.9675 L56.8549,32.884"/>
            <path d="M57.0766,33.0967 L56.9213,33.4717"/>
            <path d="M57.0766,33.0967 L56.3754,32.884"/>
            <path d="M56.9213,33.4717 L56.7132,33.9741"/>
            <path d="M56.9213,33.4717 L56.0284,33.2008"/>
            <path d="M55.2325,37.2022 L55.1264,37.7355"/>
            <path d="M55.0327,37.1877 L55.1264,37.7355"/>
            <path d="M55.1264,37.7355 L54.9864,37.7301"/>
            <path d="M55.1264,37.7355 L55.0999,37.869"/>
            <path d="M55.0999,37.869 L55.0473,38.1336"/>
            <path d="M54.9864,37.7301 L55.0101,37.8869"/>
            <path d="M55.0473,38.1336 L55.0357,38.1915"/>
            <path d="M55.02,38.2708 L55.0357,38.1915"/>
            <path d="M55.0357,38.1915 L54.9891,38.1926"/>
            <path d="M55.02,38.2708 L54.9891,38.1926"/>
            <path d="M54.9891,38.1926 L54.9636,38.1945"/>
            <path d="M55.02,38.2708 L54.9597,38.2752"/>
            <path d="M55.2361,32.6477 L56.1191,32.7448"/>
            <path d="M56.0915,32.884 L56.0284,33.2008"/>
            <path d="M56.0284,33.2008 L55.9223,33.7342"/>
            <path d="M56.0284,33.2008 L55.2133,33.1121"/>
            <path d="M55.0131,37.187 L54.9864,37.7301"/>
            <path d="M52.1576,37.1891 L52.1576,37.7329"/>
            <path d="M54.9864,37.7301 L54.9784,37.8932"/>
            <path d="M54.9864,37.7301 L52.1576,37.7329"/>
            <path d="M52.1576,37.7329 L52.1576,38.1388"/>
            <path d="M54.6935,38.1358 L52.1576,38.1388"/>
            <path d="M52.1576,38.1388 L52.1576,38.1979"/>
            <path d="M54.9597,38.2752 L54.774,38.2754"/>
            <path d="M54.6933,38.2755 L52.1576,38.2786"/>
            <path d="M54.9597,38.2752 L54.9636,38.1945"/>
            <path d="M54.9636,38.1945 L54.7741,38.1947"/>
            <path d="M54.7741,38.1947 L52.1576,38.1979"/>
            <path d="M52.1576,38.2786 L52.1576,38.1979"/>
            <path d="M52.1576,32.6444 L55.2361,32.6477"/>
            <path d="M55.2245,32.884 L55.2133,33.1121"/>
            <path d="M52.1576,32.884 L52.1576,33.1094"/>
            <path d="M55.2133,33.1121 L55.1866,33.6553"/>
            <path d="M55.2133,33.1121 L52.1576,33.1094"/>
            <path d="M52.1576,33.1094 L52.1576,33.6532"/>
        </g>
    <g ifc:guid="20JUjhvWbBRRjSV1SLXVka" ifc:name="SanitaryTerminal" class="IfcSanitaryTerminal material-null cut"><path d="M30.777416381630964,39.8267388343811 L34.96881500223643,39.8267388343811"/><path d="M34.96881500223643,49.826738238334656 L30.777416381630964,49.826738238334656"/><path d="M30.777416381630964,49.826738238334656 L30.777416381630964,44.57177221775055"/><path d="M30.777416381630964,44.57177221775055 L30.777416381630964,39.8267388343811"/><path d="M39.610729369912214,39.8267388343811 L34.96881500223643,39.8267388343811"/><path d="M39.610729369912214,49.826738238334656 L34.96881500223643,49.826738238334656"/><path d="M39.610729369912214,49.826738238334656 L39.610729369912214,45.08170485496521"/><path d="M39.610729369912214,45.08170485496521 L39.610729369912214,39.8267388343811"/><path d="M31.94404617289073,37.326738238334656 L39.77333084085948,37.326738238334656"/><path d="M31.94404617289073,37.326738238334656 L31.255207214150495,37.326738238334656"/><path d="M30.638752136025495,37.326738238334656 L31.255207214150495,37.326738238334656"/><path d="M30.638752136025495,37.326738238334656 L29.955539855752058,37.326738238334656"/><path d="M29.355869445595808,37.326738238334656 L29.955539855752058,37.326738238334656"/><path d="M29.355869445595808,37.326738238334656 L28.68934646585948,37.326738238334656"/><path d="M28.11723724344737,37.326738238334656 L28.68934646585948,37.326738238334656"/><path d="M28.11723724344737,37.326738238334656 L27.478275451455183,37.326738238334656"/><path d="M26.9440270994044,37.326738238334656 L27.478275451455183,37.326738238334656"/><path d="M26.9440270994044,37.326738238334656 L26.343021545205183,37.326738238334656"/><path d="M25.856456908974714,37.326738238334656 L26.343021545205183,37.326738238334656"/><path d="M25.856456908974714,37.326738238334656 L25.303039703164167,37.326738238334656"/><path d="M24.87293109634883,37.326738238334656 L25.303039703164167,37.326738238334656"/><path d="M24.87293109634883,37.326738238334656 L24.376066777501173,37.326738238334656"/><path d="M24.010523412022657,37.326738238334656 L24.376066777501173,37.326738238334656"/><path d="M24.010523412022657,37.326738238334656 L23.578127476964063,37.326738238334656"/><path d="M23.283823582921094,37.326738238334656 L23.578127476964063,37.326738238334656"/><path d="M23.283823582921094,37.326738238334656 L22.922667119298048,37.326738238334656"/><path d="M22.705229375157423,37.326738238334656 L22.922667119298048,37.326738238334656"/><path d="M22.705229375157423,37.326738238334656 L22.42103442886836,37.326738238334656"/><path d="M22.284754369053907,37.326738238334656 L22.42103442886836,37.326738238334656"/><path d="M22.284754369053907,37.326738238334656 L22.081717107091016,37.326738238334656"/><path d="M22.029551121983594,37.326738238334656 L22.081717107091016,37.326738238334656"/><path d="M39.77333084085948,39.8267388343811 L31.94404617289073,39.8267388343811"/><path d="M31.94404617289073,39.8267388343811 L31.255207214150495,39.8267388343811"/><path d="M31.255207214150495,39.8267388343811 L30.638752136025495,39.8267388343811"/><path d="M30.638752136025495,39.8267388343811 L29.955539855752058,39.8267388343811"/><path d="M29.955539855752058,39.8267388343811 L29.355869445595808,39.8267388343811"/><path d="M29.355869445595808,39.8267388343811 L28.68934646585948,39.8267388343811"/><path d="M28.68934646585948,39.8267388343811 L28.11723724344737,39.8267388343811"/><path d="M28.11723724344737,39.8267388343811 L27.478275451455183,39.8267388343811"/><path d="M27.478275451455183,39.8267388343811 L26.9440270994044,39.8267388343811"/><path d="M26.9440270994044,39.8267388343811 L26.343021545205183,39.8267388343811"/><path d="M26.343021545205183,39.8267388343811 L25.856456908974714,39.8267388343811"/><path d="M25.856456908974714,39.8267388343811 L25.303039703164167,39.8267388343811"/><path d="M25.303039703164167,39.8267388343811 L24.87293109634883,39.8267388343811"/><path d="M24.87293109634883,39.8267388343811 L24.376066777501173,39.8267388343811"/><path d="M24.376066777501173,39.8267388343811 L24.010523412022657,39.8267388343811"/><path d="M24.010523412022657,39.8267388343811 L23.578127476964063,39.8267388343811"/><path d="M23.578127476964063,39.8267388343811 L23.283823582921094,39.8267388343811"/><path d="M23.283823582921094,39.8267388343811 L22.922667119298048,39.8267388343811"/><path d="M22.922667119298048,39.8267388343811 L22.705229375157423,39.8267388343811"/><path d="M22.705229375157423,39.8267388343811 L22.42103442886836,39.8267388343811"/><path d="M22.42103442886836,39.8267388343811 L22.284754369053907,39.8267388343811"/><path d="M22.284754369053907,39.8267388343811 L22.081717107091016,39.8267388343811"/><path d="M22.081717107091016,39.8267388343811 L22.029551121983594,39.8267388343811"/><path d="M22.029551121983594,39.8267388343811 L21.977480504307813,39.8267388343811"/><path d="M21.977480504307813,37.326738238334656 L22.029551121983594,37.326738238334656"/><path d="M21.977480504307813,38.850051164627075 L21.977480504307813,37.326738238334656"/><path d="M21.977480504307813,39.8267388343811 L21.977480504307813,38.850051164627075"/><path d="M48.444041985664434,37.326738238334656 L39.77333084085948,37.326738238334656"/><path d="M48.444041985664434,39.8267388343811 L39.77333084085948,39.8267388343811"/><path d="M48.444041985664434,39.8267388343811 L48.444041985664434,38.64047825336456"/><path d="M48.444041985664434,38.64047825336456 L48.444041985664434,37.326738238334656"/><path d="M23.385103795323438,29.82673943042755 L24.482878300938673,29.82673943042755"/><path d="M24.482878300938673,37.326738238334656 L23.385103795323438,37.326738238334656"/><path d="M24.482878300938673,37.326738238334656 L24.482878300938673,34.87595319747925"/><path d="M24.482878300938673,34.87595319747925 L24.482878300938673,29.82673943042755"/><path d="M40.14774337748057,37.326738238334656 L39.40521255472667,37.326738238334656"/><path d="M40.14774337748057,29.82673943042755 L39.40521255472667,29.82673943042755"/><path d="M39.40521255472667,29.82673943042755 L39.40521255472667,34.87595021724701"/><path d="M39.40521255472667,37.326738238334656 L39.40521255472667,34.87595021724701"/><path d="M21.977480504307813,37.326738238334656 L23.385103795323438,37.326738238334656"/><path d="M21.977480504307813,29.82673943042755 L23.385103795323438,29.82673943042755"/><path d="M21.977480504307813,29.82673943042755 L21.977480504307813,32.75679647922516"/><path d="M21.977480504307813,37.326738238334656 L21.977480504307813,32.75679647922516"/><path d="M40.14774337748057,29.82673943042755 L48.444041985664434,29.82673943042755"/><path d="M48.444041985664434,37.326738238334656 L40.14774337748057,37.326738238334656"/><path d="M48.444041985664434,37.326738238334656 L48.444041985664434,33.76796245574951"/><path d="M48.444041985664434,33.76796245574951 L48.444041985664434,29.82673943042755"/></g><g ifc:guid="1N2EVPQaP1cwOUbnS3GU8T" ifc:name="PipeSegment" class="IfcPipeSegment material-blackwater cut"><path d="M41.826591644082136,37.54729926586151 L41.826591644082136,37.75676786899567 L41.826591644082136,38.196536898612976 L44.35897805133826,38.196536898612976 L52.15755440631873,38.19653391838074 L52.15755440631873,37.75676786899567 L52.15755440631873,37.54729926586151 L46.602496880683965,37.54729926586151 Z"/><path d="M41.826591644082136,32.8439325094223 L41.826591644082136,33.25326144695282 L47.38164879718787,33.25326144695282 L52.15755440631873,33.25326144695282 L52.15755440631873,32.84393548965454 L52.15755440631873,32.604023814201355 L49.6251676730997,32.604023814201355 L41.826591644082136,32.604023814201355 Z"/></g><g ifc:guid="2Oe4KFN81BrBaA26w_VlfB" ifc:name="PipeSegment" class="IfcPipeSegment material-blackwater cut"><path d="M59.694347533974714,82.88488760590553 L59.905109557900495,82.88488760590553 L60.34360900858409,82.88488760590553 L60.34360900858409,72.39305712282658 L60.34360900858409,40.47490358352661 L59.905109557900495,40.47490358352661 L59.694347533974714,40.47490358352661 L59.694347533974714,63.155487924814224 Z"/><path d="M54.9939725581742,82.88488760590553 L55.40109612384803,82.88488760590553 L55.40109612384803,60.204192996025085 L55.40109612384803,40.47490358352661 L54.9939725581742,40.47490358352661 L54.75183464923865,40.47490358352661 L54.75183464923865,50.96667259931564 L54.75183464923865,82.88488760590553 Z"/></g><g ifc:guid="38cIaZadvBKACNdcQQWVpp" ifc:name="PipeSegment" class="IfcPipeSegment material-blackwater cut"><path d="M60.06923690775401,82.19524100422859 L60.06923690775401,82.40471184253693 L60.06923690775401,82.84447714686394 L65.90028778055674,82.84447640180588 L83.85692462662226,82.8444741666317 L83.85692462662226,82.40471109747887 L83.85692462662226,82.19523876905441 L72.85991683939463,82.19523951411247 Z"/><path d="M60.06923690775401,77.49188207089901 L60.06923690775401,77.9012031853199 L71.06624618509775,77.90120244026184 L83.85692462662226,77.90120206773281 L83.85692462662226,77.49188430607319 L83.85692462662226,77.2519662976265 L78.02587375381952,77.2519662976265 L60.06923690775401,77.25196741521358 Z"/></g><g ifc:guid="24w6gNWLL3vPCUPQmq3ZsZ" ifc:name="DistributionChamberElement" class="IfcDistributionChamberElement material-null cut"><path d="M93.95748004654413,87.52673864364624 L83.85692462662226,87.52673864364624"/><path d="M83.85692462662226,79.95130643248558 L83.85692462662226,87.52673864364624"/><path d="M83.85692462662226,72.52673842012882 L83.85692462662226,79.95130643248558"/><path d="M85.27112827042109,72.52673842012882 L83.85692462662226,72.52673842012882"/><path d="M86.3568864796496,72.65341449528933 L86.3568864796496,72.52673842012882"/><path d="M86.3568864796496,72.52673842012882 L85.27112827042109,72.52673842012882"/><path d="M86.3568864796496,72.77673818171024 L86.3568864796496,72.65341449528933"/><path d="M86.51882037857538,72.77673818171024 L86.3568864796496,72.77673818171024"/><path d="M86.67808398941523,77.72003710269928 L86.67808398941523,72.77673818171024"/><path d="M86.67808398941523,72.77673818171024 L86.51882037857538,72.77673818171024"/><path d="M86.67808398941523,82.52673745155334 L86.67808398941523,77.72003710269928"/><path d="M93.75635013321406,82.52673745155334 L86.67808398941523,82.52673745155334"/><path d="M101.03574619034296,82.52673745155334 L93.75635013321406,82.52673745155334"/><path d="M101.03574619034296,77.58343815803528 L101.03574619034296,82.52673745155334"/><path d="M101.03574619034296,72.77673818171024 L101.03574619034296,77.58343815803528"/><path d="M101.19062289932734,72.77673818171024 L101.03574619034296,72.77673818171024"/><path d="M101.35694370010859,72.77673818171024 L101.19062289932734,72.77673818171024"/><path d="M101.35694370010859,72.65006192028522 L101.35694370010859,72.77673818171024"/><path d="M102.4427019093371,72.52673842012882 L101.35694370010859,72.52673842012882"/><path d="M101.35694370010859,72.52673842012882 L101.35694370010859,72.65006192028522"/><path d="M103.85690555313593,72.52673842012882 L102.4427019093371,72.52673842012882"/><path d="M103.85690555313593,87.52673864364624 L93.95748004654413,87.52673864364624"/><path d="M103.85690555313593,87.52673864364624 L103.85690555313593,80.10217174887657"/><path d="M103.85690555313593,80.10217174887657 L103.85690555313593,72.52673842012882"/><path d="M101.35694370010859,72.7767376229167 L93.75635013321406,72.7767376229167"/><path d="M101.35694370010859,72.52673786133528 L93.95748004654413,72.52673786133528"/><path d="M101.35694370010859,72.52673786133528 L101.35694370010859,72.6500615477562"/><path d="M101.35694370010859,72.6500615477562 L101.35694370010859,72.7767376229167"/><path d="M93.75635013321406,72.7767376229167 L86.3568864796496,72.7767376229167"/><path d="M86.3568864796496,72.7767376229167 L86.3568864796496,72.6534141227603"/><path d="M86.3568864796496,72.6534141227603 L86.3568864796496,72.52673786133528"/><path d="M93.95748004654413,72.52673786133528 L86.3568864796496,72.52673786133528"/></g><g ifc:guid="3pv_lMbAHDLuigBeIaNzBm" ifc:name="PipeFitting" class="IfcPipeFitting material-blackwater cut"><path d="M54.77100350299842,40.47490358352661 L54.77243401447303,39.43318724632263"/><path d="M60.32444015482432,40.47490358352661 L60.32253280619151,38.89296352863312"/><path d="M54.77624871173865,37.97978162765503 L54.77434136310584,38.00525665283203"/><path d="M54.77434136310584,38.00525665283203 L54.77243401447303,39.43318724632263"/><path d="M60.2656938169337,37.22778856754303 L60.3211022947169,37.73276209831238"/><path d="M60.3211022947169,37.73276209831238 L60.32253280619151,38.89296352863312"/><path d="M54.7772977534867,37.93316185474396 L54.77624871173865,37.97978162765503"/><path d="M54.7772977534867,37.93316185474396 L54.78616692462928,37.96238601207733"/><path d="M60.224018249306745,36.84973418712616 L60.2656938169337,37.22778856754303"/><path d="M60.05426422098643,36.29011809825897 L60.224018249306745,36.84973418712616"/><path d="M54.78616692462928,37.96238601207733 L54.79598977008826,37.99484968185425"/><path d="M54.79598977008826,37.99484968185425 L54.81201149860389,38.024768233299255"/><path d="M59.92675796488292,35.86963415145874 L60.05426422098643,36.29011809825897"/><path d="M59.71961990335948,35.4821115732193 L59.92675796488292,35.86963415145874"/><path d="M54.81201149860389,38.024768233299255 L54.82641198078162,38.051700592041016"/><path d="M54.82641198078162,38.051700592041016 L54.84577156940467,38.07530701160431"/><path d="M59.71961990335948,35.4821115732193 L59.44391265848643,34.9663645029068"/><path d="M59.165153655800886,34.62669849395752 L59.44391265848643,34.9663645029068"/><path d="M54.84577156940467,38.07530701160431 L54.86732460895545,38.10153305530548"/><path d="M54.89355065265662,38.123053312301636 L54.86732460895545,38.10153305530548"/><path d="M59.165153655800886,34.62669849395752 L58.794174346718854,34.174638986587524"/><path d="M58.45457092264659,33.895882964134216 L58.794174346718854,34.174638986587524"/><path d="M54.917106408271856,38.14242780208588 L54.89355065265662,38.123053312301636"/><path d="M54.94409539142615,38.15682232379913 L54.917106408271856,38.14242780208588"/><path d="M58.45457092264659,33.895882964134216 L58.002433929238386,33.52489173412323"/><path d="M57.614956054482526,33.31775665283203 L58.002433929238386,33.52489173412323"/><path d="M54.97394539752967,38.17281424999237 L54.94409539142615,38.15682232379913"/><path d="M55.00646569171912,38.182663917541504 L54.97394539752967,38.17281424999237"/><path d="M57.614956054482526,33.31775665283203 L57.099208984170026,33.04208517074585"/><path d="M57.099208984170026,33.04208517074585 L56.53959289530284,32.87232518196106"/><path d="M55.03564812580115,38.19153010845184 L55.00646569171912,38.182663917541504"/><path d="M55.03564812580115,38.19153010845184 L54.98901345172889,38.19263279438019"/><path d="M56.53959289530284,32.87232518196106 L56.11911751667029,32.74477422237396"/><path d="M56.11911751667029,32.74477422237396 L55.741081017646856,32.703158259391785"/><path d="M54.98901345172889,38.19263279438019 L54.96355034748084,38.1945013999939"/><path d="M53.34144570270545,38.196393847465515 L52.15755440631873,38.197848200798035"/><path d="M54.96355034748084,38.1945013999939 L53.34144570270545,38.196393847465515"/><path d="M55.741081017646856,32.703158259391785 L55.23611046710975,32.64772891998291"/><path d="M53.93377282062537,32.64627456665039 L52.15755440631873,32.64438211917877"/><path d="M55.23611046710975,32.64772891998291 L53.93377282062537,32.64627456665039"/></g><g ifc:guid="1Q_c7uVcTCngKTLSlSECoW" ifc:name="Site" class="IfcSite material-null cut"><path d="M-455.7687677409314,72.52675071358681 L-853.4964479472302,72.52675071358681"/><path d="M204.75164279678827,72.52675071358681 L-455.7687677409314,72.52675071358681"/></g><g ifc:guid="1WjqjtP$v63e3IpASkO_pg" ifc:name="Wall" ifc:layer-id="141746" class="IfcWall material-randomrubble IfcMaterialLayer layer-material-Plaster cut"/><g class="material-null cut 1AHafqpHn08eC1a25HF8gb IfcSlab 26vf0ogu9C3812sFdsj2Hs 0NbiMhbl5Aeupc5Fq7gpT3"><path d="M-146.057,48.527 L-146.057,50.027 L-146.057,53.45 L-146.057,55.027 L-120.607,55.027 L-61.192,55.027 L-40.057,55.027 L-40.057,54.03 L-40.057,50.027 L-40.057,48.527 L-40.057,47.527 L-146.057,47.527 Z"/></g><g class="material-null cut 1AHafqpHn08eC1a25HF8gb IfcSlab 26vf0ogu9C3812sFdsj2Hs 0NbiMhbl5Aeupc5Fq7gpT3"><path d="M-33.557,53.528 L48.444,53.528 L48.444,52.028 L48.444,51.028 L-33.557,51.028 L-33.557,52.028 Z"/></g><g class="cut 1PzxetMNn7avsyHCxKbrs1 material-brick IfcWall"><path d="M48.944,-99.973 L48.444,-99.973 L48.444,32.884 L48.944,32.884 L60.444,32.884 L60.944,32.884 L60.944,-99.973 L60.444,-99.973 Z"/></g><g class="cut 1PzxetMNn7avsyHCxKbrs1 material-brick IfcWall"><path d="M48.944,39.134 L48.444,39.134 L48.444,50.027 L48.944,50.027 L54.694,50.027 L54.694,39.134 Z"/></g><g class="0RcVhGsGjEkP0BLLfUv2Ld material-null cut IfcWall 0MuvIxI8bFFxmzWw1hEsL7"><path d="M195.4,49.06 L195.4,72.527 L202.359,72.527 L204.752,72.527 L204.752,49.557 L204.752,-17.473 L202.359,-17.473 L195.4,-17.473 Z"/></g><g class="0RcVhGsGjEkP0BLLfUv2Ld material-null cut IfcWall 0MuvIxI8bFFxmzWw1hEsL7"><path d="M35.944,122.527 L35.944,123.574 L35.944,128.527 L63.552,128.527 L73.444,128.527 L73.444,127.098 L73.444,122.527 L41.784,122.527 Z"/></g><g class="cut material-concrete 1wQS_Uf5DElvfetkYgG8Yj IfcWall"><path d="M44.69,92.527 L39.694,92.527 L39.694,97.996 L39.694,122.527 L62.104,122.527 L69.694,122.527 L69.694,115.541 L69.694,92.527 Z"/></g><g class="1WjqjtP$v63e3IpASkO_pg material-randomrubble cut IfcWall"><path d="M54.674,57.527 L40.194,57.527 L39.694,57.527 L39.694,92.527 L40.194,92.527 L54.674,92.527 Z"/></g><g class="material-null cut layer-material-Stone IfcMaterialLayer IfcSlab 26vf0ogu9C3812sFdsj2Hs 0NbiMhbl5Aeupc5Fq7gpT3"><path d="M-40.057,48.527 L-146.057,48.527 L-146.057,50.027 L-40.057,50.027 Z"/></g><g class="material-null cut layer-material-Stone IfcMaterialLayer IfcSlab 26vf0ogu9C3812sFdsj2Hs 0NbiMhbl5Aeupc5Fq7gpT3"><path d="M48.444,52.028 L-33.557,52.028 L-33.557,53.528 L48.444,53.528 Z"/></g><g class="material-null cut 1AHafqpHn08eC1a25HF8gb IfcMaterialLayer IfcSlab layer-material-Concrete 26vf0ogu9C3812sFdsj2Hs 0NbiMhbl5Aeupc5Fq7gpT3"><path d="M-40.057,47.527 L-146.057,47.527 L-146.057,48.527 L-40.057,48.527 Z"/></g><g class="material-null cut 1AHafqpHn08eC1a25HF8gb IfcMaterialLayer IfcSlab layer-material-Concrete 26vf0ogu9C3812sFdsj2Hs 0NbiMhbl5Aeupc5Fq7gpT3"><path d="M-33.557,51.028 L-33.557,52.028 L48.444,52.028 L48.444,51.028 Z"/></g><g class="material-null cut 1AHafqpHn08eC1a25HF8gb IfcMaterialLayer IfcSlab layer-material-Concrete 26vf0ogu9C3812sFdsj2Hs 0NbiMhbl5Aeupc5Fq7gpT3"><path d="M-146.057,50.027 L-146.057,53.45 L-146.057,55.027 L-120.607,55.027 L-61.192,55.027 L-40.057,55.027 L-40.057,54.03 L-40.057,50.027 L-61.192,50.027 L-120.607,50.027 Z"/></g><g class="cut material-brick IfcWall IfcMaterialLayer 1PzxetMNn7avsyHCxKbrs1 layer-material-Plaster"><path d="M48.444,-99.973 L48.444,32.884 L48.944,32.884 L48.944,-99.973 Z"/></g><g class="cut material-brick IfcWall IfcMaterialLayer 1PzxetMNn7avsyHCxKbrs1 layer-material-Plaster"><path d="M60.444,32.884 L60.944,32.884 L60.944,-99.973 L60.444,-99.973 Z"/></g><g class="cut material-brick IfcWall IfcMaterialLayer 1PzxetMNn7avsyHCxKbrs1 layer-material-Plaster"><path d="M48.944,39.134 L48.444,39.134 L48.444,50.027 L48.944,50.027 Z"/></g><g class="material-brick cut IfcWall IfcMaterialLayer 1PzxetMNn7avsyHCxKbrs1 layer-material-Brick"><path d="M60.444,32.884 L60.444,-99.973 L48.944,-99.973 L48.944,32.884 Z"/></g><g class="material-brick cut IfcWall IfcMaterialLayer 1PzxetMNn7avsyHCxKbrs1 layer-material-Brick"><path d="M54.694,50.027 L54.694,39.134 L48.944,39.134 L48.944,50.027 Z"/></g><g class="0RcVhGsGjEkP0BLLfUv2Ld layer-material-Wall material-null cut IfcWall IfcMaterialLayer 0MuvIxI8bFFxmzWw1hEsL7"><path d="M195.4,49.06 L195.4,72.527 L202.359,72.527 L204.752,72.527 L204.752,49.557 L204.752,-17.473 L202.359,-17.473 L195.4,-17.473 Z"/></g><g class="0RcVhGsGjEkP0BLLfUv2Ld layer-material-Wall material-null cut IfcWall IfcMaterialLayer 0MuvIxI8bFFxmzWw1hEsL7"><path d="M35.944,122.527 L35.944,123.574 L35.944,128.527 L63.552,128.527 L73.444,128.527 L73.444,127.098 L73.444,122.527 L41.784,122.527 Z"/></g><g class="layer-material-Wall cut IfcWall IfcMaterialLayer 1wQS_Uf5DElvfetkYgG8Yj material-concrete"><path d="M44.69,92.527 L39.694,92.527 L39.694,97.996 L39.694,122.527 L62.104,122.527 L69.694,122.527 L69.694,115.541 L69.694,92.527 Z"/></g><g class="material-randomrubble 1WjqjtP$v63e3IpASkO_pg cut IfcWall IfcMaterialLayer layer-material-Plaster"><path d="M40.194,57.527 L39.694,57.527 L39.694,92.527 L40.194,92.527 Z"/></g><g class="material-randomrubble 1WjqjtP$v63e3IpASkO_pg cut IfcWall layer-material-Stone IfcMaterialLayer"><path d="M54.674,57.527 L40.194,57.527 L40.194,92.527 L54.674,92.527 Z"/></g><g id="product-6eaf2bc4-ee8e-4202-a736-288df931f40d" class="IfcBeam material-concrete projection" ifc:name="Beam" ifc:guid="1khol4xev20gSsA8tvCVGD">
            <path d="M48.4442,50.0268 L43.4689,50.0268"/>
            <path d="M40.9289,50.0268 L-33.5571,50.0268"/>
            <path d="M-26.807,57.5268 L-33.5571,57.5268"/>
            <path d="M-33.5571,57.5268 L-33.5571,50.0268"/>
            <path d="M48.4442,50.0268 L48.4442,50.0268"/>
            <path d="M48.4442,54.4656 L48.4442,53.9041"/>
            <path d="M48.4442,51.0279 L48.4442,50.0268"/>
        </g>
        <g id="product-c0a7ac49-c0e4-4088-8df5-dccd3f8d3a95" class="IfcBeam material-concrete projection" ifc:name="Beam" ifc:guid="30fwn9mEH0Y8trtCq$ZJgL">
            <path d="M54.6742,57.5268 L54.6742,57.5268"/>
            <path d="M60.9442,57.5268 L60.9442,50.0268"/>
            <path d="M54.6742,57.5268 L54.6903,57.5268"/>
            <path d="M60.4053,57.5268 L60.9442,57.5268"/>
            <path d="M54.6742,57.5268 L48.4442,57.5268"/>
            <path d="M54.6742,57.5268 L54.6742,50.0268"/>
            <path d="M54.6742,50.0268 L48.4442,50.0268"/>
            <path d="M48.4442,57.5268 L48.4442,50.0268"/>
        </g>
        <g ifc:guid="30fwn9mEH0Y8trtCq$ZJgL" ifc:name="Beam" class="IfcBeam material-concrete cut"><path d="M54.67411019245154,50.026753544807434 L48.94414879718787,50.026753544807434 L48.444137353096075,50.026753544807434 L48.444137353096075,57.52675384283066 L48.94414879718787,57.52675384283066 L54.67411019245154,57.52675384283066 Z"/></g><g ifc:guid="30fwn9mEH0Y8trtCq$ZJgL" ifc:name="Beam" ifc:layer-id="144872" class="IfcBeam material-concrete IfcMaterialLayer layer-material-Plaster cut"><path d="M48.94414879718787,50.026753544807434 L48.444137353096075,50.026753544807434 L48.444137353096075,57.52675384283066 L48.94414879718787,57.52675384283066 Z"/></g><g ifc:guid="30fwn9mEH0Y8trtCq$ZJgL" ifc:name="Beam" ifc:layer-id="144873" class="IfcBeam material-concrete IfcMaterialLayer layer-material-Concrete cut"><path d="M54.67411019245154,50.026753544807434 L48.94414879718787,50.026753544807434 L48.94414879718787,57.52675384283066 L54.67411019245154,57.52675384283066 Z"/></g><g ifc:guid="30fwn9mEH0Y8trtCq$ZJgL" ifc:name="Beam" ifc:layer-id="144874" class="IfcBeam material-concrete IfcMaterialLayer layer-material-Plaster cut"/></g>
</svg>