<svg xmlns="http://www.w3.org/2000/svg" xmlns:xlink="http://www.w3.org/1999/xlink" xmlns:ifc="http://www.ifcopenshell.org/ns" width="49.8305mm" height="100mm" viewBox="0 0 49.8305 100">
    <defs>
        <marker id="arrowend" markerWidth="10" markerHeight="7" refX="10" refY="3.5" orient="auto">
          <polygon points="0 0, 10 3.5, 0 7"/>
        </marker>
        <marker id="arrowstart" markerWidth="10" markerHeight="7" refX="0" refY="3.5" orient="auto">
          <polygon points="10 0, 0 3.5, 10 7"/>
        </marker>
    </defs>
    <g ifc:name="Elevation EAST SECTION-X" class="section" ifc:plane="[[1.000000,0.000000,0.000000,0.000000],[0.000000,1.000000,0.000000,0.000000],[0.000000,0.000000,1.000000,0.000000],[0.000000,0.000000,0.000000,1.000000]]" ifc:matrix3="[[50.000001,0.000000,718.236641],[0.000000,50.000001,57.499993],[0.000000,0.000000,1.000000]]">
        <g id="product-9b178ef9-9369-4807-8591-c54a64e0f217" class="IfcDoor material-UPVC projection" ifc:name="Door" ifc:guid="2R5uxvasb81uMHnKfauF8N">
            <path d="M78.216,35 L78.216,33.75"/>
            <path d="M38.216,33.75 L78.216,33.75"/>
            <path d="M38.216,33.75 L38.216,35"/>
            <path d="M38.216,35 L78.216,35"/>
            <path d="M76.966,-15.75 L76.966,-16.75"/>
            <path d="M70.966,-16.75 L76.966,-16.75"/>
            <path d="M70.966,-16.75 L70.966,-15.75"/>
            <path d="M70.966,-15.75 L76.966,-15.75"/>
        </g>
        <g id="product-34323c8c-c353-412c-9318-154a80cef67a" class="IfcSanitaryTerminal material-null projection" ifc:name="SanitaryTerminal" ifc:guid="0qCZoCmrD1B9CO5Kg0plPw">
            <path d="M14.3826,24.8 L5.54929,24.8"/>
            <path d="M5.54929,34.8 L5.54929,24.8"/>
            <path d="M14.3826,34.8 L5.54929,34.8"/>
            <path d="M14.3826,24.8 L14.3826,34.8"/>
            <path d="M18.4941,22.3 L-3.23849,22.3"/>
            <path d="M-3.23849,22.3 L-3.23849,24.8"/>
            <path d="M18.4941,24.8 L-3.23849,24.8"/>
            <path d="M-0.281833,14.8 L-0.723191,14.8"/>
            <path d="M0.562509,14.8 L-0.281833,14.8"/>
            <path d="M1.76121,14.8 L0.562509,14.8"/>
            <path d="M3.24525,14.8 L1.76121,14.8"/>
            <path d="M4.92915,14.8 L3.24525,14.8"/>
            <path d="M6.71595,14.8 L4.92915,14.8"/>
            <path d="M8.50276,14.8 L6.71595,14.8"/>
            <path d="M10.1867,14.8 L8.50276,14.8"/>
            <path d="M11.6707,14.8 L10.1867,14.8"/>
            <path d="M12.8694,14.8 L11.6707,14.8"/>
            <path d="M13.7137,14.8 L12.8694,14.8"/>
            <path d="M14.1551,14.8 L13.7137,14.8"/>
            <path d="M-0.723191,22.3 L-3.23849,22.3"/>
            <path d="M-0.723191,14.8 L-0.723191,22.3"/>
            <path d="M-0.723191,14.8 L-3.23849,14.8"/>
            <path d="M-3.23849,14.8 L-3.23849,22.3"/>
            <path d="M0.562509,14.8 L1.76121,14.8"/>
            <path d="M-0.723191,14.8 L-0.281833,14.8"/>
            <path d="M18.4941,14.8 L14.1551,14.8"/>
            <path d="M14.1551,14.8 L14.1551,22.3"/>
            <path d="M18.4941,22.3 L14.1551,22.3"/>
        </g>
        <g id="product-dae53764-a320-43b5-b134-0002f7a79cf4" class="IfcWall material-null projection" ifc:name="Wall" ifc:guid="3QvJTaeo13jR4q00Btfvpq">
            <path d="M481.506,57.5 L481.506,-32.5"/>
            <path d="M481.506,-32.5 L216.904,-32.5"/>
            <path d="M-0.768963,-32.5 L-530.59,-32.5"/>
            <path d="M481.506,57.5 L257.478,57.5"/>
            <path d="M-127.521,57.5 L-530.59,57.5"/>
            <path d="M-530.59,57.5 L-544.752,57.5"/>
            <path d="M-530.59,-32.5 L-530.59,57.5"/>
            <path d="M-530.59,-32.5 L-544.752,-32.5"/>
            <path d="M-544.752,57.5 L-544.752,-32.5"/>
        </g>
        <g id="product-40c460a9-2ab0-4756-9b51-72d2c4343204" class="IfcSlab material-null projection" ifc:name="Slab" ifc:guid="10n62fAh17LfjHSjB4D384">
            <path d="M-13.2689,32.5 L-63.7689,32.5"/>
            <path d="M-13.2689,35 L-63.7689,35"/>
            <path d="M-13.2689,35 L-13.2689,32.5"/>
            <path d="M-63.7689,35 L-237.773,35"/>
            <path d="M-63.7689,32.5 L-63.7689,35"/>
            <path d="M-63.7689,32.5 L-237.773,32.5"/>
            <path d="M-237.773,35 L-237.773,32.5"/>
        </g>
        <g id="product-6f4a6839-3ae4-4012-9c23-17eb562de5b9" class="IfcWall material-concrete projection" ifc:name="Wall" ifc:guid="1lIcWvEkH04fmZ5_jMBUMv">
            <path d="M47.4659,107.5 L17.4659,107.5"/>
            <path d="M47.4659,77.5 L47.4659,107.5"/>
            <path d="M47.4659,77.5 L17.4659,77.5"/>
            <path d="M17.4659,107.5 L17.4659,77.5"/>
        </g>
        <g id="product-884dc263-7ddd-4cd6-b5c4-199ffba38d49" class="IfcWall material-randomrubble projection" ifc:name="Wall" ifc:guid="28JS9ZVTrCrhN46P$xeur9">
            <path d="M43.7159,77.5 L21.2159,77.5"/>
            <path d="M43.7159,50 L43.7159,77.5"/>
            <path d="M43.7159,50 L24.2091,50"/>
            <path d="M21.2159,77.5 L21.2159,56.6548"/>
        </g>
        <g id="product-3bd749fe-b6a8-4ce9-91f6-bf14c34eb105" class="IfcTank material-null projection" ifc:name="Tank" ifc:guid="0xrqd_jgXCwP7slnJ3Jh45">
            <path d="M14.3919,57.5 L18.5566,57.5"/>
        </g>
        <g id="product-607f8fd1-d88a-4ee1-8533-570e4855de3c" class="IfcWall material-brick projection" ifc:name="Wall" ifc:guid="1WVu$Hs8fEuOKpLmv8LTuy">
            <path d="M60.7283,-70 L60.7283,-40"/>
        </g>
        <g id="product-8330648f-5a97-4598-9d1f-8bcc22d7f317" class="IfcWall material-brick2 projection" ifc:name="Wall" ifc:guid="23C6IFMfT5c9qVYymYr$CN">
            <path d="M35.716,-70 L80.716,-70"/>
            <path d="M80.716,-70 L80.716,35"/>
            <path d="M110.726,35 L80.716,35"/>
            <path d="M110.726,-110 L110.726,35"/>
            <path d="M110.726,-110 L35.716,-110"/>
            <path d="M35.716,-70 L35.716,-110"/>
        </g>
        <g id="product-8e1e0197-b12e-4783-9e0d-ef934708e581" class="IfcPipeSegment material-graywater projection" ifc:name="PipeSegment" ifc:guid="2E7W6NiIv7WvuDxvD72EM1">
            <path d="M105.675,59.1782 L96.814,59.1782"/>
            <path d="M106.615,60.6914 L106.47,61.0861"/>
            <path d="M106.615,60.2049 L106.615,60.6914"/>
            <path d="M106.452,59.7604 L106.615,60.2049"/>
            <path d="M106.155,59.4349 L106.452,59.7604"/>
            <path d="M105.776,59.2846 L106.155,59.4349"/>
            <path d="M105.674,59.2782 L105.776,59.2846"/>
            <path d="M105.379,59.3354 L105.674,59.2782"/>
            <path d="M105.033,59.5787 L105.379,59.3354"/>
            <path d="M104.838,59.9048 L105.033,59.5787"/>
            <path d="M106.638,60.9342 L106.513,61.1634"/>
            <path d="M106.718,60.4482 L106.638,60.9342"/>
            <path d="M106.638,59.9622 L106.718,60.4482"/>
            <path d="M106.412,59.5501 L106.638,59.9622"/>
            <path d="M106.074,59.2748 L106.412,59.5501"/>
            <path d="M105.675,59.1782 L106.074,59.2748"/>
            <path d="M105.277,59.2748 L105.675,59.1782"/>
            <path d="M104.938,59.5501 L105.277,59.2748"/>
            <path d="M104.744,59.9048 L104.938,59.5501"/>
        </g>
        <g id="product-0b2853c1-4ef5-4e82-a531-50ef452530b9" class="IfcWall material-brick projection" ifc:name="Wall" ifc:guid="0BA5F1JlLEWgKnKEz59J2v">
            <path d="M23.7159,-15 L18.2159,-15"/>
            <path d="M18.2159,35 L18.2159,-15"/>
            <path d="M18.4941,35 L18.2159,35"/>
            <path d="M23.7159,-15 L23.7159,1.79844"/>
        </g>
        <g id="product-5c5d8b5f-05a4-4cab-a8a0-b63b0de1ccd0" class="IfcWall material-concrete projection" ifc:name="Wall" ifc:guid="1SNOjV1QHCgwYWjZiDuSpG">
            <path d="M-230.023,77.5 L-260.023,77.5"/>
            <path d="M-230.023,107.5 L-260.023,107.5"/>
            <path d="M-260.023,107.5 L-260.023,77.5"/>
            <path d="M257.478,77.5 L43.7159,77.5"/>
            <path d="M21.2159,77.5 L-230.023,77.5"/>
            <path d="M257.478,107.5 L-230.023,107.5"/>
            <path d="M-230.023,107.5 L-230.023,77.5"/>
            <path d="M257.478,107.5 L257.478,77.5"/>
        </g>
        <g id="product-a5def2b9-6bd9-4653-932b-52e67c741dd5" class="IfcWall material-brick projection" ifc:name="Wall" ifc:guid="2btlAvQzb6KvChKkPyT1tL">
            <path d="M35.7159,-115 L23.2159,-115"/>
            <path d="M23.2159,1.79844 L23.2159,-115"/>
            <path d="M35.7159,35 L24.2091,35"/>
            <path d="M35.7159,-115 L35.7159,35"/>
        </g>
        <g id="product-aea38405-b343-4c36-acab-8fdb6654c9e4" class="IfcPipeSegment material-coldwater projection" ifc:name="PipeSegment" ifc:guid="2keuG5iqDCDgohZzjcLCda">
            <path d="M106.576,59.4957 L106.345,59.4957"/>
            <path d="M106.574,61.3007 L106.562,61.2975"/>
            <path d="M106.676,61.292 L106.574,61.3007"/>
            <path d="M107.034,61.0924 L106.676,61.292"/>
            <path d="M107.247,60.6883 L107.034,61.0924"/>
            <path d="M107.247,60.208 L107.247,60.6883"/>
            <path d="M107.034,59.8039 L107.247,60.208"/>
            <path d="M106.676,59.6043 L107.034,59.8039"/>
            <path d="M106.574,59.5957 L106.676,59.6043"/>
            <path d="M106.455,59.6275 L106.574,59.5957"/>
            <path d="M106.967,61.273 L106.598,61.3936"/>
            <path d="M107.253,60.9244 L106.967,61.273"/>
            <path d="M107.358,60.4482 L107.253,60.9244"/>
            <path d="M107.253,59.9719 L107.358,60.4482"/>
            <path d="M106.967,59.6233 L107.253,59.9719"/>
            <path d="M106.576,59.4957 L106.967,59.6233"/>
            <path d="M106.411,59.5494 L106.576,59.4957"/>
        </g>
        <g id="product-39ae2c92-226d-4a09-afeb-fcaf812b0d73" class="IfcPipeSegment material-blackwater projection" ifc:name="PipeSegment" ifc:guid="0vhYoI8crA2Q$h$A_1Amrp">
            <path d="M30.4207,50 L30.4207,50"/>
            <path d="M24.7057,50 L24.7057,50"/>
        </g>
        <g id="product-f24c8e19-188d-4430-b8c0-b43fe2590853" class="IfcWall material-randomrubble projection" ifc:name="Wall" ifc:guid="3oJ8uP68r4CBZ0j3$YMGXJ">
            <path d="M14.3919,42.5 L14.3919,57.5"/>
        </g>
        <g id="product-a5c3afe0-ef83-47e3-a329-ea7700260156" class="IfcWall material-randomrubble projection" ifc:name="Wall" ifc:guid="2bmw$WxuD7uwCfwdS09W5M">
            <path d="M101.468,42.5 L101.468,42.5"/>
            <path d="M257.478,77.5 L257.478,42.5"/>
            <path d="M257.478,42.5 L120.226,42.5"/>
            <path d="M120.226,52.5 L120.226,42.5"/>
            <path d="M107.726,52.5 L120.226,52.5"/>
            <path d="M107.726,52.5 L107.726,42.5"/>
            <path d="M107.726,42.5 L101.468,42.5"/>
            <path d="M101.468,57.5 L101.468,42.5"/>
            <path d="M86.4193,57.5 L101.468,57.5"/>
            <path d="M86.4193,42.5 L86.4193,57.5"/>
            <path d="M86.4193,42.5 L35.716,42.5"/>
            <path d="M35.716,50 L35.716,49.9999"/>
            <path d="M24.2091,50 L35.716,50"/>
            <path d="M10.7159,57.5 L18.5566,57.5"/>
            <path d="M10.7159,42.5 L10.7159,57.5"/>
            <path d="M-56.3248,52.5 L-56.3248,42.5"/>
            <path d="M-68.8248,52.5 L-56.3248,52.5"/>
            <path d="M-68.8248,52.5 L-68.8248,42.5"/>
            <path d="M-68.8248,42.5 L-127.521,42.5"/>
            <path d="M-127.521,77.5 L-127.521,42.5"/>
        </g>
        <g id="product-2d170c8c-a3d6-4436-8db8-4cb99c215fba" class="IfcPipeSegment material-blackwater projection" ifc:name="PipeSegment" ifc:guid="0j5moCezP4DesuJBcS8L_w">
            <path d="M24.2091,29.2267 L24.2091,1.79844"/>
            <path d="M24.2091,29.2267 L24.2091,56.6548"/>
            <path d="M18.4941,29.2265 L18.4941,1.79844"/>
            <path d="M18.4941,29.2265 L18.4941,56.6548"/>
            <path d="M21.3516,1.79844 L21.3516,1.79844"/>
            <path d="M21.3516,56.6548 L21.3516,56.6548"/>
            <path d="M20.6677,1.79844 L21.3516,1.79844"/>
            <path d="M20.0236,1.79844 L20.6677,1.79844"/>
            <path d="M19.4567,1.79844 L20.0236,1.79844"/>
            <path d="M18.9999,1.79844 L19.4567,1.79844"/>
            <path d="M18.6798,1.79844 L18.9999,1.79844"/>
            <path d="M18.5149,1.79844 L18.6798,1.79844"/>
            <path d="M18.4941,1.79844 L18.5149,1.79844"/>
            <path d="M18.5149,1.79844 L18.5149,1.79844"/>
            <path d="M24.1882,1.79844 L24.1882,1.79844"/>
            <path d="M24.1882,1.79844 L24.2091,1.79844"/>
            <path d="M24.0234,1.79844 L24.1882,1.79844"/>
            <path d="M23.7033,1.79844 L24.0234,1.79844"/>
            <path d="M23.2464,1.79844 L23.7033,1.79844"/>
            <path d="M22.6795,1.79844 L23.2464,1.79844"/>
            <path d="M22.0354,1.79844 L22.6795,1.79844"/>
            <path d="M21.3516,1.79844 L22.0354,1.79844"/>
            <path d="M20.6677,56.6548 L21.3516,56.6548"/>
            <path d="M20.0236,56.6548 L20.6677,56.6548"/>
            <path d="M19.4567,56.6548 L20.0236,56.6548"/>
            <path d="M18.9999,56.6548 L19.4567,56.6548"/>
            <path d="M18.6798,56.6548 L18.9999,56.6548"/>
            <path d="M18.5149,56.6548 L18.6798,56.6548"/>
            <path d="M18.4941,56.6548 L18.5149,56.6548"/>
            <path d="M18.5149,56.6548 L18.5149,56.6548"/>
            <path d="M24.1882,56.6548 L24.1882,56.6548"/>
            <path d="M24.1882,56.6548 L24.2091,56.6548"/>
            <path d="M24.0234,56.6548 L24.1882,56.6548"/>
            <path d="M23.7032,56.6548 L24.0234,56.6548"/>
            <path d="M23.2464,56.6548 L23.7032,56.6548"/>
            <path d="M22.6795,56.6548 L23.2464,56.6548"/>
            <path d="M22.0354,56.6548 L22.6795,56.6548"/>
            <path d="M21.3516,56.6548 L22.0354,56.6548"/>
        </g>
        <g id="product-45d22e4d-7288-4b12-af81-79c21eb94de1" class="IfcPipeSegment material-blackwater projection" ifc:name="PipeSegment" ifc:guid="15qYvDSeXB4g_1US8UkKtX">
            <path d="M18.4941,62.6101 L18.4941,61.8084"/>
            <path d="M20.6736,63.9252 L21.2159,64.0268"/>
            <path d="M20.171,63.6917 L20.6736,63.9252"/>
            <path d="M19.7419,63.3411 L20.171,63.6917"/>
            <path d="M19.4128,62.8951 L19.7419,63.3411"/>
            <path d="M19.2043,62.3817 L19.4128,62.8951"/>
            <path d="M19.1292,61.8325 L19.2043,62.3817"/>
            <path d="M19.1923,61.2819 L19.1292,61.8325"/>
            <path d="M19.3896,60.764 L19.1923,61.2819"/>
            <path d="M19.7089,60.3111 L19.3896,60.764"/>
            <path d="M20.1303,59.9512 L19.7089,60.3111"/>
            <path d="M20.5914,59.7196 L20.1303,59.9512"/>
            <path d="M21.2159,59.6094 L20.5914,59.7196"/>
            <path d="M20.9676,64.6404 L21.2159,64.6465"/>
            <path d="M20.3578,64.4879 L20.9676,64.6404"/>
            <path d="M19.796,64.2057 L20.3578,64.4879"/>
            <path d="M19.3095,63.8074 L19.796,64.2057"/>
            <path d="M18.9218,63.3124 L19.3095,63.8074"/>
            <path d="M18.6517,62.7446 L18.9218,63.3124"/>
            <path d="M18.5124,62.1314 L18.6517,62.7446"/>
            <path d="M18.4941,61.8084 L18.5124,62.1314"/>
            <path d="M18.4981,61.7338 L18.4941,61.8084"/>
            <path d="M18.6461,60.8886 L18.5678,61.2429"/>
            <path d="M18.9127,60.3191 L18.6461,60.8886"/>
            <path d="M19.2973,59.8218 L18.9127,60.3191"/>
            <path d="M19.7813,59.4206 L19.2973,59.8218"/>
            <path d="M20.1392,59.2408 L19.7813,59.4206"/>
        </g>
        <g id="product-7c8c543a-5e80-45a4-ad5c-f7598399740e" class="IfcWall material-brick projection" ifc:name="Wall" ifc:guid="1yZ5GwNe15fArSzrc3cNGE">
            <path d="M0.715947,-71.25 L0.715947,-31.25"/>
            <path d="M23.2159,-71.25 L0.715947,-71.25"/>
            <path d="M0.715947,-31.25 L23.2159,-31.25"/>
            <path d="M35.716,-70 L35.7159,-70"/>
            <path d="M65.7159,-40 L65.7159,-70"/>
            <path d="M35.7159,-40 L65.7159,-40"/>
            <path d="M266.228,-70 L266.228,-115"/>
            <path d="M266.228,-115 L35.7159,-115"/>
            <path d="M23.2159,-115 L-0.768963,-115"/>
            <path d="M-0.768963,35 L-0.768963,24.8"/>
            <path d="M-0.768963,14.8 L-0.768963,-115"/>
            <path d="M216.904,35 L35.716,35"/>
            <path d="M18.4941,35 L-0.768963,35"/>
            <path d="M216.904,-70 L216.904,35"/>
            <path d="M266.228,-70 L216.904,-70"/>
        </g>
        <g id="product-655d3569-4ea1-4627-9f5c-fe78c918ed25" class="IfcPipeSegment material-blackwater projection" ifc:name="PipeSegment" ifc:guid="1bNJLfJg569vzS$dZ96Eqb">
            <path d="M104.841,65.6198 L85.0823,65.6198"/>
            <path d="M104.465,60.6044 L104.841,60.5398"/>
            <path d="M104.11,60.7944 L104.465,60.6044"/>
            <path d="M103.798,61.0988 L104.11,60.7944"/>
            <path d="M103.547,61.4998 L103.798,61.0988"/>
            <path d="M103.371,61.9742 L103.547,61.4998"/>
            <path d="M103.281,62.4944 L103.371,61.9742"/>
            <path d="M103.281,63.0302 L103.281,62.4944"/>
            <path d="M103.371,63.5504 L103.281,63.0302"/>
            <path d="M103.547,64.0248 L103.371,63.5504"/>
            <path d="M103.798,64.4259 L103.547,64.0248"/>
            <path d="M104.11,64.7302 L103.798,64.4259"/>
            <path d="M104.465,64.9202 L104.11,64.7302"/>
            <path d="M104.841,64.9848 L104.465,64.9202"/>
            <path d="M105.217,64.9202 L104.841,64.9848"/>
            <path d="M105.571,64.7303 L105.217,64.9202"/>
            <path d="M105.883,64.4259 L105.571,64.7303"/>
            <path d="M106.134,64.0248 L105.883,64.4259"/>
            <path d="M106.31,63.5504 L106.134,64.0248"/>
            <path d="M106.401,63.0302 L106.31,63.5504"/>
            <path d="M106.401,62.4944 L106.401,63.0302"/>
            <path d="M106.31,61.9742 L106.401,62.4944"/>
            <path d="M106.134,61.4998 L106.31,61.9742"/>
            <path d="M105.883,61.0988 L106.134,61.4998"/>
            <path d="M105.571,60.7944 L105.883,61.0988"/>
            <path d="M105.217,60.6044 L105.571,60.7944"/>
            <path d="M104.841,60.5398 L105.217,60.6044"/>
            <path d="M104.357,59.9879 L104.841,59.9048"/>
            <path d="M103.902,60.2321 L104.357,59.9879"/>
            <path d="M103.501,60.6235 L103.902,60.2321"/>
            <path d="M103.178,61.1391 L103.501,60.6235"/>
            <path d="M102.951,61.749 L103.178,61.1391"/>
            <path d="M102.835,62.4179 L102.951,61.749"/>
            <path d="M102.835,63.1068 L102.835,62.4179"/>
            <path d="M102.951,63.7756 L102.835,63.1068"/>
            <path d="M103.178,64.3856 L102.951,63.7756"/>
            <path d="M103.501,64.9012 L103.178,64.3856"/>
            <path d="M103.902,65.2925 L103.501,64.9012"/>
            <path d="M104.357,65.5368 L103.902,65.2925"/>
            <path d="M104.841,65.6198 L104.357,65.5368"/>
            <path d="M105.324,65.5368 L104.841,65.6198"/>
            <path d="M105.78,65.2925 L105.324,65.5368"/>
            <path d="M106.18,64.9012 L105.78,65.2925"/>
            <path d="M106.503,64.3856 L106.18,64.9012"/>
            <path d="M106.73,63.7756 L106.503,64.3856"/>
            <path d="M106.846,63.1068 L106.73,63.7756"/>
            <path d="M106.846,62.4179 L106.846,63.1068"/>
            <path d="M106.73,61.749 L106.846,62.4179"/>
            <path d="M106.503,61.1391 L106.73,61.749"/>
            <path d="M106.18,60.6235 L106.503,61.1391"/>
            <path d="M105.78,60.2321 L106.18,60.6235"/>
            <path d="M105.324,59.9879 L105.78,60.2321"/>
            <path d="M104.841,59.9048 L105.324,59.9879"/>
            <path d="M104.841,59.9048 L85.0823,59.9048"/>
        </g>
        <g id="product-19e2d35b-529f-4d5d-b077-e9e8bdd2968d" class="IfcPipeFitting material-null projection" ifc:name="PipeFitting" ifc:guid="0PujDRKfzDNR1twUYzqfQD">
            <path d="M23.0312,63.5388 L22.2346,63.9968"/>
            <path d="M19.672,59.3739 L19.672,59.357"/>
            <path d="M24.2091,60.6034 L24.2073,60.6269"/>
            <path d="M18.5639,61.2679 L18.6339,60.8256"/>
            <path d="M18.6339,60.7955 L18.5629,61.259"/>
            <path d="M18.6339,60.7955 L18.5468,61.1073"/>
            <path d="M18.6339,60.7065 L18.5443,61.0842"/>
            <path d="M24.1473,57.9407 L24.1673,60.009"/>
            <path d="M24.1673,60.009 L24.1719,60.1076"/>
            <path d="M24.1452,56.6548 L24.1473,57.9407"/>
            <path d="M19.672,59.2873 L19.0398,56.6548"/>
            <path d="M20.4686,58.9961 L19.9391,59.2607"/>
            <path d="M19.9391,59.2607 L19.672,59.3942"/>
            <path d="M19.672,59.3968 L19.9434,59.2603"/>
            <path d="M19.9391,59.2607 L19.672,59.3968"/>
            <path d="M21.2159,58.7928 L20.4686,56.6548"/>
            <path d="M19.672,56.6548 L19.672,59.2873"/>
            <path d="M19.672,59.2873 L19.9391,59.2607"/>
            <path d="M19.9391,59.2607 L20.4686,59.2081"/>
            <path d="M20.4113,59.0247 L19.672,56.6548"/>
            <path d="M24.1719,60.1076 L24.2091,60.6034"/>
            <path d="M20.4686,59.2081 L21.2159,59.185"/>
            <path d="M19.672,59.2873 L19.672,59.3128"/>
            <path d="M19.672,59.2873 L19.0398,59.4106"/>
            <path d="M20.4686,59.2081 L19.9391,59.2607"/>
            <path d="M20.4686,59.2081 L20.4686,59.1575"/>
            <path d="M19.672,59.3739 L19.672,59.3865"/>
            <path d="M19.672,59.3739 L19.0398,59.8995"/>
            <path d="M19.0398,59.4106 L19.0398,59.5547"/>
            <path d="M23.8913,62.3207 L23.6633,62.8254"/>
            <path d="M19.672,63.5388 L19.0398,62.8254"/>
            <path d="M18.6339,59.8596 L19.0398,59.5547"/>
            <path d="M20.4686,59.1575 L19.9391,59.2607"/>
            <path d="M23.6633,62.8254 L23.0312,63.5388"/>
            <path d="M20.4686,63.9968 L19.672,63.5388"/>
            <path d="M19.672,63.5388 L19.672,63.6581"/>
            <path d="M18.4941,61.7086 L18.4941,61.2961"/>
            <path d="M18.6339,62.5276 L18.4941,61.7086"/>
            <path d="M18.4941,61.7086 L18.6339,62.5916"/>
            <path d="M18.4941,61.2961 L18.6339,62.5276"/>
            <path d="M18.4941,61.2961 L18.6339,62.3381"/>
            <path d="M19.672,59.3865 L19.0398,59.9705"/>
            <path d="M19.672,59.3865 L19.672,59.3942"/>
            <path d="M20.4686,59.1575 L21.2159,59.1122"/>
            <path d="M20.4686,59.1575 L20.4686,59.1108"/>
            <path d="M18.4951,60.6154 L18.4941,60.5319"/>
            <path d="M18.4953,60.6199 L18.4951,60.6154"/>
            <path d="M18.4951,60.6154 L18.4941,60.6207"/>
            <path d="M18.4958,60.6269 L18.4953,60.6199"/>
            <path d="M18.4953,60.6199 L18.4941,60.6207"/>
            <path d="M18.6339,60.7955 L18.6339,60.7065"/>
            <path d="M19.0398,59.9705 L19.0398,60.0142"/>
            <path d="M21.3516,64.1546 L20.4686,63.9968"/>
            <path d="M20.4686,63.9968 L20.4686,64.033"/>
            <path d="M22.2346,63.9968 L21.3516,64.1546"/>
            <path d="M21.2159,58.9021 L20.4686,59.0115"/>
            <path d="M20.4686,59.1108 L19.9391,59.2607"/>
            <path d="M18.6339,60.8256 L19.0398,60.029"/>
            <path d="M19.0398,60.0142 L18.6339,60.8256"/>
            <path d="M18.6339,60.7955 L19.0398,60.0142"/>
            <path d="M18.6339,60.7955 L18.6339,60.8256"/>
            <path d="M19.9391,59.2607 L20.4686,59.07"/>
            <path d="M18.5408,61.0508 L18.6339,60.5619"/>
            <path d="M18.4953,60.6185 L18.6339,60.3672"/>
            <path d="M18.6339,60.3672 L18.5367,61.0127"/>
            <path d="M18.6339,62.3381 L18.6339,62.5276"/>
            <path d="M20.4686,59.1108 L20.4686,59.07"/>
            <path d="M20.4686,59.1108 L21.2159,59.0451"/>
            <path d="M18.6339,59.8596 L18.6339,60.1301"/>
            <path d="M18.4952,60.6168 L18.6339,60.1301"/>
            <path d="M18.4941,60.5319 L18.5558,57.9407"/>
            <path d="M18.4941,60.5319 L18.4941,60.6207"/>
            <path d="M18.6339,59.8596 L18.4951,60.615"/>
            <path d="M18.6339,59.8596 L18.6339,59.566"/>
            <path d="M18.4951,60.613 L18.6339,59.566"/>
            <path d="M18.6339,59.566 L18.5558,57.9407"/>
            <path d="M18.5558,57.9407 L18.5579,56.6548"/>
            <path d="M24.0692,61.871 L23.8913,62.3207"/>
            <path d="M18.8119,62.3207 L18.6339,61.871"/>
            <path d="M21.2159,64.5446 L20.4686,64.4262"/>
            <path d="M19.9391,59.2607 L20.4686,59.0364"/>
            <path d="M20.4686,59.0115 L20.4686,59.0364"/>
            <path d="M24.1129,61.5161 L24.0692,61.871"/>
            <path d="M24.2073,60.6269 L24.205,60.6494"/>
            <path d="M24.205,60.6494 L24.1129,61.5161"/>
            <path d="M20.4686,64.4262 L19.672,64.0204"/>
            <path d="M20.4686,64.423 L19.672,64.0176"/>
            <path d="M20.4686,64.4262 L20.4686,64.423"/>
            <path d="M19.0398,62.8254 L18.8119,62.3207"/>
            <path d="M18.8119,62.3207 L18.6339,62.0303"/>
            <path d="M18.6339,62.3381 L18.6339,62.0303"/>
            <path d="M18.6339,62.3381 L19.0398,63.074"/>
            <path d="M19.0398,62.8254 L19.0398,63.074"/>
            <path d="M18.5903,61.5161 L18.4981,60.6494"/>
            <path d="M18.4941,61.2961 L18.4941,60.6207"/>
            <path d="M18.6339,62.0303 L18.6339,61.871"/>
            <path d="M18.6339,61.871 L18.5903,61.5161"/>
            <path d="M18.5903,61.5161 L18.4941,61.2961"/>
            <path d="M18.6339,62.0303 L18.4941,61.2961"/>
            <path d="M18.4941,60.6207 L18.4981,60.6494"/>
            <path d="M18.4981,60.6494 L18.4958,60.6269"/>
            <path d="M18.4941,60.6207 L18.4958,60.6269"/>
            <path d="M19.9391,59.2607 L20.4686,58.9961"/>
            <path d="M19.9391,59.2607 L20.4686,59.0115"/>
            <path d="M20.4686,59.0115 L20.4686,58.9961"/>
            <path d="M18.6339,60.1301 L19.0398,59.6876"/>
            <path d="M18.6339,60.1301 L18.6339,60.3672"/>
            <path d="M20.4686,64.423 L21.2159,64.5412"/>
            <path d="M20.4686,64.423 L20.4686,64.327"/>
            <path d="M18.6339,60.7065 L19.0398,59.9705"/>
            <path d="M19.0398,59.9705 L19.0398,59.8995"/>
            <path d="M18.6339,60.7065 L18.6339,60.5619"/>
            <path d="M20.4686,64.327 L19.672,63.9289"/>
            <path d="M20.4686,64.033 L19.672,63.6581"/>
            <path d="M18.6339,62.5916 L18.6339,62.5276"/>
            <path d="M18.6339,62.5916 L19.0398,63.3882"/>
            <path d="M18.6339,62.5276 L19.0398,63.3882"/>
            <path d="M18.6339,62.5276 L19.0398,63.3089"/>
            <path d="M21.2159,58.9863 L20.4686,59.07"/>
            <path d="M20.4686,59.07 L20.4686,59.0364"/>
            <path d="M21.2159,58.938 L20.4686,59.0364"/>
            <path d="M20.4686,58.9958 L20.4686,58.9961"/>
            <path d="M20.4686,58.9961 L21.2159,58.88"/>
            <path d="M19.672,59.357 L19.0398,59.804"/>
            <path d="M19.672,59.357 L19.672,59.3363"/>
            <path d="M19.0398,59.804 L19.0398,59.6876"/>
            <path d="M19.0398,60.029 L19.0398,60.0142"/>
            <path d="M19.672,59.3942 L19.0398,60.0142"/>
            <path d="M19.0398,60.029 L19.672,59.3942"/>
            <path d="M19.0398,60.029 L19.672,59.3968"/>
            <path d="M19.672,59.3968 L19.672,59.3942"/>
            <path d="M19.0398,56.6548 L19.0398,59.4106"/>
            <path d="M18.9999,56.6548 L18.6798,56.6548"/>
            <path d="M18.6339,56.6548 L19.0398,59.4106"/>
            <path d="M18.6339,56.6548 L18.6339,59.566"/>
            <path d="M18.6339,59.566 L19.0398,59.4106"/>
            <path d="M20.4686,64.327 L21.2159,64.4431"/>
            <path d="M20.4686,64.327 L20.4686,64.033"/>
            <path d="M20.4686,64.033 L21.2159,64.1424"/>
            <path d="M19.0398,59.804 L18.6339,60.3672"/>
            <path d="M18.6339,60.3672 L18.6339,60.5619"/>
            <path d="M18.6339,60.5619 L19.0398,59.8995"/>
            <path d="M19.0398,59.804 L19.0398,59.8995"/>
            <path d="M19.0398,63.074 L19.672,63.6581"/>
            <path d="M19.672,63.6581 L19.672,63.9289"/>
            <path d="M19.0398,63.074 L19.0398,63.3089"/>
            <path d="M19.0398,63.3882 L19.0398,63.3089"/>
            <path d="M19.672,64.0176 L19.0398,63.3882"/>
            <path d="M19.672,64.0204 L19.672,64.0176"/>
            <path d="M19.672,64.0204 L19.0398,63.3882"/>
            <path d="M19.0398,63.3089 L19.672,63.9289"/>
            <path d="M19.672,63.9289 L19.672,64.0176"/>
            <path d="M19.0398,63.3089 L19.672,64.0176"/>
            <path d="M19.0398,59.6876 L19.672,59.3363"/>
            <path d="M19.672,59.3363 L19.672,59.3128"/>
            <path d="M19.672,59.3128 L19.0398,59.5547"/>
            <path d="M19.0398,59.6876 L19.0398,59.5547"/>
        </g>
    <g ifc:guid="2R5uxvasb81uMHnKfauF8N" ifc:name="Door" class="IfcDoor material-UPVC cut"><path d="M38.215945782297744,33.74998867511749 L74.09627151691308,33.74998867511749"/><path d="M78.21595680915703,33.74998867511749 L74.09627151691308,33.74998867511749"/><path d="M38.215945782297744,33.74998867511749 L38.215945782297744,34.87124741077423"/><path d="M78.21595680915703,34.99998897314072 L78.21595680915703,33.87872874736786"/><path d="M78.21595680915703,33.74998867511749 L78.21595680915703,33.87872874736786"/><path d="M38.215945782297744,34.99998897314072 L38.215945782297744,34.87124741077423"/><path d="M38.215945782297744,34.99998897314072 L42.33567577802528,34.99998897314072"/><path d="M78.21595680915703,34.99998897314072 L42.33567577802528,34.99998897314072"/><path d="M76.45099175178399,-16.75000786781311 L73.54075622760644,-16.75000786781311"/><path d="M70.9659309407412,-16.75000786781311 L73.54075622760644,-16.75000786781311"/><path d="M76.96592819892754,-16.75000786781311 L76.45099175178399,-16.75000786781311"/><path d="M73.54075622760644,-15.750008821487427 L76.45099175178399,-15.750008821487427"/><path d="M70.9659309407412,-15.750008821487427 L73.54075622760644,-15.750008821487427"/><path d="M70.9659309407412,-15.750008821487427 L70.9659309407412,-16.26496911048889"/><path d="M70.9659309407412,-16.75000786781311 L70.9659309407412,-16.26496911048889"/><path d="M76.45099175178399,-15.750008821487427 L76.96592819892754,-15.750008821487427"/><path d="M76.96592819892754,-15.750008821487427 L76.96592819892754,-16.492527723312378"/><path d="M76.96592819892754,-16.75000786781311 L76.96592819892754,-16.492527723312378"/></g><g ifc:guid="0qCZoCmrD1B9CO5Kg0plPw" ifc:name="SanitaryTerminal" class="IfcSanitaryTerminal material-null cut"><path d="M5.549262585276263,24.79998767375946 L10.387061657541889,24.79998767375946"/><path d="M14.382623257273334,24.79998767375946 L10.387061657541889,24.79998767375946"/><path d="M5.549262585276263,34.79998856782913 L5.549262585276263,29.323242604732513"/><path d="M5.549262585276263,24.79998767375946 L5.549262585276263,29.323242604732513"/><path d="M14.382623257273334,24.79998767375946 L14.382623257273334,30.2767351269722"/><path d="M14.382623257273334,34.79998856782913 L14.382623257273334,30.2767351269722"/><path d="M14.382623257273334,34.79998856782913 L9.544824185007709,34.79998856782913"/><path d="M5.549262585276263,34.79998856782913 L9.544824185007709,34.79998856782913"/><path d="M14.179299893015521,22.299987077713013 L6.715940060251849,22.299987077713013"/><path d="M6.715940060251849,22.299987077713013 L4.9164519926248955,22.299987077713013"/><path d="M2.889083447092669,22.299987077713013 L4.9164519926248955,22.299987077713013"/><path d="M1.2410388609110283,22.299987077713013 L2.889083447092669,22.299987077713013"/><path d="M-0.35512733257423157,22.299987077713013 L1.2410388609110283,22.299987077713013"/><path d="M-2.5228767374814582,22.299987077713013 L-1.5720157603086067,22.299987077713013"/><path d="M-0.35512733257423157,22.299987077713013 L-1.5720157603086067,22.299987077713013"/><path d="M-2.5228767374814582,22.299987077713013 L-3.094413755303724,22.299987077713013"/><path d="M23.21593605929007,22.299987077713013 L14.179299893015521,22.299987077713013"/><path d="M4.9164519926248955,24.79998767375946 L2.889083447092669,24.79998767375946"/><path d="M2.889083447092669,24.79998767375946 L1.2410388609110283,24.79998767375946"/><path d="M1.2410388609110283,24.79998767375946 L-0.35512733257423157,24.79998767375946"/><path d="M-1.5720157603086067,24.79998767375946 L-0.35512733257423157,24.79998767375946"/><path d="M-2.5228767374814582,24.79998767375946 L-1.5720157603086067,24.79998767375946"/><path d="M6.715940060251849,24.79998767375946 L14.179299893015521,24.79998767375946"/><path d="M4.9164519926248955,24.79998767375946 L6.715940060251849,24.79998767375946"/><path d="M-2.5228767374814582,24.79998767375946 L-3.094413755303724,24.79998767375946"/><path d="M-3.094413755303724,24.79998767375946 L-3.094413755303724,24.17708933353424"/><path d="M-3.094413755303724,22.299987077713013 L-3.094413755303724,24.17708933353424"/><path d="M14.179299893015521,24.79998767375946 L23.21593605929007,24.79998767375946"/><path d="M23.21593605929007,24.79998767375946 L23.21593605929007,23.669174313545227"/><path d="M23.21593605929007,22.299987077713013 L23.21593605929007,23.669174313545227"/><path d="M-0.5944042185605597,14.799988269805908 L-0.5944042185605597,17.29157567024231"/><path d="M-0.5944042185605597,22.299987077713013 L-0.5944042185605597,17.29157567024231"/><path d="M-1.217296598321302,14.799988269805908 L-3.094413755303724,14.799988269805908"/><path d="M-1.217296598321302,14.799988269805908 L-0.5944042185605597,14.799988269805908"/><path d="M-3.094413755303724,14.799988269805908 L-3.094413755303724,20.43129801750183"/><path d="M-1.217296598321302,22.299987077713013 L-0.5944042185605597,22.299987077713013"/><path d="M-3.094413755303724,22.299987077713013 L-1.217296598321302,22.299987077713013"/><path d="M-3.094413755303724,22.299987077713013 L-3.094413755303724,20.43129801750183"/><path d="M14.026282848948139,14.799988269805908 L14.026282848948139,19.808384776115417"/><path d="M14.026282848948139,22.299987077713013 L14.026282848948139,19.808384776115417"/><path d="M14.026282848948139,14.799988269805908 L15.074084820383685,14.799988269805908"/><path d="M15.074084820383685,14.799988269805908 L23.21593605929007,14.799988269805908"/><path d="M23.21593605929007,14.799988269805908 L23.21593605929007,18.907546997070312"/><path d="M14.026282848948139,22.299987077713013 L15.074084820383685,22.299987077713013"/><path d="M15.074084820383685,22.299987077713013 L23.21593605929007,22.299987077713013"/><path d="M23.21593605929007,22.299987077713013 L23.21593605929007,18.907546997070312"/></g><g ifc:guid="0PujDRKfzDNR1twUYzqfQD" ifc:name="PipeFitting" class="IfcPipeFitting material-null cut"><path d="M24.14514858291437,56.65481016039848 L24.147246666410464,57.94078707695007"/><path d="M24.167273827054995,60.00891476869583 L24.147246666410464,57.94078707695007"/><path d="M24.167273827054995,60.00891476869583 L24.171851463773745,60.10758504271507"/><path d="M24.17743045852472,60.182249546051025 L24.171851463773745,60.10758504271507"/><path d="M24.17743045852472,60.182249546051025 L24.20904476211359,60.603462904691696"/><path d="M18.495105328196185,60.615381598472595 L18.495296063059467,60.619932413101196"/><path d="M18.49405628644814,60.53226739168167 L18.495105328196185,60.615381598472595"/><path d="M18.555854382151264,57.940807193517685 L18.49405628644814,60.53226739168167"/><path d="M18.555854382151264,57.940807193517685 L18.557952465647357,56.65481016039848"/><path d="M23.891280433320897,62.320590764284134 L24.069188377046483,61.87104359269142"/><path d="M24.069188377046483,61.87104359269142 L24.11286666073789,61.5161158144474"/><path d="M24.207280464628237,60.62683016061783 L24.20904476211359,60.603462904691696"/><path d="M24.205039329984682,60.64930930733681 L24.207280464628237,60.62683016061783"/><path d="M24.11286666073789,61.5161158144474 L24.205039329984682,60.64930930733681"/><path d="M18.498061718577045,60.64929738640785 L18.49582058393349,60.62683016061783"/><path d="M18.495296063059467,60.619932413101196 L18.49582058393349,60.62683016061783"/><path d="M18.633912624949115,61.8710458278656 L18.59023434125771,61.51611879467964"/><path d="M18.59023434125771,61.51611879467964 L18.498061718577045,60.64929738640785"/><path d="M22.234557503992217,63.9968067407608 L22.861646050745147,63.63627165555954"/><path d="M23.663304587983983,62.82544434070587 L23.762391349458593,62.60606050491333"/><path d="M23.891280433320897,62.320590764284134 L23.762391349458593,62.60606050491333"/><path d="M19.671939062112468,63.53880316019058 L19.315884756082195,63.13698887825012"/><path d="M23.031161660486358,63.53880167007446 L22.861646050745147,63.63627165555954"/><path d="M23.031161660486358,63.53880167007446 L23.387215873384374,63.136987388134"/><path d="M23.663304587983983,62.82544434070587 L23.387215873384374,63.136987388134"/><path d="M19.671939062112468,63.53880316019058 L19.84145467185368,63.63627314567566"/><path d="M20.46854321860661,63.99680823087692 L19.84145467185368,63.63627314567566"/><path d="M20.46854321860661,63.99680823087692 L21.336529897683757,64.15194272994995"/><path d="M21.351550268167156,64.15462493896484 L21.336529897683757,64.15194272994995"/><path d="M21.351550268167156,64.15462493896484 L22.172902459436553,64.00782763957977"/><path d="M22.234557503992217,63.9968067407608 L22.172902459436553,64.00782763957977"/><path d="M18.633912624949115,61.8710458278656 L18.70763127707829,62.05732449889183"/><path d="M18.81182019614567,62.32059225440025 L18.70763127707829,62.05732449889183"/><path d="M19.039796041482585,62.82544583082199 L18.81182019614567,62.32059225440025"/><path d="M19.039796041482585,62.82544583082199 L19.315884756082195,63.13698887825012"/></g><g ifc:guid="0j5moCezP4DesuJBcS8L_w" ifc:name="PipeSegment" class="IfcPipeSegment material-blackwater cut"><path d="M19.209263967507976,30.643166601657867 L19.209263967507976,1.7984330654144287 L18.875382589334148,1.7984330654144287 L18.574260296457904,1.7984330654144287 L18.574260296457904,22.029706835746765 L18.574260296457904,56.654808670282364 L18.875382589334148,56.654808670282364 L19.209263967507976,56.654808670282364 Z"/><path d="M23.493836661958593,1.7984390258789062 L23.493836661958593,27.809952199459076 L23.493836661958593,56.654809415340424 L23.728011390352147,56.654809415340424 L24.128840705537694,56.654809415340424 L24.128840705537694,36.42362654209137 L24.128840705537694,1.7984390258789062 L23.728011390352147,1.7984390258789062 Z"/></g><g ifc:guid="1Q_c7uVcTCngKTLSlSECoW" ifc:name="Site" class="IfcSite material-null cut"><path d="M481.1661125441729,57.499999552965164 L-544.225609181291,57.499999552965164"/></g><g ifc:guid="23C6IFMfT5c9qVYymYr$CN" ifc:name="Wall" ifc:layer-id="165444" class="IfcWall material-brick2 IfcMaterialLayer layer-material-Plaster cut"/><g ifc:guid="23C6IFMfT5c9qVYymYr$CN" ifc:name="Wall" ifc:layer-id="165446" class="IfcWall material-brick2 IfcMaterialLayer layer-material-Plaster cut"/><g class="cut material-brick2 IfcWall 23C6IFMfT5c9qVYymYr$CN"><path d="M35.716,-70.0 L80.716,-70.0 L80.716,35.0 L110.726,35.0 L110.726,-110.0 L35.716,-110.0 Z"/></g><g class="material-brick IfcWall 2btlAvQzb6KvChKkPyT1tL cut 0BA5F1JlLEWgKnKEz59J2v"><path d="M35.216,35.0 L35.716,35.0 L35.716,-115.0 L35.216,-115.0 L23.716,-115.0 L23.216,-115.0 L23.216,-15.0 L18.716,-15.0 L18.216,-15.0 L18.216,35.0 L18.716,35.0 L23.216,35.0 L23.716,35.0 Z"/></g><g class="cut material-null IfcWall 3QvJTaeo13jR4q00Btfvpq"><path d="M-530.59,-23.306 L-530.59,-32.5 L-543.436,-32.5 L-544.752,-32.5 L-544.752,49.243 L-544.752,57.5 L-543.436,57.5 L-530.59,57.5 Z"/></g><g class="cut IfcWall material-concrete 1lIcWvEkH04fmZ5_jMBUMv"><path d="M47.466,77.5 L30.5,77.5 L17.466,77.5 L17.466,90.534 L17.466,107.5 L34.431,107.5 L47.466,107.5 L47.466,94.466 Z"/></g><g class="cut material-randomrubble 28JS9ZVTrCrhN46P$xeur9 IfcWall"><path d="M43.716,50.0 L31.271,50.0 L21.216,50.0 L21.216,62.289 L21.216,77.5 L33.661,77.5 L43.716,77.5 L43.716,65.211 Z"/></g><g class="23C6IFMfT5c9qVYymYr$CN IfcWall IfcMaterialLayer material-brick2 cut layer-material-Brick"><path d="M35.716,-70.0 L80.716,-70.0 L80.716,35.0 L110.726,35.0 L110.726,-110.0 L35.716,-110.0 Z"/></g><g class="material-brick IfcWall 2btlAvQzb6KvChKkPyT1tL IfcMaterialLayer cut layer-material-Brick 0BA5F1JlLEWgKnKEz59J2v"><path d="M35.216,35.0 L35.216,-115.0 L23.716,-115.0 L23.716,-15.0 L18.716,-15.0 L18.716,35.0 L23.716,35.0 Z"/></g><g class="material-brick IfcWall 2btlAvQzb6KvChKkPyT1tL IfcMaterialLayer cut layer-material-Plaster 0BA5F1JlLEWgKnKEz59J2v"><path d="M23.716,35.0 L23.716,-115.0 L23.216,-115.0 L23.216,35.0 Z"/></g><g class="material-brick IfcWall 2btlAvQzb6KvChKkPyT1tL IfcMaterialLayer cut layer-material-Plaster 0BA5F1JlLEWgKnKEz59J2v"><path d="M35.216,35.0 L35.716,35.0 L35.716,-115.0 L35.216,-115.0 Z"/></g><g class="material-brick IfcWall 2btlAvQzb6KvChKkPyT1tL IfcMaterialLayer cut layer-material-Plaster 0BA5F1JlLEWgKnKEz59J2v"><path d="M18.716,-15.0 L18.216,-15.0 L18.216,35.0 L18.716,35.0 Z"/></g><g class="layer-material-Wall IfcWall IfcMaterialLayer 3QvJTaeo13jR4q00Btfvpq cut material-null"><path d="M-530.59,-23.306 L-530.59,-32.5 L-543.436,-32.5 L-544.752,-32.5 L-544.752,49.243 L-544.752,57.5 L-543.436,57.5 L-530.59,57.5 Z"/></g><g class="layer-material-Wall IfcWall material-concrete IfcMaterialLayer cut 1lIcWvEkH04fmZ5_jMBUMv"><path d="M47.466,77.5 L30.5,77.5 L17.466,77.5 L17.466,90.534 L17.466,107.5 L34.431,107.5 L47.466,107.5 L47.466,94.466 Z"/></g><g class="material-randomrubble IfcWall layer-material-Stone IfcMaterialLayer cut 28JS9ZVTrCrhN46P$xeur9"><path d="M43.716,50.0 L31.271,50.0 L21.216,50.0 L21.216,62.289 L21.216,77.5 L33.661,77.5 L43.716,77.5 L43.716,65.211 Z"/></g><g id="product-2db7c6e7-d95f-470b-9930-1b7e471db07c" class="IfcBeam material-concrete projection" ifc:name="Beam" ifc:guid="0jjyRdsLz72vam6tv77R1y">
            <path d="M131.978,35 L35.716,35"/>
            <path d="M131.978,42.5 L131.978,35"/>
        </g>
        <g id="product-42ba6240-b967-44fa-8645-7ac0f9986177" class="IfcBeam material-concrete projection" ifc:name="Beam" ifc:guid="12kc90kMT4_eP5Ui3vc65t">
            <path d="M24.2091,50 L35.716,49.9999"/>
            <path d="M35.716,49.9999 L35.716,34.9999"/>
            <path d="M35.716,34.9999 L24.2091,35"/>
        </g>
        <g id="product-9e0e68ef-ea33-4d1e-9b4b-786a86e935ba" class="IfcBeam material-concrete projection" ifc:name="Beam" ifc:guid="2U3cZlwZDD7fjBU6g6wJMw">
            <path d="M18.4941,35 L-57.269,35"/>
            <path d="M18.4941,42.5 L-57.269,42.5"/>
            <path d="M-57.269,42.5 L-57.269,35"/>
        </g>
        <g id="product-ed09d2f1-5ded-46d7-a082-a4cce670005e" class="IfcBeam material-concrete projection" ifc:name="Beam" ifc:guid="3j2TBnNUr6rw22fCpcS01U">
            <path d="M107.726,35 L35.716,35"/>
            <path d="M101.468,42.5 L86.4193,42.5"/>
            <path d="M107.726,42.5 L107.726,35"/>
        </g>
        <g ifc:guid="12kc90kMT4_eP5Ui3vc65t" ifc:name="Beam" class="IfcBeam material-concrete cut"><path d="M23.21598374300589,41.93536415696144 L23.21598374300589,49.99995031662934 L28.995488332742347,49.9999473363971 L35.7159839292704,49.99994435616486 L35.7159839292704,43.064526468515396 L35.7159839292704,34.999944269657135 L29.936478780740394,34.999947249889374 L23.21598374300589,34.99995023012161 Z"/></g></g>
</svg>