<svg xmlns="http://www.w3.org/2000/svg" xmlns:xlink="http://www.w3.org/1999/xlink" xmlns:ifc="http://www.ifcopenshell.org/ns" width="49.1526mm" height="100mm" viewBox="0 0 49.1526 100">
    <defs>
        <marker id="arrowend" markerWidth="10" markerHeight="7" refX="10" refY="3.5" orient="auto">
          <polygon points="0 0, 10 3.5, 0 7"/>
        </marker>
        <marker id="arrowstart" markerWidth="10" markerHeight="7" refX="0" refY="3.5" orient="auto">
          <polygon points="10 0, 0 3.5, 10 7"/>
        </marker>
    </defs>
    <g ifc:name="Elevation KITCHENETTE" class="section" ifc:plane="[[1.000000,0.000000,0.000000,0.000000],[0.000000,1.000000,0.000000,0.000000],[0.000000,0.000000,1.000000,0.000000],[0.000000,0.000000,0.000000,1.000000]]" ifc:matrix3="[[50.000001,0.000000,467.441478],[0.000000,50.000001,41.804039],[0.000000,0.000000,1.000000]]">
        <g id="product-f4f1dce7-2f55-4c93-b319-2df3ab5308f3" class="IfcGeographicElement material-Tree projection" ifc:name="GeographicElement" ifc:guid="3qyTpdBrLCaxCPBVEhKmZp">
            <path d="M251.218,-95.3729 L248.634,-95.3729"/>
            <path d="M248.634,-95.3729 L240.979,-95.3729"/>
            <path d="M240.979,-95.3729 L228.548,-95.3729"/>
            <path d="M228.548,-95.3729 L211.818,-95.3729"/>
            <path d="M211.818,-95.3729 L191.433,-95.3729"/>
            <path d="M191.433,-95.3729 L168.177,-95.3729"/>
            <path d="M168.177,-95.3729 L142.942,-95.3729"/>
            <path d="M142.942,-95.3729 L116.698,-95.3729"/>
            <path d="M116.698,-95.3729 L90.4542,-95.3729"/>
            <path d="M90.4542,-95.3729 L65.2191,-95.3729"/>
            <path d="M65.2191,-95.3729 L41.9623,-95.3729"/>
            <path d="M41.9623,-95.3729 L27.9327,-95.3729"/>
            <path d="M44.1732,-95.3729 L27.9327,-95.3729"/>
            <path d="M66.742,-95.3729 L44.1732,-95.3729"/>
            <path d="M91.2306,-95.3729 L66.742,-95.3729"/>
            <path d="M116.698,-95.3729 L91.2306,-95.3729"/>
            <path d="M142.165,-95.3729 L116.698,-95.3729"/>
            <path d="M166.654,-95.3729 L142.165,-95.3729"/>
            <path d="M189.223,-95.3729 L188.635,-95.3729"/>
            <path d="M188.425,-95.3729 L166.654,-95.3729"/>
            <path d="M209.004,-95.3729 L189.223,-95.3729"/>
            <path d="M225.239,-95.3729 L209.004,-95.3729"/>
            <path d="M237.302,-95.3729 L225.239,-95.3729"/>
            <path d="M244.73,-95.3729 L237.302,-95.3729"/>
            <path d="M247.239,-95.3729 L244.73,-95.3729"/>
            <path d="M27.9327,-24.3918 L33.2828,-27.8223"/>
            <path d="M33.2828,-27.8223 L42.9457,-25.0623"/>
            <path d="M42.9457,-25.0623 L47.2145,-27.758"/>
            <path d="M50.7636,-29.9992 L51.0626,-30.1881"/>
            <path d="M51.0626,-30.1881 L56.0874,-24.4708"/>
            <path d="M56.0874,-24.4708 L48.357,-12.4449"/>
            <path d="M48.357,-12.4449 L70.5818,-3.7704"/>
            <path d="M70.5818,-3.7704 L85.2695,-5.54472"/>
            <path d="M85.2695,-5.54472 L88.7482,-1.79892"/>
            <path d="M88.7482,-1.79892 L96.4786,-8.50192"/>
            <path d="M96.4786,-8.50192 L109.234,-8.50192"/>
            <path d="M109.234,-8.50192 L114.838,-2.39037"/>
            <path d="M114.838,-2.39037 L115.418,9.63559"/>
            <path d="M115.418,9.63559 L114.065,21.491"/>
            <path d="M114.065,21.491 L113.128,32.0423"/>
            <path d="M113.128,32.0423 L113.128,41.8041"/>
            <path d="M113.128,41.8041 L123.906,41.8041"/>
            <path d="M123.906,41.8041 L123.906,32.0423"/>
            <path d="M123.906,32.0423 L125.019,6.8992"/>
            <path d="M125.019,6.8992 L134.203,-3.32089"/>
            <path d="M134.203,-3.32089 L139.769,-0.765858"/>
            <path d="M139.769,-0.765858 L153.683,-6.44369"/>
            <path d="M153.683,-6.44369 L156.188,-1.90143"/>
            <path d="M156.188,-1.90143 L162.867,0.369706"/>
            <path d="M162.867,0.369706 L168.711,-5.8759"/>
            <path d="M168.711,-5.8759 L175.669,-6.72757"/>
            <path d="M175.669,-6.72757 L179.286,-3.88866"/>
            <path d="M179.286,-3.88866 L184.574,-13.2571"/>
            <path d="M184.574,-13.2571 L194.592,-12.6893"/>
            <path d="M194.592,-12.6893 L197.097,-11.8376"/>
            <path d="M197.097,-11.8376 L197.375,-21.4899"/>
            <path d="M197.375,-21.4899 L202.663,-22.3416"/>
            <path d="M202.663,-22.3416 L208.507,-13.8249"/>
            <path d="M208.507,-13.8249 L226.875,-23.1933"/>
            <path d="M226.875,-23.1933 L226.875,-28.8711"/>
            <path d="M226.875,-28.8711 L232.44,-32.5617"/>
            <path d="M232.44,-32.5617 L232.997,-39.0912"/>
            <path d="M232.997,-39.0912 L227.709,-41.0784"/>
            <path d="M227.709,-41.0784 L220.474,-54.9891"/>
            <path d="M220.474,-54.9891 L231.327,-63.7897"/>
            <path d="M231.327,-63.7897 L238.285,-62.9381"/>
            <path d="M238.285,-62.9381 L247.747,-69.7515"/>
            <path d="M247.747,-69.7515 L252.756,-78.2682"/>
            <path d="M252.756,-78.2682 L256.93,-81.9588"/>
            <path d="M256.93,-81.9588 L262.218,-86.5011"/>
            <path d="M262.218,-86.5011 L262.774,-90.7594"/>
            <path d="M262.774,-90.7594 L265.279,-95.8695"/>
            <path d="M265.279,-95.8695 L263.609,-102.967"/>
            <path d="M263.609,-102.967 L262.496,-111.2"/>
            <path d="M262.496,-111.2 L252.756,-113.755"/>
            <path d="M252.756,-113.755 L247.19,-110.916"/>
            <path d="M247.19,-110.916 L243.247,-116.83"/>
            <path d="M243.247,-116.83 L237.913,-119.196"/>
            <path d="M237.913,-119.196 L236.29,-125.11"/>
            <path d="M236.29,-125.11 L233.507,-124.401"/>
            <path d="M233.507,-124.401 L234.667,-125.82"/>
            <path d="M234.667,-125.82 L228.173,-137.885"/>
            <path d="M228.173,-137.885 L233.275,-139.305"/>
            <path d="M233.275,-139.305 L234.435,-143.09"/>
            <path d="M234.435,-143.09 L228.405,-147.822"/>
            <path d="M228.405,-147.822 L220.752,-149.005"/>
            <path d="M220.752,-149.005 L218.448,-153.007"/>
            <path d="M94.3164,-203.76 L77.0599,-193.15"/>
            <path d="M77.0599,-193.15 L79.2862,-180.091"/>
            <path d="M79.2862,-180.091 L65.6498,-171.29"/>
            <path d="M65.6498,-171.29 L61.7537,-177.536"/>
            <path d="M61.7537,-177.536 L50.7636,-169.127"/>
            <path d="M118.517,41.8041 L118.517,41.8041"/>
            <path d="M118.517,41.8041 L118.517,32.0423"/>
            <path d="M118.517,32.0423 L118.517,6.8992"/>
            <path d="M118.517,6.8992 L118.517,-3.32089"/>
            <path d="M118.517,-3.32089 L118.517,-0.765859"/>
            <path d="M118.517,-0.765859 L118.517,-6.44369"/>
            <path d="M118.517,-6.44369 L118.517,-1.90143"/>
            <path d="M118.517,-1.90143 L118.517,0.369704"/>
            <path d="M118.517,0.369704 L118.517,-5.87591"/>
            <path d="M118.517,-5.87591 L118.517,-6.72758"/>
            <path d="M118.517,-6.72758 L118.517,-3.88867"/>
            <path d="M118.517,-3.88867 L118.517,-13.2571"/>
            <path d="M118.517,-13.2571 L118.517,-12.6893"/>
            <path d="M118.517,-12.6893 L118.517,-11.8376"/>
            <path d="M118.517,-11.8376 L118.517,-21.4899"/>
            <path d="M118.517,-21.4899 L118.517,-22.3416"/>
            <path d="M118.517,-22.3416 L118.517,-13.8249"/>
            <path d="M118.517,-13.8249 L118.517,-23.1933"/>
            <path d="M118.517,-23.1933 L118.517,-28.8711"/>
            <path d="M118.517,-28.8711 L118.517,-32.5617"/>
            <path d="M118.517,-32.5617 L118.517,-39.0912"/>
            <path d="M118.517,-39.0912 L118.517,-41.0784"/>
            <path d="M118.517,-41.0784 L118.517,-54.9891"/>
            <path d="M118.517,-54.9891 L118.517,-63.7898"/>
            <path d="M118.517,-63.7898 L118.517,-62.9381"/>
            <path d="M118.517,-62.9381 L118.517,-69.7515"/>
            <path d="M118.517,-69.7515 L118.517,-78.2682"/>
            <path d="M118.517,-78.2682 L118.517,-81.9588"/>
            <path d="M118.517,-81.9588 L118.517,-86.5011"/>
            <path d="M118.517,-86.5011 L118.517,-90.7594"/>
            <path d="M118.517,-90.7594 L118.517,-95.8695"/>
            <path d="M118.517,-95.8695 L118.517,-102.967"/>
            <path d="M118.517,-102.967 L118.517,-111.2"/>
            <path d="M118.517,-111.2 L118.517,-113.755"/>
            <path d="M118.517,-113.755 L118.517,-110.916"/>
            <path d="M118.517,-110.916 L118.517,-116.83"/>
            <path d="M118.517,-116.83 L118.517,-119.196"/>
            <path d="M118.517,-119.196 L118.517,-125.11"/>
            <path d="M118.517,-125.11 L118.517,-124.401"/>
            <path d="M118.517,-124.401 L118.517,-125.82"/>
            <path d="M118.517,-125.82 L118.517,-137.885"/>
            <path d="M118.517,-137.885 L118.517,-139.305"/>
            <path d="M118.517,-139.305 L118.517,-143.09"/>
            <path d="M118.517,-143.09 L118.517,-147.822"/>
            <path d="M118.517,-147.822 L118.517,-149.005"/>
            <path d="M118.517,-149.005 L118.517,-163.909"/>
            <path d="M118.517,-163.909 L118.517,-164.855"/>
            <path d="M118.517,-164.855 L118.517,-175.264"/>
            <path d="M118.517,-175.264 L118.517,-179.05"/>
            <path d="M118.517,-179.05 L118.517,-173.845"/>
            <path d="M118.517,-173.845 L118.517,-172.189"/>
            <path d="M118.517,-172.189 L118.517,-175.028"/>
            <path d="M118.517,-175.028 L118.517,-180.233"/>
            <path d="M118.517,-180.233 L118.517,-180.942"/>
            <path d="M118.517,-180.942 L118.517,-186.857"/>
            <path d="M118.517,-186.857 L118.517,-192.771"/>
            <path d="M118.517,-192.771 L118.517,-197.029"/>
            <path d="M118.517,-197.029 L118.517,-193.717"/>
            <path d="M118.517,-193.717 L118.517,-189.459"/>
            <path d="M118.517,-189.459 L118.517,-192.388"/>
        </g>
        <g id="product-dd5d592c-dc01-4d97-8882-835cca43af3c" class="IfcDoor material-null projection" ifc:name="Door" ifc:guid="3TNLait05DbuY2WrpAGwyy">
            <path d="M-31.3916,19.3041 L-33.8916,19.3041"/>
            <path d="M-31.3916,-83.1959 L-31.3916,19.3041"/>
            <path d="M13.6084,-83.1959 L-31.3916,-83.1959"/>
            <path d="M13.6084,19.3041 L13.6084,-83.1959"/>
            <path d="M15.4327,19.3041 L13.6084,19.3041"/>
            <path d="M17.3584,-85.6959 L17.3584,-85.6959"/>
            <path d="M-31.3916,18.0541 L13.6084,18.0541"/>
            <path d="M-31.3916,19.3041 L13.6084,19.3041"/>
            <path d="M-30.1416,-32.4459 L-24.1416,-32.4459"/>
            <path d="M-30.1416,-31.4459 L-24.1416,-31.4459"/>
            <path d="M-24.1416,-31.4459 L-24.1416,-32.4459"/>
            <path d="M-30.1416,-31.4459 L-30.1416,-32.4459"/>
            <path d="M-31.3916,19.3041 L-31.3916,19.3041"/>
            <path d="M13.6084,-83.1959 L13.6084,-83.1959"/>
        </g>
        <g id="product-b3a6c56c-0f9e-4727-bf88-7866ce0cc8b3" class="IfcGeographicElement material-null projection" ifc:name="GeographicElement" ifc:guid="2pfiLi3vv79x_8U6RE3CYp">
            <path d="M-118.991,-177.679 L-102.159,-177.679"/>
            <path d="M-134.191,-177.679 L-118.991,-177.679"/>
            <path d="M-141.398,-177.679 L-134.191,-177.679"/>
            <path d="M-140.335,-177.679 L-141.398,-177.679"/>
            <path d="M-131.043,-177.679 L-140.335,-177.679"/>
            <path d="M-113.878,-177.679 L-131.043,-177.679"/>
            <path d="M-102.159,-177.679 L-113.878,-177.679"/>
            <path d="M-58.8486,-177.679 L-87.3762,-177.679"/>
            <path d="M-23.0983,-177.679 L-58.8486,-177.679"/>
            <path d="M16.3759,-177.679 L-23.0983,-177.679"/>
            <path d="M58.0569,-177.679 L16.3759,-177.679"/>
            <path d="M100.343,-177.679 L58.0569,-177.679"/>
            <path d="M141.609,-177.679 L100.343,-177.679"/>
            <path d="M180.27,-177.679 L141.609,-177.679"/>
            <path d="M214.838,-177.679 L180.27,-177.679"/>
            <path d="M243.987,-177.679 L229.325,-177.679"/>
            <path d="M266.596,-177.679 L243.987,-177.679"/>
            <path d="M281.796,-177.679 L266.596,-177.679"/>
            <path d="M289.003,-177.679 L281.796,-177.679"/>
            <path d="M287.94,-177.679 L289.003,-177.679"/>
            <path d="M278.647,-177.679 L287.94,-177.679"/>
            <path d="M261.483,-177.679 L278.647,-177.679"/>
            <path d="M237.106,-177.679 L261.483,-177.679"/>
            <path d="M232.247,-177.679 L237.106,-177.679"/>
            <path d="M232.247,-177.679 L232.275,-177.679"/>
            <path d="M232.275,-177.679 L255.931,-177.679"/>
            <path d="M255.931,-177.679 L272.587,-177.679"/>
            <path d="M272.587,-177.679 L281.605,-177.679"/>
            <path d="M281.605,-177.679 L282.637,-177.679"/>
            <path d="M282.637,-177.679 L275.643,-177.679"/>
            <path d="M275.643,-177.679 L260.893,-177.679"/>
            <path d="M260.893,-177.679 L238.953,-177.679"/>
            <path d="M238.953,-177.679 L229.325,-177.679"/>
            <path d="M210.666,-177.679 L177.12,-177.679"/>
            <path d="M177.12,-177.679 L139.603,-177.679"/>
            <path d="M139.603,-177.679 L99.5578,-177.679"/>
            <path d="M99.5578,-177.679 L58.5227,-177.679"/>
            <path d="M58.5227,-177.679 L18.0747,-177.679"/>
            <path d="M18.0747,-177.679 L-20.2316,-177.679"/>
            <path d="M-20.2316,-177.679 L-54.9243,-177.679"/>
            <path d="M-54.9243,-177.679 L-82.5452,-177.679"/>
            <path d="M-102.159,-177.679 L-108.326,-177.679"/>
            <path d="M-108.326,-177.679 L-124.983,-177.679"/>
            <path d="M-124.983,-177.679 L-134,-177.679"/>
            <path d="M-134,-177.679 L-135.032,-177.679"/>
            <path d="M-135.032,-177.679 L-128.038,-177.679"/>
            <path d="M-128.038,-177.679 L-113.288,-177.679"/>
            <path d="M-113.288,-177.679 L-102.159,-177.679"/>
            <path d="M195.151,-77.1812 L195.734,-87.6284"/>
            <path d="M189.315,-71.2763 L195.151,-77.1812"/>
            <path d="M189.315,-62.1917 L189.315,-71.2763"/>
            <path d="M170.058,-47.2023 L189.315,-62.1917"/>
            <path d="M170.058,-47.2023 L163.931,-60.829"/>
            <path d="M158.387,-59.4664 L163.931,-60.829"/>
            <path d="M158.096,-44.0227 L158.387,-59.4664"/>
            <path d="M155.47,-45.3853 L158.096,-44.0227"/>
            <path d="M144.966,-46.2938 L155.47,-45.3853"/>
            <path d="M139.422,-31.3043 L144.966,-46.2938"/>
            <path d="M139.422,-31.3043 L135.629,-35.8466"/>
            <path d="M128.335,-34.4839 L135.629,-35.8466"/>
            <path d="M122.208,-24.4909 L128.335,-34.4839"/>
            <path d="M122.208,-24.4909 L115.205,-28.1248"/>
            <path d="M112.579,-35.3924 L115.205,-28.1248"/>
            <path d="M97.9905,-26.3078 L112.579,-35.3924"/>
            <path d="M97.9905,-26.3078 L94.3164,-28.8818"/>
            <path d="M82.2694,-5.1823 L81.3594,26.1852"/>
            <path d="M81.3594,41.8041 L81.3594,26.1852"/>
            <path d="M75.7096,41.8041 L81.3594,41.8041"/>
            <path d="M-42.7412,-281.886 L-42.6265,-276.707"/>
            <path d="M-42.7412,-281.886 L-39.9814,-282.763"/>
            <path d="M32.2444,-334.122 L32.7773,-329.352"/>
            <path d="M53.5438,-354.108 L32.2444,-334.122"/>
            <path d="M53.5438,-354.108 L59.671,-348.203"/>
            <path d="M59.671,-348.203 L69.0077,-358.196"/>
            <path d="M85.6388,-351.837 L75.7097,-355.633"/>
            <path d="M75.7097,-355.633 L69.0077,-358.196"/>
            <path d="M85.6388,-351.837 L86.2223,-341.39"/>
            <path d="M96.4343,-340.481 L86.2223,-341.39"/>
            <path d="M96.4343,-340.481 L110.439,-328.217"/>
            <path d="M110.439,-328.217 L124.542,-335.03"/>
            <path d="M124.542,-335.03 L129.162,-340.33"/>
            <path d="M129.162,-340.33 L141.805,-333.516"/>
            <path d="M141.805,-333.516 L143.993,-324.053"/>
            <path d="M141.076,-314.59 L143.993,-324.053"/>
            <path d="M138.158,-313.455 L141.076,-314.59"/>
            <path d="M138.158,-313.455 L142.291,-305.127"/>
            <path d="M142.291,-305.127 L148.37,-300.585"/>
            <path d="M148.37,-300.585 L154.205,-303.235"/>
            <path d="M154.205,-303.235 L162.715,-311.562"/>
            <path d="M170.982,-305.506 L162.715,-311.562"/>
            <path d="M170.982,-305.506 L166.119,-288.851"/>
            <path d="M173.9,-287.337 L166.119,-288.851"/>
            <path d="M173.9,-287.337 L182.896,-263.49"/>
            <path d="M182.896,-263.49 L190.92,-261.597"/>
            <path d="M190.92,-261.597 L197.242,-254.027"/>
            <path d="M196.026,-247.97 L197.242,-254.027"/>
            <path d="M196.026,-247.97 L190.677,-245.699"/>
            <path d="M197.485,-226.395 L190.677,-245.699"/>
            <path d="M197.485,-226.395 L196.269,-224.123"/>
            <path d="M199.187,-225.259 L196.269,-224.123"/>
            <path d="M199.187,-225.259 L200.889,-215.796"/>
            <path d="M206.481,-212.011 L200.889,-215.796"/>
            <path d="M206.481,-212.011 L210.615,-202.548"/>
            <path d="M210.615,-202.548 L216.45,-207.09"/>
            <path d="M226.662,-203.002 L216.45,-207.09"/>
            <path d="M226.662,-203.002 L227.829,-189.829"/>
            <path d="M229.58,-178.474 L227.829,-189.829"/>
            <path d="M229.58,-178.474 L226.954,-170.298"/>
            <path d="M226.37,-163.484 L226.954,-170.298"/>
            <path d="M220.827,-156.217 L226.37,-163.484"/>
            <path d="M216.45,-150.312 L220.827,-156.217"/>
            <path d="M211.198,-136.685 L216.45,-150.312"/>
            <path d="M201.278,-125.783 L211.198,-136.685"/>
            <path d="M201.278,-125.783 L193.984,-127.146"/>
            <path d="M182.605,-113.065 L193.984,-127.146"/>
            <path d="M182.605,-113.065 L190.191,-90.808"/>
            <path d="M195.734,-87.6284 L190.191,-90.808"/>
            <path d="M-37.9835,-287.337 L-28.9744,-288.851"/>
            <path d="M-48.4002,-263.49 L-37.9835,-287.337"/>
            <path d="M-57.6908,-261.597 L-48.4002,-263.49"/>
            <path d="M-65.0106,-254.027 L-57.6908,-261.597"/>
            <path d="M-63.603,-247.97 L-65.0106,-254.027"/>
            <path d="M-63.603,-247.97 L-57.4093,-245.699"/>
            <path d="M-65.2922,-226.395 L-57.4093,-245.699"/>
            <path d="M-65.2922,-226.395 L-63.8845,-224.123"/>
            <path d="M-67.2629,-225.259 L-63.8845,-224.123"/>
            <path d="M-67.2629,-225.259 L-69.2336,-215.796"/>
            <path d="M-75.7089,-212.011 L-69.2336,-215.796"/>
            <path d="M-75.7089,-212.011 L-80.495,-202.548"/>
            <path d="M-80.495,-202.548 L-87.2517,-207.09"/>
            <path d="M-99.0761,-203.002 L-87.2517,-207.09"/>
            <path d="M-100.427,-189.829 L-99.0761,-203.002"/>
            <path d="M-102.455,-178.474 L-100.427,-189.829"/>
            <path d="M-102.455,-178.474 L-99.414,-170.298"/>
            <path d="M-98.7383,-163.484 L-99.414,-170.298"/>
            <path d="M-98.7383,-163.484 L-92.3193,-156.217"/>
            <path d="M-87.2517,-150.312 L-92.3193,-156.217"/>
            <path d="M-81.1706,-136.685 L-87.2517,-150.312"/>
            <path d="M-75.071,-130.896 L-81.1706,-136.685"/>
            <path d="M27.9327,-27.2079 L29.9785,-28.1248"/>
            <path d="M29.9785,-28.1248 L33.019,-35.3924"/>
            <path d="M49.911,-26.3078 L33.019,-35.3924"/>
            <path d="M49.911,-26.3078 L52.8892,-28.1098"/>
            <path d="M69.1678,26.1852 L68.1294,-4.72758"/>
            <path d="M69.1678,41.8041 L69.1678,26.1852"/>
            <path d="M69.1678,41.8041 L75.7096,41.8041"/>
            <path d="M82.2515,41.8041 L82.2515,26.1852"/>
            <path d="M82.2515,26.1852 L81.628,16.9293"/>
            <path d="M236.955,-122.689 L242.592,-131.991"/>
            <path d="M242.592,-137.896 L242.592,-131.991"/>
            <path d="M242.592,-137.896 L232.457,-146.526"/>
            <path d="M232.457,-146.526 L244.619,-165.604"/>
            <path d="M243.606,-173.78 L244.619,-165.604"/>
            <path d="M229.56,-178.601 L243.606,-173.78"/>
            <path d="M221.049,-205.249 L225.7,-239.643"/>
            <path d="M225.7,-239.643 L212.187,-255.541"/>
            <path d="M212.862,-281.886 L212.187,-255.541"/>
            <path d="M196.308,-286.428 L212.862,-281.886"/>
            <path d="M178.183,-275.984 L196.308,-286.428"/>
            <path d="M144.619,-309.139 L151.633,-302.066"/>
            <path d="M142.608,-304.891 L144.619,-309.139"/>
            <path d="M101.375,-354.108 L124.697,-335.208"/>
            <path d="M101.375,-354.108 L94.2806,-348.203"/>
            <path d="M94.2806,-348.203 L83.4697,-358.196"/>
            <path d="M64.2129,-351.837 L83.4697,-358.196"/>
            <path d="M64.2129,-351.837 L63.5372,-341.39"/>
            <path d="M51.7128,-340.481 L63.5372,-341.39"/>
            <path d="M51.7128,-340.481 L35.4966,-328.217"/>
            <path d="M35.4966,-328.217 L19.1677,-335.03"/>
            <path d="M13.8185,-340.33 L19.1677,-335.03"/>
            <path d="M-0.82117,-333.516 L13.8185,-340.33"/>
            <path d="M-3.35496,-324.053 L-0.82117,-333.516"/>
            <path d="M0.0234392,-314.59 L-3.35496,-324.053"/>
            <path d="M0.0234392,-314.59 L3.40183,-313.455"/>
            <path d="M-1.38423,-305.127 L3.40183,-313.455"/>
            <path d="M-1.38423,-305.127 L-8.42254,-300.585"/>
            <path d="M-8.42254,-300.585 L-15.1793,-303.235"/>
            <path d="M-15.1793,-303.235 L-25.033,-311.562"/>
            <path d="M-34.6051,-305.506 L-25.033,-311.562"/>
            <path d="M-34.6051,-305.506 L-28.9744,-288.851"/>
        </g>
        <g id="product-58763873-796b-46eb-98d4-40fe512ae1d5" class="IfcWall material-null projection" ifc:name="Wall" ifc:guid="1OTZXpUMj6wvZKGFvHAk7L">
            <path d="M-115.067,97.8041 L-152.567,97.8041"/>
            <path d="M-152.567,97.8041 L-152.567,97.8041"/>
            <path d="M2.93269,97.8041 L-115.067,97.8041"/>
            <path d="M-115.067,97.8041 L-115.067,97.8041"/>
        </g>
        <g id="product-ed6db098-3ccc-4c0f-9108-15fae13a33da" class="IfcWall material-null projection" ifc:name="Wall" ifc:guid="3jRR2OFCnC3v485VhXEZFQ">
            <path d="M40.4327,97.8041 L2.93269,97.8041"/>
            <path d="M40.4327,91.8041 L40.4327,97.8041"/>
            <path d="M40.4327,91.8041 L2.93269,91.8041"/>
            <path d="M2.93269,97.8041 L2.93269,91.8041"/>
        </g>
        <g id="product-8ac5d6fa-f4a7-4415-9b95-adcf7b8110b7" class="IfcWall material-null projection" ifc:name="Wall" ifc:guid="2AnTRwzAT45PkLhSzxWH2t">
            <path d="M-477.068,91.8041 L-514.568,91.8041"/>
            <path d="M-477.068,97.8041 L-514.568,97.8041"/>
            <path d="M-514.568,97.8041 L-514.568,91.8041"/>
            <path d="M2.93268,91.8041 L-477.068,91.8041"/>
            <path d="M2.93268,97.8041 L-477.068,97.8041"/>
            <path d="M-477.068,97.8041 L-477.068,91.8041"/>
            <path d="M2.93268,91.8041 L2.93268,91.8041"/>
        </g>
        <g id="product-486c8785-238b-4be8-ab72-cb53c04486ec" class="IfcWall material-randomrubble projection" ifc:name="Wall" ifc:guid="18R8U58ujBwAjoorF0H8Ri">
            <path d="M-130.569,26.8041 L-140.067,26.8041"/>
            <path d="M-140.067,36.8041 L-140.067,26.8041"/>
        </g>
        <g id="product-a4967129-8ca6-4e5e-aef1-451e3bf69722" class="IfcWall material-concrete projection" ifc:name="Wall" ifc:guid="2abd4fZAPENgxnHHuxzfSY">
            <path d="M6.68264,91.8041 L6.68264,91.8041"/>
            <path d="M36.6826,91.8041 L36.6826,91.8041"/>
        </g>
        <g id="product-0a8aadeb-1a7d-4b39-8bef-663dab461e3b" class="IfcWall material-concrete projection" ifc:name="Wall" ifc:guid="0AYgth6drBEOllPZshHXux">
            <path d="M36.6826,91.8041 L6.68265,91.8041"/>
            <path d="M36.6826,61.8041 L36.6826,91.8041"/>
            <path d="M36.6826,61.8041 L6.68265,61.8041"/>
            <path d="M6.68265,91.8041 L6.68265,61.8041"/>
        </g>
        <g id="product-824f2e77-e16b-40de-b9d6-276695986219" class="IfcSlab material-null projection" ifc:name="Slab" ifc:guid="22JovtuMj0thdM9sQLc68P">
            <path d="M6.6826,20.3041 L6.68264,20.3041"/>
            <path d="M15.4327,19.3041 L15.4327,19.3041"/>
            <path d="M-127.067,19.3041 L-127.067,19.3041"/>
            <path d="M-127.567,19.3041 L-127.567,19.3041"/>
        </g>
        <g id="product-7a19f516-edbb-42ad-8963-f9a56b48ae6e" class="IfcWall material-brick projection" ifc:name="Wall" ifc:guid="1w6VKMxRj2hObZ_QLhIAvk">
            <path d="M-140.067,-130.696 L-140.067,-130.896"/>
            <path d="M-127.567,-130.896 L-140.067,-130.896"/>
            <path d="M-127.567,-130.696 L-127.567,-130.896"/>
            <path d="M15.4327,-130.896 L-127.567,-130.896"/>
            <path d="M27.9327,19.1041 L27.9327,19.1041"/>
            <path d="M15.4327,-130.696 L15.4327,-130.896"/>
            <path d="M27.9327,-130.896 L15.4327,-130.896"/>
            <path d="M27.9327,19.1041 L27.9327,-130.896"/>
        </g>
        <g id="product-396913ed-d063-4db5-ba68-e2913fefb691" class="IfcWall material-brick projection" ifc:name="Wall" ifc:guid="0vQHFjq6DDjRfeuf4$xxQH">
            <path d="M27.9327,-85.6959 L27.9327,-85.6959"/>
            <path d="M27.9327,-20.6959 L27.9327,-85.6959"/>
            <path d="M27.9327,-20.6959 L27.9327,-20.6959"/>
            <path d="M27.9327,19.3041 L15.4327,19.3041"/>
            <path d="M27.9327,-20.6959 L27.9327,19.3041"/>
            <path d="M27.9327,-20.6959 L15.4327,-20.6959"/>
            <path d="M15.4327,19.3041 L15.4327,-20.6959"/>
            <path d="M27.9327,-85.6959 L27.9327,-85.6959"/>
            <path d="M27.9327,-20.6959 L27.9327,-85.6959"/>
            <path d="M27.9327,-20.6959 L27.9327,-20.6959"/>
            <path d="M15.4327,-85.6959 L15.4327,-20.6959"/>
            <path d="M15.4327,-85.6959 L27.9327,-85.6959"/>
            <path d="M27.9327,-130.696 L27.9327,-85.6959"/>
            <path d="M27.9327,-130.696 L15.4327,-130.696"/>
            <path d="M15.4327,-85.6959 L15.4327,-130.696"/>
        </g>
        <g id="product-5c5d8b5f-05a4-4cab-a8a0-b63b0de1ccd0" class="IfcWall material-concrete projection" ifc:name="Wall" ifc:guid="1SNOjV1QHCgwYWjZiDuSpG">
            <path d="M-480.818,61.8041 L-510.818,61.8041"/>
            <path d="M-510.818,91.8041 L-510.818,61.8041"/>
            <path d="M6.68264,61.8041 L-480.818,61.8041"/>
            <path d="M-480.818,91.8041 L-480.818,61.8041"/>
            <path d="M6.68264,91.8041 L6.68264,91.8041"/>
        </g>
        <g id="product-1d7f98af-7795-441c-a795-fb27943e2752" class="IfcDistributionChamberElement material-null projection" ifc:name="DistributionChamberElement" ifc:guid="0TVvYlTvL47AUL_oUKFYTI">
            <path d="M62.74,56.8041 L62.74,41.8041"/>
            <path d="M62.74,56.8041 L42.74,56.8041"/>
            <path d="M62.74,41.8041 L42.74,41.8041"/>
            <path d="M62.74,56.8041 L62.74,56.8041"/>
            <path d="M42.74,41.8041 L42.74,41.8041"/>
            <path d="M42.74,56.8041 L42.74,56.8041"/>
            <path d="M42.74,56.8041 L42.74,56.8041"/>
            <path d="M42.74,41.8041 L42.74,41.8041"/>
            <path d="M42.74,41.8041 L42.74,56.8041"/>
            <path d="M42.74,56.8041 L42.74,56.8041"/>
        </g>
        <g id="product-48244ef5-cc17-439b-a36a-c5ef938d7b4d" class="IfcDistributionChamberElement material-null projection" ifc:name="DistributionChamberElement" ifc:guid="1894xrp1T3cwDgnU_JZNjD">
            <path d="M42.74,56.8041 L42.74,56.8041"/>
            <path d="M42.74,56.8041 L42.74,56.8041"/>
            <path d="M42.74,56.8041 L42.74,56.8041"/>
            <path d="M42.74,56.8041 L42.74,56.8041"/>
            <path d="M42.74,56.8041 L42.74,56.8041"/>
        </g>
        <g id="product-c8f2a19c-0413-4674-8ce9-6e3a60994f2b" class="IfcWall material-randomrubble projection" ifc:name="Wall" ifc:guid="38yg6S11D6T8pfRZfWcKyh">
            <path d="M27.9326,26.8041 L6.68264,26.8041"/>
            <path d="M6.68264,61.8041 L6.68264,49.3758"/>
            <path d="M6.68264,46.2003 L6.68264,26.8041"/>
            <path d="M27.9326,61.8041 L6.68264,61.8041"/>
            <path d="M27.9326,26.8041 L27.9326,46.5712"/>
            <path d="M27.9326,49.7467 L27.9326,61.8041"/>
        </g>
        <g id="product-7c8c543a-5e80-45a4-ad5c-f7598399740e" class="IfcWall material-brick projection" ifc:name="Wall" ifc:guid="1yZ5GwNe15fArSzrc3cNGE">
            <path d="M-250.079,-86.9459 L-250.079,-46.9459"/>
            <path d="M-227.579,-86.9459 L-250.079,-86.9459"/>
            <path d="M-227.579,-46.9459 L-227.579,-86.9459"/>
            <path d="M-250.079,-46.9459 L-227.579,-46.9459"/>
            <path d="M-215.079,-85.6959 L-215.079,-55.6959"/>
            <path d="M-185.079,-85.6959 L-215.079,-85.6959"/>
            <path d="M-185.079,-55.6959 L-185.079,-85.6959"/>
            <path d="M-215.079,-55.6959 L-185.079,-55.6959"/>
            <path d="M15.4327,-85.6959 L15.4327,-85.6959"/>
            <path d="M15.4327,-130.696 L-251.564,-130.696"/>
            <path d="M-251.564,19.3041 L-251.564,-130.696"/>
            <path d="M-33.8916,19.3041 L-251.564,19.3041"/>
            <path d="M-33.8916,-85.6959 L-33.8916,19.3041"/>
            <path d="M15.4327,-85.6959 L-33.8916,-85.6959"/>
        </g>
        <g id="product-842c46a8-165a-4ece-8a90-72e0280200ec" class="IfcPipeSegment material-kitchenwater projection" ifc:name="PipeSegment" ifc:guid="24B4Qe5bfEpegGSk0e0W3i">
            <path d="M-125.558,43.8921 L42.6541,46.8282"/>
            <path d="M-125.613,47.0666 L42.5987,50.0027"/>
            <path d="M42.6,49.925 L42.6,49.925"/>
            <path d="M42.6,49.925 L42.5987,50.0027"/>
            <path d="M42.604,49.6996 L42.6,49.925"/>
            <path d="M42.6101,49.3484 L42.604,49.6996"/>
            <path d="M42.6178,48.9059 L42.6101,49.3484"/>
            <path d="M42.6264,48.4155 L42.6178,48.9059"/>
            <path d="M42.6349,47.925 L42.6264,48.4155"/>
            <path d="M42.6427,47.4825 L42.6349,47.925"/>
            <path d="M42.6488,47.1313 L42.6427,47.4825"/>
            <path d="M42.6527,46.9059 L42.6488,47.1313"/>
            <path d="M42.6541,46.8282 L42.6527,46.9059"/>
            <path d="M42.6527,46.9059 L42.6527,46.9059"/>
            <path d="M-125.612,46.9889 L-125.612,46.9889"/>
            <path d="M-125.612,46.9889 L-125.613,47.0666"/>
            <path d="M-125.608,46.7634 L-125.612,46.9889"/>
            <path d="M-125.602,46.4123 L-125.608,46.7634"/>
            <path d="M-125.594,45.9698 L-125.602,46.4123"/>
            <path d="M-125.586,45.4793 L-125.594,45.9698"/>
            <path d="M-125.577,44.9888 L-125.586,45.4793"/>
            <path d="M-125.569,44.5463 L-125.577,44.9888"/>
            <path d="M-125.563,44.1952 L-125.569,44.5463"/>
            <path d="M-125.559,43.9697 L-125.563,44.1952"/>
            <path d="M-125.558,43.8921 L-125.559,43.9697"/>
            <path d="M-125.559,43.9697 L-125.559,43.9697"/>
        </g>
        <g id="product-a5c3afe0-ef83-47e3-a329-ea7700260156" class="IfcWall material-randomrubble projection" ifc:name="Wall" ifc:guid="2bmw$WxuD7uwCfwdS09W5M">
            <path d="M-155.585,26.8041 L-176.764,26.8041"/>
            <path d="M6.68264,26.8041 L-47.669,26.8041"/>
            <path d="M-130.569,36.8041 L-130.569,26.8041"/>
            <path d="M-143.069,36.8041 L-130.569,36.8041"/>
            <path d="M-143.069,36.8041 L-143.069,26.8041"/>
            <path d="M-143.069,26.8041 L-155.585,26.8041"/>
            <path d="M-155.585,41.8041 L-155.585,26.8041"/>
            <path d="M-176.764,41.8041 L-155.585,41.8041"/>
            <path d="M-176.764,26.8041 L-176.764,41.8041"/>
            <path d="M-176.764,26.8041 L-215.079,26.8041"/>
            <path d="M-215.079,34.3041 L-215.079,26.8041"/>
            <path d="M-227.579,34.3041 L-215.079,34.3041"/>
            <path d="M-227.579,41.8041 L-227.579,34.3041"/>
            <path d="M-240.079,41.8041 L-227.579,41.8041"/>
            <path d="M-240.079,26.8041 L-240.079,41.8041"/>
            <path d="M-240.079,26.8041 L-307.12,26.8041"/>
            <path d="M-307.12,36.8041 L-307.12,26.8041"/>
            <path d="M-319.62,36.8041 L-307.12,36.8041"/>
            <path d="M-319.62,36.8041 L-319.62,26.8041"/>
            <path d="M-319.62,26.8041 L-378.317,26.8041"/>
            <path d="M-378.317,61.8041 L-378.317,26.8041"/>
        </g>
    <g ifc:guid="24B4Qe5bfEpegGSk0e0W3i" ifc:name="PipeSegment" class="IfcPipeSegment material-kitchenwater cut"><path d="M42.60189444836924,49.816870398353785 L-84.94131504479101,47.59060926735401 L-125.61023174706152,46.88073471188545 L-125.6106609005039,46.90490588545799 L-125.61199604454687,46.98071964085102 L-6.110455979735166,49.06661408022046 L42.600130150883885,49.916854954790324 L42.601465294926854,49.8410512576811 Z"/><path d="M1.9728890162403285,46.30396105349064 L42.65081794080088,47.013986855745316 L42.65124709424326,46.98980562388897 L42.65258223828623,46.91400229930878 L-76.85544430199316,44.828011468052864 L-125.55954395714453,43.97788941860199 L-125.5608791011875,44.05370280146599 L-125.56130825462988,44.07787397503853 Z"/></g><g ifc:guid="1Q_c7uVcTCngKTLSlSECoW" ifc:name="Site" class="IfcSite material-null cut"><path d="M230.37089170035668,41.804106533527374 L-788.8969534534519,41.804106533527374"/></g><g class="material-brick cut 0vQHFjq6DDjRfeuf4$xxQH IfcWall"><path d="M15.933,-130.696 L15.433,-130.696 L15.433,-85.696 L15.933,-85.696 L27.433,-85.696 L27.933,-85.696 L27.933,-130.696 L27.433,-130.696 Z"/></g><g class="material-brick cut 0vQHFjq6DDjRfeuf4$xxQH IfcWall"><path d="M27.433,19.304 L27.933,19.304 L27.933,-20.696 L27.433,-20.696 L15.933,-20.696 L15.433,-20.696 L15.433,19.304 L15.933,19.304 Z"/></g><g class="3jRR2OFCnC3v485VhXEZFQ 3QvJTaeo13jR4q00Btfvpq material-null cut IfcWall"><path d="M-775.292,-48.196 L-788.061,-48.196 L-789.454,-48.196 L-789.454,33.062 L-789.454,41.804 L-788.061,41.804 L-775.292,41.804 L-775.292,-38.516 Z"/></g><g class="3jRR2OFCnC3v485VhXEZFQ 3QvJTaeo13jR4q00Btfvpq material-null cut IfcWall"><path d="M18.537,91.804 L2.933,91.804 L2.933,94.477 L2.933,97.804 L23.727,97.804 L40.433,97.804 L40.433,95.307 L40.433,91.804 Z"/></g><g class="cut material-concrete 0AYgth6drBEOllPZshHXux IfcWall"><path d="M36.683,61.804 L19.364,61.804 L6.683,61.804 L6.683,75.192 L6.683,91.804 L22.419,91.804 L36.683,91.804 L36.683,78.255 Z"/></g><g class="material-randomrubble cut 38yg6S11D6T8pfRZfWcKyh IfcWall"><path d="M7.183,61.804 L27.433,61.804 L27.933,61.804 L27.933,26.804 L27.433,26.804 L7.183,26.804 L6.683,26.804 L6.683,61.804 Z"/></g><g class="layer-material-Plaster IfcMaterialLayer material-brick cut 0vQHFjq6DDjRfeuf4$xxQH IfcWall"><path d="M15.433,-85.696 L15.933,-85.696 L15.933,-130.696 L15.433,-130.696 Z"/></g><g class="layer-material-Plaster IfcMaterialLayer material-brick cut 0vQHFjq6DDjRfeuf4$xxQH IfcWall"><path d="M27.433,-85.696 L27.933,-85.696 L27.933,-130.696 L27.433,-130.696 Z"/></g><g class="layer-material-Plaster IfcMaterialLayer material-brick cut 0vQHFjq6DDjRfeuf4$xxQH IfcWall"><path d="M15.933,-20.696 L15.433,-20.696 L15.433,19.304 L15.933,19.304 Z"/></g><g class="layer-material-Plaster IfcMaterialLayer material-brick cut 0vQHFjq6DDjRfeuf4$xxQH IfcWall"><path d="M27.433,19.304 L27.933,19.304 L27.933,-20.696 L27.433,-20.696 Z"/></g><g class="layer-material-Brick IfcMaterialLayer material-brick cut 0vQHFjq6DDjRfeuf4$xxQH IfcWall"><path d="M15.933,-130.696 L15.933,-85.696 L27.433,-85.696 L27.433,-130.696 Z"/></g><g class="layer-material-Brick IfcMaterialLayer material-brick cut 0vQHFjq6DDjRfeuf4$xxQH IfcWall"><path d="M15.933,-20.696 L15.933,19.304 L27.433,19.304 L27.433,-20.696 Z"/></g><g class="3jRR2OFCnC3v485VhXEZFQ 3QvJTaeo13jR4q00Btfvpq layer-material-Wall material-null IfcMaterialLayer cut IfcWall"><path d="M-775.292,-48.196 L-788.061,-48.196 L-789.454,-48.196 L-789.454,33.062 L-789.454,41.804 L-788.061,41.804 L-775.292,41.804 L-775.292,-38.516 Z"/></g><g class="3jRR2OFCnC3v485VhXEZFQ 3QvJTaeo13jR4q00Btfvpq layer-material-Wall material-null IfcMaterialLayer cut IfcWall"><path d="M18.537,91.804 L2.933,91.804 L2.933,94.477 L2.933,97.804 L23.727,97.804 L40.433,97.804 L40.433,95.307 L40.433,91.804 Z"/></g><g class="0AYgth6drBEOllPZshHXux layer-material-Wall material-concrete IfcMaterialLayer cut IfcWall"><path d="M36.683,61.804 L19.364,61.804 L6.683,61.804 L6.683,75.192 L6.683,91.804 L22.419,91.804 L36.683,91.804 L36.683,78.255 Z"/></g><g class="layer-material-Plaster material-randomrubble 38yg6S11D6T8pfRZfWcKyh IfcMaterialLayer cut IfcWall"><path d="M7.183,61.804 L7.183,26.804 L6.683,26.804 L6.683,61.804 Z"/></g><g class="layer-material-Plaster material-randomrubble 38yg6S11D6T8pfRZfWcKyh IfcMaterialLayer cut IfcWall"><path d="M27.433,26.804 L27.433,61.804 L27.933,61.804 L27.933,26.804 Z"/></g><g class="layer-material-Stone material-randomrubble 38yg6S11D6T8pfRZfWcKyh IfcMaterialLayer cut IfcWall"><path d="M27.433,26.804 L7.183,26.804 L7.183,61.804 L27.433,61.804 Z"/></g><g id="product-9020a2b7-0eb6-41ae-8ace-63c54e553a32" class="IfcBeam material-concrete projection" ifc:name="Beam" ifc:guid="2G8AAt3hP1hehEOyLELJeo">
            <path d="M27.9327,19.3041 L27.9326,19.3041"/>
            <path d="M27.9327,26.8041 L27.9326,26.8041"/>
            <path d="M27.9327,26.8041 L27.9327,19.3041"/>
            <path d="M-130.569,19.3041 L-140.067,19.3041"/>
            <path d="M-140.067,26.8041 L-140.067,19.3041"/>
        </g>
        <g id="product-5955e928-8bbd-48cc-9ac7-3c82da4e1afd" class="IfcBeam material-concrete projection" ifc:name="Beam" ifc:guid="1PLUaeYxr8p9h7F8BQJXhz">
            <path d="M6.6826,19.3041 L-130.569,19.3041"/>
            <path d="M-47.669,26.8041 L-130.569,26.8041"/>
            <path d="M-130.569,26.8041 L-130.569,19.3041"/>
            <path d="M6.6826,26.8041 L6.6826,19.3041"/>
        </g>
        <g id="product-64ff10fb-0e2b-4fa8-91d1-e1b0fb476f1b" class="IfcBeam material-concrete projection" ifc:name="Beam" ifc:guid="1a$n3x3YjFg97HuR3xHsyR">
            <path d="M27.9326,26.8041 L6.68264,26.8041"/>
            <path d="M27.9326,19.3041 L27.9326,26.8041"/>
            <path d="M27.9326,19.3041 L6.68264,19.3041"/>
            <path d="M6.68264,26.8041 L6.68264,19.3041"/>
        </g>
        <g ifc:guid="1a$n3x3YjFg97HuR3xHsyR" ifc:name="Beam" class="IfcBeam material-concrete cut"><path d="M7.182621071904391,26.804108917713165 L27.432607347934933,26.804108917713165 L27.93261879202673,26.804108917713165 L27.93261879202673,19.30410861968994 L27.432607347934933,19.30410861968994 L7.182621071904391,19.30410861968994 L6.682609627812594,19.30410861968994 L6.682609627812594,26.804108917713165 Z"/></g><g ifc:guid="1a$n3x3YjFg97HuR3xHsyR" ifc:name="Beam" ifc:layer-id="141591" class="IfcBeam material-concrete IfcMaterialLayer layer-material-Plaster cut"><path d="M27.432607347934933,26.804108917713165 L27.93261879202673,26.804108917713165 L27.93261879202673,19.30410861968994 L27.432607347934933,19.30410861968994 Z"/></g><g ifc:guid="1a$n3x3YjFg97HuR3xHsyR" ifc:name="Beam" ifc:layer-id="141592" class="IfcBeam material-concrete IfcMaterialLayer layer-material-Concrete cut"><path d="M27.432607347934933,19.30410861968994 L7.182621071904391,19.30410861968994 L7.182621071904391,26.804108917713165 L27.432607347934933,26.804108917713165 Z"/></g><g ifc:guid="1a$n3x3YjFg97HuR3xHsyR" ifc:name="Beam" ifc:layer-id="141593" class="IfcBeam material-concrete IfcMaterialLayer layer-material-Plaster cut"><path d="M6.682609627812594,26.804108917713165 L7.182621071904391,26.804108917713165 L7.182621071904391,19.30410861968994 L6.682609627812594,19.30410861968994 Z"/></g></g>
</svg>