<svg xmlns="http://www.w3.org/2000/svg" xmlns:xlink="http://www.w3.org/1999/xlink" xmlns:ifc="http://www.ifcopenshell.org/ns" width="2500mm" height="2500mm" viewBox="0 0 2500 2500">
    <defs>
        <marker id="arrowend" markerWidth="10" markerHeight="7" refX="10" refY="3.5" orient="auto">
          <polygon points="0 0, 10 3.5, 0 7"/>
        </marker>
        <marker id="arrowstart" markerWidth="10" markerHeight="7" refX="0" refY="3.5" orient="auto">
          <polygon points="10 0, 0 3.5, 10 7"/>
        </marker>
    </defs>
    <g ifc:name="Elevation WEST SECTION" class="section" ifc:plane="[[1.000000,0.000000,0.000000,0.000000],[0.000000,1.000000,0.000000,0.000000],[0.000000,0.000000,1.000000,0.000000],[0.000000,0.000000,0.000000,1.000000]]" ifc:matrix3="[[50.000001,0.000000,461.489264],[0.000000,50.000001,1422.500080],[0.000000,0.000000,1.000000]]">
        <g id="product-7649b6e9-da5c-4167-9c10-01e792bb70db" class="IfcColumn material-null projection" ifc:name="Column" ifc:guid="1sIRRfsbn1PvmG0UUIkt3R">
            <path d="M1200.5,1400 L1200.5,1400"/>
        </g>
        <g id="product-46c2d78d-91de-4500-8cbe-b559033fda69" class="IfcSlab material-null projection" ifc:name="Slab" ifc:guid="16mjUDaTv508o_jLa3Fzff">
            <path d="M1613,1400 L900.998,1400"/>
            <path d="M900.998,1422.5 L900.998,1400"/>
            <path d="M1613,1422.5 L900.998,1422.5"/>
            <path d="M1613,1400 L1613,1422.5"/>
        </g>
        <g id="product-bde19722-34a5-457e-ac10-511c623b21a2" class="IfcSlab material-null projection" ifc:name="Slab" ifc:guid="2zuPSYDAL5VgmGKHnYEo6Y">
            <path d="M1418.5,1250 L1308.5,1250"/>
            <path d="M1293.5,1250 L1292.12,1250"/>
            <path d="M1418.5,1255 L1308.5,1255"/>
            <path d="M1293.5,1255 L1292.12,1255"/>
            <path d="M1418.5,1255 L1418.5,1250"/>
            <path d="M1613,1255 L1613,1250"/>
            <path d="M1418.5,1250 L1613,1250"/>
            <path d="M1418.5,1255 L1418.5,1250"/>
            <path d="M1418.5,1255 L1613,1255"/>
            <path d="M900.998,1250 L900.998,1255"/>
            <path d="M900.998,1255 L1292.12,1255"/>
            <path d="M1292.12,1250 L1292.12,1255"/>
            <path d="M900.998,1250 L1292.12,1250"/>
        </g>
        <g id="product-f0c8cedc-e8f5-41e8-8daf-9aa5be9ac764" class="IfcSlab material-null projection" ifc:name="Slab" ifc:guid="3moCxSwFL1w8slcgM_ciTa">
            <path d="M1368.5,1289.8 L1368.5,1294.8"/>
            <path d="M1368.5,1294.8 L1430,1294.8"/>
            <path d="M1430,1294.8 L1430,1289.8"/>
            <path d="M1368.5,1289.8 L1430,1289.8"/>
        </g>
        <g id="product-015141c1-1f02-46fe-adf3-64fa66377ec3" class="IfcBeam material-null projection" ifc:name="Beam" ifc:guid="01KK717m96$gtpPFfcDtx3">
            <path d="M698.56,1282.93 L698.56,1282.93"/>
            <path d="M900.998,1282.93 L900.998,1282.93"/>
        </g>
        <g id="product-4abe58cb-2fa8-4a1c-bd23-e50257881de1" class="IfcDoor material-null projection" ifc:name="Door" ifc:guid="1AlbZBBwXA7BqZvG9NY1tX">
            <path d="M1510.8,1399.8 L1510.8,1400"/>
            <path d="M1510.55,1399.8 L1510.55,1400"/>
            <path d="M1508.05,1399.8 L1508.05,1400"/>
            <path d="M1507.8,1399.8 L1507.8,1400"/>
            <path d="M1513.05,1400 L1513.05,1399.8"/>
            <path d="M1509.3,1399.8 L1509.3,1400"/>
            <path d="M1509.3,1399.8 L1509.3,1400"/>
        </g>
        <g id="product-54580587-be3f-47e0-9833-bf3be60aeb24" class="IfcBeam material-null projection" ifc:name="Beam" ifc:guid="1KM0M7lZz7u9Wplplc2kia">
            <path d="M698.56,1282.93 L698.56,1275.43"/>
            <path d="M900.998,1282.93 L900.998,1275.43"/>
            <path d="M900.998,1275.43 L825.686,1275.43"/>
            <path d="M817.908,1275.43 L698.56,1275.43"/>
            <path d="M900.998,1282.93 L816.748,1282.93"/>
            <path d="M812.712,1282.93 L698.56,1282.93"/>
        </g>
        <g id="product-f561e40c-94c0-4732-8708-8f7bc082dbea" class="IfcBeam material-null projection" ifc:name="Beam" ifc:guid="3rOUGCbC17CeS8Ztl0Wjlg">
            <path d="M698.56,1282.93 L698.56,1282.93"/>
            <path d="M900.998,1282.93 L900.998,1282.93"/>
        </g>
        <g id="product-6c420a87-da15-4913-a170-f34f47c99a6c" class="IfcBeam material-null projection" ifc:name="Beam" ifc:guid="1iGWg7sXL94w5myqz7oPfi">
            <path d="M698.56,1282.93 L698.56,1282.93"/>
            <path d="M900.998,1282.93 L900.998,1282.93"/>
        </g>
        <g id="product-ac51a95a-7b5e-4829-90fe-fedb0cf71069" class="IfcBeam material-null projection" ifc:name="Beam" ifc:guid="2iKQbQUrv8AP3_$jiCzn1f">
            <path d="M698.56,1282.93 L698.56,1282.93"/>
            <path d="M900.998,1282.93 L900.998,1282.93"/>
        </g>
        <g id="product-8d18c65d-5082-447e-ac31-791e2f194e6f" class="IfcBeam material-null projection" ifc:name="Beam" ifc:guid="2D6CPTK894VgmnUHul6Kvl">
            <path d="M698.56,1282.93 L698.56,1282.93"/>
            <path d="M900.998,1282.93 L900.998,1282.93"/>
        </g>
        <g id="product-70cfade8-3905-42d6-ad64-4b9112c804c6" class="IfcBeam material-null projection" ifc:name="Beam" ifc:guid="1mpwteEGL2rgraIv4Io0J6">
            <path d="M698.56,1282.93 L698.56,1282.93"/>
            <path d="M900.998,1282.93 L900.998,1282.93"/>
        </g>
        <g id="product-ae5035b0-1c8b-4591-8dba-fe06963f93d5" class="IfcBeam material-null projection" ifc:name="Beam" ifc:guid="2kK3Mm78j5aOsw$WQMFvFL">
            <path d="M698.56,1282.93 L698.56,1282.93"/>
            <path d="M900.998,1282.93 L900.998,1282.93"/>
        </g>
        <g id="product-1f660bcc-aabb-431a-ad30-eb93701ba122" class="IfcBeam material-null projection" ifc:name="Beam" ifc:guid="0VPWlCghj36gqmwvDm6w4Y">
            <path d="M698.56,1282.93 L698.56,1282.93"/>
            <path d="M900.998,1282.93 L900.998,1282.93"/>
        </g>
        <g id="product-a05b64eb-0532-47b2-8084-efb39e3e6168" class="IfcBeam material-null projection" ifc:name="Beam" ifc:guid="2WMsJh1J97ie24xxEUFc5e">
            <path d="M698.56,1282.93 L698.56,1282.93"/>
            <path d="M900.998,1282.93 L900.998,1282.93"/>
        </g>
        <g id="product-692fdf17-057e-4a6b-9e9f-7e7272119be0" class="IfcColumn material-null projection" ifc:name="Column" ifc:guid="1fBzyN1NvAQvwVVd9o4PlW">
            <path d="M698.56,1282.93 L706.06,1282.93"/>
            <path d="M706.06,1332.5 L706.06,1282.93"/>
            <path d="M698.56,1332.5 L698.56,1282.93"/>
        </g>
        <g id="product-61b97a5a-769b-4fcb-a7af-79b5fb5b5072" class="IfcRoof material-Roof projection" ifc:name="Roof.004" ifc:guid="1XkNfQTfjFowUlURNxMr1o">
            <path d="M812.712,1279.8 L812.712,1286.32"/>
            <path d="M902.333,1211.12 L812.712,1286.32"/>
            <path d="M902.333,1204.59 L902.333,1211.12"/>
            <path d="M812.712,1279.8 L902.333,1204.59"/>
        </g>
        <g id="product-eccd59be-62be-405a-b8ab-10e2a67ae221" class="IfcRoof material-Roof projection" ifc:name="Roof" ifc:guid="3ipLc_Ohv0MhYh4EAcUk8X">
            <path d="M1175.5,1200 L1175.5,1110.31"/>
            <path d="M1175.5,1110.31 L1238.5,1110.31"/>
            <path d="M1250,1110.31 L1250,1110.31"/>
            <path d="M1175.5,1110.31 L1175.5,1107.56"/>
        </g>
        <g id="product-2d512dad-3b6c-4d05-8f6f-8119e5d51919" class="IfcSlab material-null projection" ifc:name="Slab" ifc:guid="0jKIsjEsnD1OzlWHdbrHaP">
            <path d="M900.998,1422 L706.742,1422"/>
            <path d="M706.742,1422.5 L706.742,1422"/>
            <path d="M900.998,1422.5 L706.742,1422.5"/>
            <path d="M900.998,1422 L900.998,1422.5"/>
        </g>
        <g id="product-73f3dceb-9d9c-42e9-9877-bd68dc0a836d" class="IfcRoof material-Roof projection" ifc:name="Roof" ifc:guid="1pyzphdPn2wPXtlMZS2eDj">
            <path d="M1082.71,1115.14 L1082.71,1120.14"/>
            <path d="M867.676,1120.14 L867.676,1115.14"/>
            <path d="M867.676,1120.14 L867.676,1115.14"/>
            <path d="M867.676,1115.14 L1082.71,1115.14"/>
            <path d="M1082.71,1120.14 L1082.71,1115.14"/>
            <path d="M867.676,1173.5 L911.589,1173.5"/>
            <path d="M1008.54,1173.5 L1082.71,1173.5"/>
            <path d="M1082.71,1120.14 L1082.71,1173.5"/>
            <path d="M1082.71,1120.14 L867.676,1120.14"/>
            <path d="M867.676,1173.5 L867.676,1120.14"/>
        </g>
        <g id="product-4e38dc7c-a860-49b0-acea-e740f856ab30" class="IfcRoof material-Roof projection" ifc:name="Roof" ifc:guid="1EEDnyg619iApgvq3uLgim">
            <path d="M1441.54,1073.97 L1441.54,1078.97"/>
            <path d="M1289.02,1078.97 L1289.02,1073.97"/>
            <path d="M1441.54,1073.97 L1365.28,1009.98"/>
            <path d="M1289.02,1078.97 L1365.28,1014.98"/>
            <path d="M1289.02,1078.97 L1289.02,1078.97"/>
            <path d="M1365.28,1014.98 L1441.54,1078.97"/>
            <path d="M1441.54,1078.97 L1441.54,1078.97"/>
            <path d="M1365.28,1009.98 L1365.28,1009.98"/>
            <path d="M1365.28,1009.98 L1289.02,1073.97"/>
            <path d="M1289.02,1073.97 L1289.02,1073.97"/>
        </g>
        <g id="product-7d47580c-eb24-4242-aa08-68e79b2d147d" class="IfcStairFlight material-null projection" ifc:name="StairFlight" ifc:guid="1zHrWCwoH2Gge8QEURBHHz">
            <path d="M900.998,1422.5 L900.998,1427.3"/>
            <path d="M900.998,1427.3 L918.949,1427.3"/>
            <path d="M928.549,1422.5 L918.949,1427.3"/>
        </g>
        <g id="product-e32a9697-28f9-42e8-8710-0ffd3163b637" class="IfcStairFlight material-null projection" ifc:name="StairFlight" ifc:guid="3ZAfQNAFb2w8SG3$qnOxOt">
            <path d="M870.998,1414.8 L885.998,1414.8"/>
            <path d="M885.998,1407.3 L900.998,1407.3"/>
            <path d="M900.998,1421.28 L888.949,1427.3"/>
            <path d="M870.998,1414.8 L870.998,1414.8"/>
            <path d="M870.998,1427.3 L870.998,1414.8"/>
            <path d="M885.998,1407.3 L885.998,1414.8"/>
            <path d="M885.998,1414.8 L885.998,1414.8"/>
            <path d="M885.998,1407.3 L885.998,1407.3"/>
            <path d="M900.998,1421.28 L900.998,1407.3"/>
            <path d="M870.998,1427.3 L870.998,1427.3"/>
            <path d="M870.998,1427.3 L888.949,1427.3"/>
            <path d="M888.949,1427.3 L888.949,1427.3"/>
            <path d="M870.998,1427.3 L870.998,1422.5"/>
            <path d="M870.998,1422 L870.998,1414.8"/>
            <path d="M870.998,1414.8 L885.998,1414.8"/>
            <path d="M885.998,1407.3 L885.998,1414.8"/>
            <path d="M885.998,1407.3 L900.998,1407.3"/>
            <path d="M900.998,1421.28 L899.549,1422"/>
            <path d="M898.549,1422.5 L888.949,1427.3"/>
            <path d="M870.998,1427.3 L888.949,1427.3"/>
        </g>
        <g id="product-f0b54081-59fb-4583-bcc8-224df05d526f" class="IfcStairFlight material-null projection" ifc:name="StairFlight" ifc:guid="3mjK21MVj5Wxp88atmNL9l">
            <path d="M1288,1427.3 L1288,1427.3"/>
            <path d="M1288,1427.3 L1213,1427.3"/>
            <path d="M1288,1427.3 L1288,1422.5"/>
            <path d="M1288,1422.5 L1288,1427.3"/>
            <path d="M1288,1427.3 L1288,1427.3"/>
            <path d="M1213,1422.5 L1213,1427.3"/>
        </g>
        <g id="product-c1c414fe-fd21-47cf-816d-34ac08b81d48" class="IfcFurniture material-null projection" ifc:name="Furniture" ifc:guid="31n1J_$I57pu5jDAm8k1r8">
            <path d="M1597.88,1354.8 L1592.63,1354.8"/>
            <path d="M1597.88,1399.8 L1592.63,1399.8"/>
            <path d="M1592.63,1399.8 L1597.88,1399.8"/>
            <path d="M1597.88,1354.8 L1592.63,1354.8"/>
            <path d="M1597.88,1354.8 L1597.88,1354.8"/>
            <path d="M1597.88,1354.8 L1597.88,1399.8"/>
            <path d="M1597.88,1399.8 L1597.88,1399.8"/>
            <path d="M1597.88,1399.8 L1597.88,1354.8"/>
            <path d="M1592.63,1354.8 L1592.63,1354.8"/>
            <path d="M1592.63,1354.8 L1592.63,1379.8"/>
            <path d="M1592.63,1354.8 L1592.63,1399.8"/>
            <path d="M1592.63,1379.8 L1560.38,1379.8"/>
            <path d="M1592.63,1399.8 L1560.38,1399.8"/>
            <path d="M1592.63,1399.8 L1560.38,1399.8"/>
            <path d="M1592.63,1379.8 L1560.38,1379.8"/>
            <path d="M1592.63,1379.8 L1592.63,1399.8"/>
            <path d="M1592.63,1379.8 L1592.63,1399.8"/>
            <path d="M1592.63,1379.8 L1592.63,1379.8"/>
            <path d="M1560.38,1379.8 L1560.38,1379.8"/>
            <path d="M1560.38,1379.8 L1560.38,1399.8"/>
            <path d="M1560.38,1399.8 L1560.38,1399.8"/>
            <path d="M1560.38,1379.8 L1560.38,1399.8"/>
            <path d="M1597.88,1368.3 L1560.38,1368.3"/>
            <path d="M1597.88,1368.3 L1597.88,1399.8"/>
            <path d="M1597.88,1399.8 L1560.38,1399.8"/>
            <path d="M1560.38,1368.3 L1560.38,1399.8"/>
        </g>
        <g id="product-bdf0898d-3e9c-4026-a1bb-32abfb9e2f69" class="IfcFurniture material-null projection" ifc:name="Furniture" ifc:guid="2zy8cDFfn09g6xCglxdYzf">
            <path d="M1541.82,1354.8 L1541.82,1354.8"/>
            <path d="M1541.82,1354.8 L1541.82,1368.3"/>
            <path d="M1541.82,1354.8 L1514.32,1354.8"/>
            <path d="M1514.32,1354.8 L1514.32,1379.8"/>
            <path d="M1541.82,1399.8 L1514.32,1399.8"/>
            <path d="M1541.82,1379.8 L1541.82,1399.8"/>
            <path d="M1541.82,1379.8 L1514.32,1379.8"/>
            <path d="M1514.32,1379.8 L1514.32,1399.8"/>
            <path d="M1545.57,1368.3 L1545.57,1368.3"/>
            <path d="M1545.57,1399.8 L1545.57,1399.8"/>
            <path d="M1545.57,1368.3 L1545.57,1368.3"/>
            <path d="M1545.57,1368.3 L1545.57,1399.8"/>
            <path d="M1545.57,1399.8 L1545.57,1399.8"/>
            <path d="M1545.57,1399.8 L1541.82,1399.8"/>
            <path d="M1545.57,1368.3 L1545.57,1399.8"/>
            <path d="M1545.57,1368.3 L1541.82,1368.3"/>
            <path d="M1541.82,1399.8 L1541.82,1368.3"/>
            <path d="M1514.32,1368.3 L1514.32,1368.3"/>
            <path d="M1514.32,1368.3 L1514.32,1368.3"/>
            <path d="M1514.32,1368.3 L1510.57,1368.3"/>
            <path d="M1514.32,1368.3 L1514.32,1399.8"/>
            <path d="M1514.32,1399.8 L1510.57,1399.8"/>
            <path d="M1510.57,1368.3 L1510.57,1399.8"/>
        </g>
        <g id="product-16e394bb-4889-4f3f-bc3d-83a06b3b6547" class="IfcWall material-null projection" ifc:name="Wall" ifc:guid="0MuvIxI8bFFxmzWw1hEsL7">
            <path d="M1781.07,1332.5 L1613,1332.5"/>
            <path d="M1547.79,1422.5 L1547.79,1422.5"/>
            <path d="M1781.07,1422.5 L1547.79,1422.5"/>
            <path d="M1790.42,1332.5 L1781.07,1332.5"/>
            <path d="M1781.07,1422.5 L1781.07,1332.5"/>
            <path d="M1790.42,1422.5 L1781.07,1422.5"/>
            <path d="M1790.42,1332.5 L1790.42,1422.5"/>
        </g>
        <g id="product-ec900b44-1c1a-4ebc-9f83-3a664ddef5a9" class="IfcFurniture material-null projection" ifc:name="Furniture" ifc:guid="3ia0j471fEl9_3EcPDtlMf">
            <path d="M1503.38,1399.8 L1453.38,1399.8"/>
        </g>
        <g id="product-bfde5da0-6937-4366-9dd1-9cf9dc8dbf4f" class="IfcWall material-null projection" ifc:name="Wall" ifc:guid="2$tbsWQJT3PftHdFdSZRzF">
            <path d="M706.781,1332.5 L697.781,1332.5"/>
            <path d="M697.781,1422.5 L697.781,1332.5"/>
            <path d="M706.781,1422.5 L697.781,1422.5"/>
            <path d="M706.781,1332.5 L706.781,1422.5"/>
        </g>
        <g id="product-623be5f4-748e-441b-804d-9c387a5f1bec" class="IfcSanitaryTerminal material-null projection" ifc:name="SanitaryTerminal" ifc:guid="1YE_NqT8v46u1Dd3XwNnli">
            <path d="M1601.5,1250 L1601.5,1250"/>
        </g>
        <g id="product-2f8e1221-1000-42e3-b19d-fe958594971e" class="IfcWall material-null projection" ifc:name="Wall" ifc:guid="0lZX8X4012ux6T$fM5b9SU">
            <path d="M907.498,1250 L900.998,1250"/>
            <path d="M907.498,1205 L907.498,1250"/>
            <path d="M907.498,1205 L900.998,1205"/>
            <path d="M900.998,1250 L900.998,1205"/>
        </g>
        <g id="product-8d98f86b-9b41-4b1e-85ae-7273f18b6dab" class="IfcWall material-null projection" ifc:name="Wall" ifc:guid="2DcFXhcq5B7eMkSdFnYssh">
            <path d="M1470,1105 L1430,1105"/>
            <path d="M1470,1250 L1470,1105"/>
        </g>
        <g id="product-647a956c-cd2d-4ef1-ad80-45f35f1da28c" class="IfcRoof material-Roof projection" ifc:name="Roof" ifc:guid="1aUfLipIrEyQs0HVDV7QAC">
            <path d="M1654.53,1288.63 L1614.21,1254.8"/>
            <path d="M1614.21,1254.8 L1614.21,1261.33"/>
            <path d="M1614.21,1261.33 L1654.53,1295.16"/>
            <path d="M1654.53,1288.63 L1654.53,1295.16"/>
        </g>
        <g id="product-a4b8cadf-f14e-4eca-b869-ad8914e8101d" class="IfcFurniture material-null projection" ifc:name="Furniture" ifc:guid="2akChVyKvEohXfhOaKw10T">
            <path d="M1058.61,1364.8 L1072.23,1364.8"/>
            <path d="M1094.73,1364.8 L1105.22,1364.8"/>
            <path d="M1107.72,1364.8 L1124.63,1364.8"/>
            <path d="M1124.63,1364.8 L1124.63,1379.8"/>
            <path d="M1130.5,1364.8 L1124.63,1364.8"/>
            <path d="M1130.5,1364.8 L1130.5,1399.8"/>
            <path d="M1058.61,1379.8 L1072.23,1379.8"/>
            <path d="M1094.73,1379.8 L1105.22,1379.8"/>
            <path d="M1107.72,1379.8 L1124.63,1379.8"/>
            <path d="M1130.5,1399.8 L1107.72,1399.8"/>
            <path d="M1105.22,1399.8 L1094.73,1399.8"/>
            <path d="M1092.23,1399.8 L1074.73,1399.8"/>
            <path d="M1072.23,1399.8 L1058.61,1399.8"/>
            <path d="M1056.11,1399.8 L1044.04,1399.8"/>
            <path d="M1130.5,1399.8 L1130.5,1399.8"/>
        </g>
        <g id="product-91b56c8c-c182-4453-859b-b21956cf2fd0" class="IfcStairFlight material-null projection" ifc:name="StairFlight" ifc:guid="2HjMoCmO94KuMRiXbMpo$G">
            <path d="M1338.5,1274 L1353.5,1274"/>
            <path d="M1293.5,1250 L1293.5,1264.17"/>
            <path d="M1353.5,1282 L1353.5,1274"/>
            <path d="M1353.5,1274 L1353.5,1274"/>
            <path d="M1293.5,1250 L1293.5,1250"/>
            <path d="M1293.5,1250 L1308.5,1250"/>
            <path d="M1353.5,1282 L1353.5,1282"/>
            <path d="M1353.5,1282 L1368.5,1282"/>
            <path d="M1308.5,1258 L1308.5,1250"/>
            <path d="M1308.5,1250 L1308.5,1250"/>
            <path d="M1308.5,1258 L1308.5,1258"/>
            <path d="M1308.5,1258 L1323.5,1258"/>
            <path d="M1323.5,1266 L1323.5,1258"/>
            <path d="M1323.5,1258 L1323.5,1258"/>
            <path d="M1293.5,1264.17 L1293.5,1264.17"/>
            <path d="M1351.31,1295 L1293.5,1264.17"/>
            <path d="M1323.5,1266 L1323.5,1266"/>
            <path d="M1323.5,1266 L1338.5,1266"/>
            <path d="M1351.31,1295 L1351.31,1295"/>
            <path d="M1351.31,1295 L1368.5,1295"/>
            <path d="M1338.5,1274 L1338.5,1274"/>
            <path d="M1338.5,1274 L1338.5,1266"/>
            <path d="M1338.5,1266 L1338.5,1266"/>
            <path d="M1368.5,1282 L1368.5,1282"/>
            <path d="M1368.5,1282 L1368.5,1295"/>
            <path d="M1368.5,1295 L1368.5,1295"/>
            <path d="M1368.5,1282 L1368.5,1289.8"/>
            <path d="M1368.5,1294.8 L1368.5,1295"/>
            <path d="M1368.5,1295 L1351.31,1295"/>
            <path d="M1293.5,1264.17 L1351.31,1295"/>
            <path d="M1293.5,1264.17 L1293.5,1250"/>
            <path d="M1308.5,1250 L1293.5,1250"/>
            <path d="M1308.5,1250 L1308.5,1258"/>
            <path d="M1323.5,1258 L1308.5,1258"/>
            <path d="M1323.5,1258 L1323.5,1266"/>
            <path d="M1338.5,1266 L1323.5,1266"/>
            <path d="M1338.5,1266 L1338.5,1274"/>
            <path d="M1353.5,1274 L1338.5,1274"/>
            <path d="M1353.5,1274 L1353.5,1282"/>
            <path d="M1368.5,1282 L1353.5,1282"/>
        </g>
        <g id="product-064355c5-e0a4-4cdd-bd4f-979866d86eaf" class="IfcBeam material-null projection" ifc:name="Beam" ifc:guid="06GrN5uAHCtRrFbvXcs6wl">
            <path d="M1126.8,1358.9 L1126.8,1358.9"/>
            <path d="M1126.8,1359.43 L1126.8,1359.43"/>
            <path d="M1126.8,1359.6 L1126.8,1359.6"/>
            <path d="M1126.8,1360.02 L1126.8,1360.02"/>
            <path d="M1126.8,1360.15 L1126.8,1360.15"/>
            <path d="M1126.8,1360.25 L1126.8,1360.25"/>
            <path d="M1126.8,1360.71 L1126.8,1360.71"/>
            <path d="M1126.8,1361.08 L1126.8,1361.08"/>
            <path d="M1126.8,1361.45 L1126.8,1361.45"/>
            <path d="M1126.8,1361.82 L1126.8,1361.82"/>
            <path d="M1126.8,1362.11 L1126.8,1362.11"/>
            <path d="M1126.8,1362.66 L1126.8,1362.66"/>
            <path d="M1126.8,1362.76 L1126.8,1362.76"/>
            <path d="M1126.8,1363.28 L1126.8,1363.28"/>
            <path d="M1126.8,1363.33 L1126.8,1363.33"/>
            <path d="M1126.8,1363.52 L1126.8,1363.52"/>
            <path d="M1126.8,1363.76 L1126.8,1363.76"/>
            <path d="M1126.8,1364 L1126.8,1364"/>
            <path d="M1126.8,1364.2 L1126.8,1364.2"/>
            <path d="M1126.8,1364.28 L1126.8,1364.28"/>
        </g>
        <g id="product-2aa3502a-0f3a-4b6a-94cd-1d8588b58317" class="IfcWall material-null projection" ifc:name="Wall" ifc:guid="0ger0g3pfBQfJD7OM8jOCN">
            <path d="M1430,1250 L1418.5,1250"/>
            <path d="M1430,1105 L1430,1250"/>
            <path d="M1430,1105 L1418.5,1105"/>
            <path d="M1418.5,1250 L1418.5,1105"/>
        </g>
        <g id="product-a3c00d63-a9d9-4d9e-aed6-3b3165d3f27e" class="IfcStairFlight material-null projection" ifc:name="StairFlight" ifc:guid="2Zm0rZgTbDdgxMEp5bq$9_">
            <path d="M1383.8,1298.79 L1383.8,1298.79"/>
            <path d="M1218.8,1390.83 L1218.8,1381.67"/>
            <path d="M1203.8,1390.83 L1218.8,1390.83"/>
            <path d="M1203.8,1390.83 L1203.8,1400"/>
            <path d="M1383.8,1298.79 L1243.55,1384.5"/>
            <path d="M1232.05,1391.53 L1218.19,1400"/>
            <path d="M1383.8,1294.8 L1383.8,1298.79"/>
            <path d="M1368.8,1294.8 L1368.8,1299.17"/>
            <path d="M1353.8,1299.17 L1368.8,1299.17"/>
            <path d="M1353.8,1299.17 L1353.8,1308.33"/>
            <path d="M1338.8,1308.33 L1353.8,1308.33"/>
            <path d="M1338.8,1308.33 L1338.8,1317.5"/>
            <path d="M1323.8,1317.5 L1338.8,1317.5"/>
            <path d="M1323.8,1317.5 L1323.8,1326.67"/>
            <path d="M1308.8,1326.67 L1323.8,1326.67"/>
            <path d="M1308.8,1326.67 L1308.8,1335.83"/>
            <path d="M1293.8,1335.83 L1308.8,1335.83"/>
            <path d="M1293.8,1335.83 L1293.8,1345"/>
            <path d="M1278.8,1345 L1293.8,1345"/>
            <path d="M1278.8,1345 L1278.8,1354.17"/>
            <path d="M1263.8,1354.17 L1278.8,1354.17"/>
            <path d="M1263.8,1354.17 L1263.8,1363.33"/>
            <path d="M1248.8,1363.33 L1263.8,1363.33"/>
            <path d="M1248.8,1363.33 L1248.8,1372.5"/>
            <path d="M1243.55,1372.5 L1248.8,1372.5"/>
            <path d="M1218.8,1381.67 L1232.05,1381.67"/>
        </g>
        <g id="product-e6d74090-2d2f-4b78-a47c-44720b95155c" class="IfcWindow material-null projection" ifc:name="Window" ifc:guid="3crq2GBIzBUAHyH78BbHLS">
            <path d="M1601.5,1335 L1601.5,1335"/>
        </g>
        <g id="product-539fd53b-4625-4cb1-b777-81e298589cff" class="IfcWindow material-null projection" ifc:name="Window" ifc:guid="1JdzKxHYLCiRTtWUAOM9p$">
            <path d="M1613,1180 L1613,1180"/>
            <path d="M1613,1147.5 L1613,1147.5"/>
            <path d="M1613,1182.5 L1613,1182.5"/>
            <path d="M1613,1150 L1613,1150"/>
            <path d="M1613,1150 L1613,1150"/>
            <path d="M1613,1180 L1613,1150"/>
            <path d="M1613,1180 L1613,1180"/>
            <path d="M1613,1145 L1613,1185"/>
            <path d="M1613,1145 L1613,1145"/>
            <path d="M1613,1145 L1613,1145"/>
            <path d="M1613,1185 L1613,1185"/>
            <path d="M1613,1185 L1613,1185"/>
            <path d="M1613,1185 L1613,1185"/>
            <path d="M1613,1145 L1613,1145"/>
            <path d="M1613,1145 L1613,1185"/>
            <path d="M1613,1147.5 L1613,1147.5"/>
            <path d="M1613,1182.5 L1613,1182.5"/>
        </g>
        <g id="product-f3664b30-7fcb-4a7e-94b9-65355422d59f" class="IfcWindow material-null projection" ifc:name="Window" ifc:guid="3pPaimVyjAVfIvPJLK8jMV">
            <path d="M1613,1295 L1613,1360"/>
            <path d="M1609.5,1360 L1609.5,1295"/>
            <path d="M1613,1360 L1613,1360"/>
            <path d="M1613,1360 L1609.5,1360"/>
            <path d="M1613,1297.5 L1613,1297.5"/>
            <path d="M1613,1357.5 L1613,1357.5"/>
            <path d="M1613,1357.5 L1613,1357.5"/>
            <path d="M1611,1297.5 L1613,1297.5"/>
            <path d="M1611,1297.5 L1611,1357.5"/>
            <path d="M1611,1357.5 L1613,1357.5"/>
            <path d="M1613,1357.5 L1613,1357.5"/>
            <path d="M1613,1297.5 L1613,1297.5"/>
            <path d="M1613,1360 L1613,1360"/>
            <path d="M1613,1360 L1613,1295"/>
            <path d="M1609.5,1360 L1609.5,1357.5"/>
            <path d="M1609.5,1297.5 L1609.5,1295"/>
            <path d="M1609.5,1295 L1613,1295"/>
            <path d="M1613,1295 L1613,1295"/>
            <path d="M1613,1295 L1613,1295"/>
            <path d="M1613,1297.5 L1609.5,1297.5"/>
            <path d="M1609.5,1297.5 L1609.5,1357.5"/>
            <path d="M1613,1357.5 L1613,1357.5"/>
            <path d="M1613,1357.5 L1613,1357.5"/>
            <path d="M1613,1357.5 L1609.5,1357.5"/>
        </g>
        <g id="product-44a91dec-b342-4619-8801-51040287b782" class="IfcWall material-null projection" ifc:name="Wall" ifc:guid="14gHtiiq966OW1KGG2XxU2">
            <path d="M1393.5,1399.8 L1393.5,1294.8"/>
            <path d="M1393.5,1399.8 L1393.5,1399.8"/>
        </g>
        <g id="product-187bb619-d87f-4f6c-af03-45472fb1ae3c" class="IfcDoor material-null projection" ifc:name="Door" ifc:guid="0OUxOPs7zFRAy3HKSliQuy">
            <path d="M1126.8,1364.8 L1126.8,1295"/>
            <path d="M1159.66,1393.5 L1130.5,1393.5"/>
            <path d="M1126.8,1295 L1126.8,1364.8"/>
            <path d="M1130.5,1396.5 L1159.66,1396.5"/>
            <path d="M1123.8,1364.8 L1123.8,1295"/>
            <path d="M1120.8,1364.8 L1120.8,1295"/>
            <path d="M1079.14,1295 L1079.14,1355"/>
            <path d="M1076.14,1355 L1076.14,1295"/>
            <path d="M1073.14,1355 L1073.14,1295"/>
            <path d="M1024.97,1400 L1024.97,1400"/>
            <path d="M1130.5,1396.5 L1159.66,1396.5"/>
            <path d="M1174.97,1400 L1174.97,1400"/>
            <path d="M1126.8,1364.8 L1126.8,1295"/>
        </g>
        <g id="product-8b6cb533-d6bb-47cb-b041-f35355e05eb6" class="IfcDoor material-null projection" ifc:name="Door" ifc:guid="2BRBKprhj7ox11yrDLu5ws">
            <path d="M912.498,1278.5 L912.498,1278.5"/>
            <path d="M912.498,1278.5 L910.998,1278.5"/>
            <path d="M912.498,1396.5 L912.498,1396.5"/>
            <path d="M912.498,1396.5 L910.998,1396.5"/>
            <path d="M912.498,1396.5 L912.498,1396.5"/>
            <path d="M912.498,1396.5 L912.498,1278.5"/>
            <path d="M910.998,1396.5 L910.998,1396.5"/>
            <path d="M909.998,1393.5 L909.998,1393.5"/>
            <path d="M910.498,1393.5 L910.498,1393.5"/>
            <path d="M909.998,1281.5 L909.998,1281.5"/>
            <path d="M910.498,1281.5 L910.498,1281.5"/>
            <path d="M910.498,1393.5 L910.498,1281.5"/>
            <path d="M910.498,1281.5 L909.998,1281.5"/>
            <path d="M909.998,1281.5 L909.998,1393.5"/>
            <path d="M910.498,1393.5 L909.998,1393.5"/>
            <path d="M910.998,1281.5 L910.498,1281.5"/>
            <path d="M909.998,1281.5 L910.498,1281.5"/>
            <path d="M909.998,1281.5 L909.498,1281.5"/>
            <path d="M910.998,1281.5 L909.498,1281.5"/>
            <path d="M910.998,1278.5 L909.498,1278.5"/>
            <path d="M910.998,1393.5 L909.498,1393.5"/>
            <path d="M909.498,1393.5 L909.998,1393.5"/>
            <path d="M910.498,1393.5 L909.998,1393.5"/>
            <path d="M910.498,1393.5 L910.998,1393.5"/>
            <path d="M910.998,1396.5 L909.498,1396.5"/>
            <path d="M910.998,1278.5 L910.998,1278.5"/>
            <path d="M910.998,1278.5 L910.998,1281.5"/>
            <path d="M910.998,1281.5 L910.998,1281.5"/>
            <path d="M910.998,1393.5 L910.998,1281.5"/>
            <path d="M910.998,1393.5 L910.998,1393.5"/>
            <path d="M910.998,1393.5 L910.998,1396.5"/>
            <path d="M910.998,1396.5 L910.998,1396.5"/>
            <path d="M909.498,1281.5 L909.498,1281.5"/>
            <path d="M909.498,1281.5 L909.498,1278.5"/>
            <path d="M909.498,1278.5 L909.498,1278.5"/>
            <path d="M909.498,1396.5 L909.498,1393.5"/>
            <path d="M909.498,1281.5 L909.498,1278.5"/>
            <path d="M909.498,1396.5 L909.498,1396.5"/>
            <path d="M909.498,1396.5 L909.498,1393.5"/>
            <path d="M909.498,1393.5 L909.498,1393.5"/>
            <path d="M909.498,1281.5 L909.498,1393.5"/>
            <path d="M908.998,1393.5 L908.998,1281.5"/>
            <path d="M908.498,1393.5 L908.498,1281.5"/>
            <path d="M908.998,1393.5 L908.998,1393.5"/>
            <path d="M908.498,1393.5 L908.498,1393.5"/>
            <path d="M908.998,1393.5 L908.498,1393.5"/>
            <path d="M908.998,1281.5 L908.498,1281.5"/>
            <path d="M908.998,1393.5 L908.998,1393.5"/>
            <path d="M907.998,1396.5 L909.498,1396.5"/>
            <path d="M910.998,1396.5 L909.498,1396.5"/>
            <path d="M910.998,1396.5 L912.498,1396.5"/>
            <path d="M912.498,1396.5 L912.498,1400"/>
            <path d="M912.498,1275 L912.498,1278.5"/>
            <path d="M912.498,1396.5 L912.498,1396.5"/>
            <path d="M912.498,1400 L907.998,1400"/>
            <path d="M907.998,1275 L912.498,1275"/>
            <path d="M912.498,1275 L912.498,1275"/>
            <path d="M912.498,1400 L912.498,1275"/>
            <path d="M912.498,1275 L912.498,1275"/>
            <path d="M912.498,1278.5 L910.998,1278.5"/>
            <path d="M909.498,1278.5 L910.998,1278.5"/>
            <path d="M909.498,1278.5 L907.998,1278.5"/>
            <path d="M912.498,1278.5 L912.498,1278.5"/>
            <path d="M912.498,1396.5 L912.498,1396.5"/>
            <path d="M910.998,1396.5 L907.998,1396.5"/>
            <path d="M909.498,1278.5 L907.998,1278.5"/>
            <path d="M907.998,1278.5 L907.998,1278.5"/>
            <path d="M907.998,1278.5 L907.998,1275"/>
            <path d="M907.998,1400 L907.998,1396.5"/>
            <path d="M907.998,1278.5 L907.998,1275"/>
            <path d="M907.998,1400 L907.998,1396.5"/>
            <path d="M907.998,1396.5 L907.998,1396.5"/>
            <path d="M907.998,1278.5 L907.998,1396.5"/>
            <path d="M909.998,1393.5 L909.998,1281.5"/>
            <path d="M910.498,1393.5 L909.998,1393.5"/>
            <path d="M909.998,1393.5 L909.998,1393.5"/>
            <path d="M909.998,1281.5 L910.498,1281.5"/>
            <path d="M909.998,1281.5 L909.998,1281.5"/>
            <path d="M909.998,1281.5 L910.498,1281.5"/>
            <path d="M909.998,1281.5 L909.998,1393.5"/>
            <path d="M909.998,1393.5 L910.498,1393.5"/>
            <path d="M910.498,1393.5 L910.498,1393.5"/>
            <path d="M910.498,1281.5 L910.498,1393.5"/>
            <path d="M910.498,1281.5 L910.498,1281.5"/>
            <path d="M910.498,1281.5 L910.498,1393.5"/>
        </g>
        <g id="product-4b6a02af-20d7-4548-83c3-aecf5f6a50f5" class="IfcWall material-null projection" ifc:name="Wall" ifc:guid="1BQWAl8DT5I8F3hizVQb3r">
            <path d="M1613,1105 L1613,1105"/>
            <path d="M1613,1250 L1613,1185"/>
            <path d="M1613,1145 L1613,1105"/>
        </g>
        <g id="product-90cf3b09-716a-431d-9d80-f5866e27d62d" class="IfcWall material-null projection" ifc:name="Wall" ifc:guid="2Gppi9SMf37Ps0zOPk9zOj">
            <path d="M1418.5,1284.82 L1393.5,1284.82"/>
        </g>
        <g id="product-de0fe092-3865-4e70-8dca-87d9637432fc" class="IfcWall material-null projection" ifc:name="Wall" ifc:guid="3U3_2IE6LES8tAXzbZT3By">
            <path d="M1405,1289.8 L1405,1284.82"/>
        </g>
        <g id="product-9b191466-d9ab-4d8f-b45c-a00de74f3020" class="IfcWall material-null projection" ifc:name="Wall" ifc:guid="2R6HHcsQjDZxHSe0tdJp0W">
            <path d="M1418.5,1105 L1250,1105"/>
            <path d="M1418.5,1250 L1308.5,1250"/>
            <path d="M1293.5,1250 L1292.12,1250"/>
            <path d="M1250,1250 L1250,1250"/>
        </g>
        <g id="product-59f7ba37-597c-4793-9dbc-44ced4975d81" class="IfcWall material-null projection" ifc:name="Wall" ifc:guid="1PzxetMNn7avsyHCxKbrs1">
            <path d="M1613,1360 L1613,1357.5"/>
            <path d="M1613,1297.5 L1613,1295"/>
            <path d="M1613,1295 L1613,1295"/>
            <path d="M1613,1360 L1613,1360"/>
            <path d="M1601.5,1255 L1601.5,1295"/>
            <path d="M1601.5,1295 L1613,1295"/>
            <path d="M1613,1255 L1613,1295"/>
            <path d="M1601.5,1255 L1613,1255"/>
            <path d="M1601.5,1400 L1613,1400"/>
            <path d="M1613,1360 L1613,1400"/>
            <path d="M1613,1360 L1601.5,1360"/>
            <path d="M1601.5,1360 L1601.5,1400"/>
        </g>
        <g id="product-d964e50a-0346-4220-b9e7-01aad3faac02" class="IfcWall material-null projection" ifc:name="Wall" ifc:guid="3PPEKA0qP28Bdd0QhJ_gm2">
            <path d="M1601.5,1250 L1613,1250"/>
            <path d="M1613,1105 L1613,1250"/>
            <path d="M1601.5,1105 L1613,1105"/>
            <path d="M1601.5,1105 L1601.5,1250"/>
        </g>
        <g id="product-4cd30ec6-1915-45c6-8d21-2938e4b571f7" class="IfcWall material-null projection" ifc:name="Wall" ifc:guid="1Cqmx66HL5neqXAJZajN7t">
            <path d="M1518.03,1399.8 L1518.03,1400"/>
        </g>
        <g id="product-9ba95bc6-a5bf-4116-9d4d-4be64c137268" class="IfcWall material-null projection" ifc:name="Wall" ifc:guid="2RgLl6fRz15frDI_PC4t9e">
            <path d="M1200.5,1400 L1200.5,1400"/>
        </g>
        <g id="product-396913ed-d063-4db5-ba68-e2913fefb691" class="IfcWall material-null projection" ifc:name="Wall" ifc:guid="0vQHFjq6DDjRfeuf4$xxQH">
            <path d="M900.998,1275 L912.498,1275"/>
            <path d="M912.498,1255 L912.498,1275"/>
            <path d="M900.998,1255 L912.498,1255"/>
            <path d="M900.998,1255 L900.998,1275"/>
            <path d="M900.998,1400 L900.998,1275"/>
            <path d="M912.498,1400 L912.498,1396.5"/>
            <path d="M912.498,1278.5 L912.498,1275"/>
            <path d="M912.498,1275 L912.498,1275"/>
        </g>
        <g id="product-72ac7f4e-c5e4-44f3-bc33-9c016f31c80c" class="IfcWall material-null projection" ifc:name="Wall" ifc:guid="1oh7zEnUH4yxmpd05lCSWC">
            <path d="M1243.55,1400 L1232.05,1400"/>
            <path d="M1243.55,1255 L1243.55,1400"/>
            <path d="M1243.55,1255 L1232.05,1255"/>
            <path d="M1232.05,1400 L1232.05,1255"/>
        </g>
        <g id="product-1b1bcc4c-5765-4a9a-89be-d093884a6137" class="IfcWall material-null projection" ifc:name="Wall" ifc:guid="0R6ynCLsLAcec_q9E8Ic4t">
            <path d="M1238.5,1250 L1250,1250"/>
            <path d="M1250,1105 L1250,1250"/>
            <path d="M1238.5,1105 L1250,1105"/>
            <path d="M1238.5,1105 L1238.5,1250"/>
        </g>
        <g id="product-642a4226-ab03-44c3-9538-cc65d746c515" class="IfcWall material-null projection" ifc:name="Wall" ifc:guid="1aAa8cgmD4mvKup6NNHiKL">
            <path d="M1430,1285 L1418.5,1285"/>
            <path d="M1430,1255 L1430,1285"/>
            <path d="M1430,1255 L1418.5,1255"/>
            <path d="M1418.5,1285 L1418.5,1255"/>
        </g>
        <g id="product-2e464b9a-fcf9-48bd-9794-9fe43b329d46" class="IfcWall material-null projection" ifc:name="Wall" ifc:guid="0kHakQ$Fb8lPUKd_GxCfr6">
            <path d="M1418.5,1255 L1418.5,1255"/>
            <path d="M1613,1295 L1613,1295"/>
        </g>
        <g id="product-acbe60b9-fc87-41c5-bb58-c41d9fdce363" class="IfcRoof material-Roof projection" ifc:name="Roof" ifc:guid="2ilc2v$8T1nRjOn1sVtEDZ">
            <path d="M1410.64,924.345 L1458.43,964.449"/>
            <path d="M1410.64,924.345 L1238.57,924.345"/>
            <path d="M1238.57,924.345 L1228.66,932.661"/>
            <path d="M1315.46,1060.44 L1315.46,1094.76"/>
            <path d="M1365.37,1018.63 L1315.46,1060.44"/>
            <path d="M1367.09,1018.63 L1365.37,1018.63"/>
            <path d="M1417,1060.44 L1367.09,1018.63"/>
            <path d="M1417,1094.76 L1417,1060.44"/>
            <path d="M1205.41,957.175 L1017.15,1115.14"/>
            <path d="M1658.58,1137.39 L1458.43,969.449"/>
            <path d="M1658.58,1137.39 L1613,1137.39"/>
            <path d="M1175.5,1137.39 L1082.71,1137.39"/>
            <path d="M1266.55,969.449 L1228.66,937.661"/>
            <path d="M1458.43,969.449 L1266.55,969.449"/>
            <path d="M1458.43,969.449 L1658.58,1137.39"/>
            <path d="M1658.58,1132.39 L1658.58,1137.39"/>
            <path d="M1658.58,1132.39 L1458.43,964.449"/>
            <path d="M1266.55,964.449 L1458.43,964.449"/>
            <path d="M1228.66,932.661 L1266.55,964.449"/>
            <path d="M990.632,1132.39 L1228.66,932.661"/>
            <path d="M990.632,1137.39 L990.632,1132.39"/>
            <path d="M1228.66,937.661 L990.632,1137.39"/>
        </g>
        <g id="product-2548f3c5-70bb-4dc9-b590-0f5372e2e3d3" class="IfcColumn material-null projection" ifc:name="Column" ifc:guid="0bIFF5SBjDoRMG3rDoukFJ">
            <path d="M1208,1200 L1208,1180.58"/>
            <path d="M1200.5,1400 L1200.5,1400"/>
            <path d="M1200.5,1200 L1200.5,1180.58"/>
        </g>
        <g id="product-01f9da0b-0ac8-4126-907a-ded0b4cf25ab" class="IfcWall material-null projection" ifc:name="Wall" ifc:guid="01_TeB2iX19f1wtj2qpoMh">
            <path d="M1008.54,1160 L918.089,1160"/>
            <path d="M911.589,1250 L911.589,1250"/>
            <path d="M1008.54,1250 L1008.54,1160"/>
        </g>
        <g id="product-871a4c82-d633-49f0-939c-bcacb5609124" class="IfcWall material-null projection" ifc:name="Wall" ifc:guid="276ao2rZD9y9ESlAorO94a">
            <path d="M1311.42,1105 L1311.42,1094.76"/>
            <path d="M1420.42,1105 L1420.42,1094.76"/>
        </g>
        <g id="product-b2488b45-9799-430c-8da4-a891d730443b" class="IfcWall material-null projection" ifc:name="Wall" ifc:guid="2oI8j5bvb338sag97NC4Gx">
            <path d="M1435,1399.8 L1435,1294.8"/>
            <path d="M1430,1294.8 L1435,1294.8"/>
            <path d="M1393.5,1399.8 L1393.5,1294.8"/>
            <path d="M1435,1399.8 L1393.5,1399.8"/>
        </g>
        <g id="product-ea324cfb-eddb-4732-88ae-cf7888aa8f89" class="IfcRailing material-Glass projection" ifc:name="Railing" ifc:guid="3gCapxxTj7CeYkptY8ge_9">
            <path d="M919.876,1250 L919.876,1200"/>
            <path d="M1332.25,1250 L1332.25,1250"/>
            <path d="M922.376,1200 L922.376,1250"/>
            <path d="M1250,1200 L1250,1200"/>
            <path d="M1238.5,1200 L1008.54,1200"/>
            <path d="M1418.5,1250 L1418.5,1250"/>
            <path d="M922.376,1250 L919.876,1250"/>
            <path d="M922.376,1200 L922.376,1200"/>
            <path d="M919.876,1200 L919.876,1200"/>
            <path d="M919.876,1200 L922.376,1200"/>
        </g>
        <g id="product-65f7972c-e661-4543-818a-5dd1682f2fee" class="IfcWall material-null projection" ifc:name="Wall" ifc:guid="1bzvSivc55Gu6ANT5eBo$k">
            <path d="M1601.5,1360 L1601.5,1295"/>
            <path d="M1435,1294.8 L1435,1255"/>
            <path d="M1453.38,1399.8 L1435,1399.8"/>
            <path d="M1453.38,1295 L1453.38,1399.8"/>
            <path d="M1503.38,1295 L1453.38,1295"/>
            <path d="M1503.38,1399.8 L1503.38,1295"/>
            <path d="M1601.5,1399.8 L1503.38,1399.8"/>
        </g>
        <g id="product-e26119b6-2a77-4365-8fc5-1cbc82eaf600" class="IfcWall material-null projection" ifc:name="Wall" ifc:guid="3YOHcsAdT3PO$57Bo2wlO0">
            <path d="M1393.5,1400 L1393.5,1399.8"/>
            <path d="M1393.5,1289.8 L1393.5,1255"/>
            <path d="M912.498,1275 L912.498,1255"/>
            <path d="M1044.04,1400 L1038.61,1400"/>
            <path d="M1036.11,1400 L1022.72,1400"/>
            <path d="M1020.22,1400 L1002.72,1400"/>
            <path d="M1000.22,1400 L990.225,1400"/>
            <path d="M987.725,1400 L912.498,1400"/>
            <path d="M1044.04,1295 L1044.04,1355"/>
            <path d="M1044.04,1380 L1044.04,1400"/>
            <path d="M1159.66,1295 L1044.04,1295"/>
            <path d="M1159.66,1400 L1159.66,1295"/>
            <path d="M1393.5,1400 L1243.55,1400"/>
            <path d="M1232.05,1400 L1218.19,1400"/>
            <path d="M1203.8,1400 L1159.66,1400"/>
        </g>
        <g id="product-5b140879-50d5-483a-995d-c508bec6d9a2" class="IfcFurniture material-null projection" ifc:name="Furniture" ifc:guid="1R50XvKDL8EfbTnGY_njcY">
            <path d="M1092.23,1380 L1092.23,1400"/>
            <path d="M1092.23,1380 L1094.73,1380"/>
            <path d="M1094.73,1400 L1094.73,1380"/>
            <path d="M1074.73,1380 L1074.73,1400"/>
            <path d="M1074.73,1380 L1072.23,1380"/>
            <path d="M1072.23,1400 L1072.23,1380"/>
            <path d="M1094.73,1380 L1094.73,1380"/>
            <path d="M1094.73,1400 L1094.73,1400"/>
            <path d="M1092.23,1400 L1092.23,1400"/>
            <path d="M1094.73,1380 L1094.73,1380"/>
            <path d="M1072.23,1400 L1072.23,1400"/>
            <path d="M1074.73,1400 L1074.73,1400"/>
            <path d="M1094.73,1377.5 L1094.73,1377.5"/>
            <path d="M1072.23,1377.5 L1072.23,1363.5"/>
            <path d="M1072.23,1361 L1072.23,1355"/>
            <path d="M1072.23,1355 L1094.73,1355"/>
            <path d="M1094.73,1377.5 L1094.73,1363.5"/>
            <path d="M1094.73,1361 L1094.73,1355"/>
            <path d="M1072.23,1380 L1094.73,1380"/>
            <path d="M1072.23,1380 L1072.23,1377.5"/>
            <path d="M1072.23,1377.5 L1094.73,1377.5"/>
            <path d="M1094.73,1380 L1094.73,1377.5"/>
            <path d="M1094.73,1377.5 L1094.73,1377.5"/>
            <path d="M1094.73,1380 L1094.73,1380"/>
            <path d="M1072.23,1380 L1072.23,1380"/>
            <path d="M1022.72,1377.5 L1000.22,1377.5"/>
            <path d="M1022.72,1380 L1022.72,1380"/>
            <path d="M1022.72,1377.5 L1022.72,1377.5"/>
            <path d="M1022.72,1377.5 L1022.72,1380"/>
            <path d="M1000.22,1380 L1000.22,1380"/>
            <path d="M1000.22,1377.5 L1000.22,1380"/>
            <path d="M1002.72,1380 L1022.72,1380"/>
            <path d="M1022.72,1355 L1000.22,1355"/>
            <path d="M1022.72,1355 L1022.72,1361"/>
            <path d="M1022.72,1363.5 L1022.72,1377.5"/>
            <path d="M1000.22,1355 L1000.22,1361"/>
            <path d="M1000.22,1363.5 L1000.22,1377.5"/>
            <path d="M1022.72,1377.5 L1022.72,1377.5"/>
            <path d="M1002.72,1400 L1002.72,1400"/>
            <path d="M1000.22,1400 L1000.22,1400"/>
            <path d="M1020.22,1400 L1020.22,1400"/>
            <path d="M1022.72,1400 L1022.72,1400"/>
            <path d="M1022.72,1380 L1022.72,1380"/>
            <path d="M1022.72,1380 L1022.72,1380"/>
            <path d="M1002.72,1400 L1002.72,1380"/>
            <path d="M1000.22,1400 L1000.22,1380"/>
            <path d="M1002.72,1380 L1000.22,1380"/>
            <path d="M1020.22,1400 L1020.22,1380"/>
            <path d="M1022.72,1400 L1022.72,1380"/>
            <path d="M1022.72,1380 L1020.22,1380"/>
            <path d="M1058.61,1377.5 L1036.11,1377.5"/>
            <path d="M1058.61,1380 L1058.61,1380"/>
            <path d="M1058.61,1377.5 L1058.61,1377.5"/>
            <path d="M1058.61,1377.5 L1058.61,1380"/>
            <path d="M1036.11,1380 L1036.11,1380"/>
            <path d="M1036.11,1377.5 L1036.11,1380"/>
            <path d="M1036.11,1380 L1058.61,1380"/>
            <path d="M1058.61,1355 L1036.11,1355"/>
            <path d="M1058.61,1355 L1058.61,1361"/>
            <path d="M1058.61,1363.5 L1058.61,1377.5"/>
            <path d="M1036.11,1355 L1036.11,1361"/>
            <path d="M1036.11,1363.5 L1036.11,1377.5"/>
            <path d="M1058.61,1377.5 L1058.61,1377.5"/>
            <path d="M1038.61,1400 L1038.61,1400"/>
            <path d="M1036.11,1400 L1036.11,1400"/>
            <path d="M1056.11,1400 L1056.11,1400"/>
            <path d="M1058.61,1400 L1058.61,1400"/>
            <path d="M1058.61,1380 L1058.61,1380"/>
            <path d="M1058.61,1380 L1058.61,1380"/>
            <path d="M1038.61,1400 L1038.61,1380"/>
            <path d="M1036.11,1400 L1036.11,1380"/>
            <path d="M1038.61,1380 L1036.11,1380"/>
            <path d="M1056.11,1400 L1056.11,1380"/>
            <path d="M1058.61,1400 L1058.61,1380"/>
            <path d="M1058.61,1380 L1056.11,1380"/>
            <path d="M987.725,1363.5 L990.225,1363.5"/>
            <path d="M987.725,1363.5 L987.725,1400"/>
            <path d="M990.225,1363.5 L990.225,1400"/>
            <path d="M990.225,1363.5 L990.225,1363.5"/>
            <path d="M1107.72,1363.5 L1107.72,1363.5"/>
            <path d="M1107.72,1363.5 L1105.22,1363.5"/>
            <path d="M1107.72,1363.5 L1107.72,1400"/>
            <path d="M1105.22,1363.5 L1105.22,1400"/>
            <path d="M1107.72,1363.5 L1107.72,1363.5"/>
            <path d="M1107.72,1361 L987.725,1361"/>
            <path d="M1107.72,1363.5 L987.725,1363.5"/>
            <path d="M1107.72,1361 L1107.72,1361"/>
            <path d="M1107.72,1363.5 L1107.72,1363.5"/>
            <path d="M1107.72,1363.5 L1107.72,1361"/>
            <path d="M987.725,1363.5 L987.725,1363.5"/>
            <path d="M987.725,1363.5 L987.725,1361"/>
            <path d="M987.725,1361 L987.725,1361"/>
            <path d="M990.225,1363.5 L1105.22,1363.5"/>
            <path d="M987.725,1361 L987.725,1363.5"/>
            <path d="M987.725,1361 L1107.72,1361"/>
            <path d="M1107.72,1363.5 L1107.72,1361"/>
        </g>
        <g id="product-e728d9e6-89df-423f-bd60-59210c10e710" class="IfcWall material-null projection" ifc:name="Wall" ifc:guid="3dADdcYTz2FxrWMI4C4ESG">
            <path d="M1601.5,1105 L1470,1105"/>
            <path d="M1515,1145 L1470,1145"/>
            <path d="M1515,1250 L1515,1145"/>
        </g>
        <g id="product-6de41fec-9418-4d8b-8c9f-8d8bf8e74c5d" class="IfcWall material-null projection" ifc:name="Wall" ifc:guid="1jv1$ib1XDYuoVZOluvqnT">
            <path d="M911.589,1250 L918.089,1250"/>
            <path d="M918.089,1250 L918.089,1117.1"/>
            <path d="M911.589,1117.1 L918.089,1117.1"/>
            <path d="M911.589,1250 L911.589,1117.1"/>
        </g>
        <g id="product-a5c015be-cd60-4714-b07f-d769c2966bae" class="IfcRoof material-Roof projection" ifc:name="Roof" ifc:guid="2bm1M_pM175B1$rsd2bckk">
            <path d="M1226.17,934.754 L1221.68,930.99"/>
            <path d="M1221.68,930.99 L1196.43,952.175"/>
            <path d="M1103.1,1035.5 L1008.17,1115.14"/>
            <path d="M911.589,1196.19 L901.088,1205"/>
            <path d="M900.998,1205.08 L878.999,1223.54"/>
            <path d="M911.589,1223.54 L907.498,1223.54"/>
            <path d="M900.998,1223.54 L887.538,1223.54"/>
            <path d="M879.759,1223.54 L878.999,1223.54"/>
            <path d="M1246.93,957.175 L1196.43,957.175"/>
            <path d="M1269.2,975.862 L1246.93,957.175"/>
            <path d="M1269.2,975.862 L1269.2,970.864"/>
            <path d="M1246.93,952.175 L1269.2,970.864"/>
            <path d="M1196.43,952.175 L1246.93,952.175"/>
            <path d="M998.674,1118.12 L1196.43,952.175"/>
            <path d="M1196.43,957.175 L998.674,1123.12"/>
            <path d="M998.674,1118.12 L998.674,1123.12"/>
            <path d="M954.717,1160 L998.674,1123.12"/>
            <path d="M998.674,1118.12 L996.257,1120.14"/>
            <path d="M950.677,1158.39 L948.758,1160"/>
            <path d="M954.459,1160 L954.459,1158.39"/>
            <path d="M912.266,1195.62 L912.266,1190.62"/>
            <path d="M878.999,1218.54 L912.266,1190.62"/>
            <path d="M878.999,1223.54 L878.999,1218.54"/>
            <path d="M912.266,1195.62 L878.999,1223.54"/>
        </g>
    <g ifc:guid="3ZAfQNAFb2w8SG3$qnOxOt" ifc:name="StairFlight" class="IfcStairFlight material-null cut"><path d="M870.997953414917,1422.2999930381775 L870.997953414917,1423.9045023918152 L870.997953414917,1427.3000001907349 L876.7583847045898,1427.3000001907349 L888.9487743377686,1427.3000001907349 L892.815351486206,1425.366711616516 L900.9979248046875,1421.2754249572754 L900.9979248046875,1416.7906999588013 L900.9979248046875,1407.2999954223633 L896.1844444274902,1407.2999954223633 L885.9979152679443,1407.2999954223633 L885.9979152679443,1409.7067594528198 L885.9979152679443,1414.8000001907349 L881.1844348907471,1414.8000001907349 L870.997953414917,1414.8000001907349 L870.997953414917,1417.2067523002625 Z"/></g><g ifc:guid="1XkNfQTfjFowUlURNxMr1o" ifc:name="Roof.004" class="IfcRoof material-Roof cut"><path d="M812.7115249633789,1282.3072522878647 L812.7115249633789,1286.3221734762192 L867.8395748138428,1240.0642238557339 L902.3329734802246,1211.1208528280258 L902.3329734802246,1207.1059316396713 L902.3329734802246,1204.5938104391098 L847.2048759460449,1250.8517702110112 L812.7115249633789,1279.7951430082321 Z"/></g><g ifc:guid="31n1J_$I57pu5jDAm8k1r8" ifc:name="Furniture" class="IfcFurniture material-null cut"><path d="M1593.2191848754883,1354.799997806549 L1597.883129119873,1354.799997806549"/><path d="M1597.883129119873,1399.8000025749207 L1593.2191848754883,1399.8000025749207"/><path d="M1597.883129119873,1399.8000025749207 L1597.883129119873,1394.7760701179504"/><path d="M1597.883129119873,1354.799997806549 L1597.883129119873,1394.7760701179504"/><path d="M1593.2191848754883,1354.799997806549 L1592.633056640625,1354.799997806549"/><path d="M1592.633056640625,1354.799997806549 L1592.633056640625,1359.8239421844482"/><path d="M1563.9836311340332,1379.799997806549 L1592.633056640625,1379.799997806549"/><path d="M1592.633056640625,1379.799997806549 L1592.633056640625,1397.5671410560608"/><path d="M1592.633056640625,1399.8000025749207 L1592.633056640625,1359.8239421844482"/><path d="M1592.633056640625,1399.8000025749207 L1563.9836311340332,1399.8000025749207"/><path d="M1592.633056640625,1399.8000025749207 L1592.633056640625,1397.5671410560608"/><path d="M1592.633056640625,1399.8000025749207 L1593.2191848754883,1399.8000025749207"/><path d="M1563.9836311340332,1379.799997806549 L1560.383129119873,1379.799997806549"/><path d="M1560.383129119873,1399.8000025749207 L1563.9836311340332,1399.8000025749207"/><path d="M1560.383129119873,1399.8000025749207 L1560.383129119873,1382.032871246338"/><path d="M1560.383129119873,1379.799997806549 L1560.383129119873,1382.032871246338"/></g><g ifc:guid="1aUfLipIrEyQs0HVDV7QAC" ifc:name="Roof" class="IfcRoof material-Roof cut"><path d="M1654.5305252075195,1295.1565355062485 L1654.5305252075195,1292.3924535512924 L1654.5305252075195,1288.6295050382614 L1637.4571800231934,1274.303324520588 L1614.214038848877,1254.8000056296587 L1614.214038848877,1258.5629664361477 L1614.214038848877,1261.3270364701748 L1637.4571800231934,1280.830356478691 Z"/></g><g ifc:guid="2HjMoCmO94KuMRiXbMpo$G" ifc:name="StairFlight" class="IfcStairFlight material-null cut"><path d="M1353.4987449645996,1276.6481965780258 L1353.4987449645996,1273.999984562397 L1343.464082479477,1273.999984562397 L1338.4986817836761,1273.999984562397 L1338.4986817836761,1268.6481907963753 L1338.4986817836761,1265.9999802708626 L1328.4641206264496,1265.9999802708626 L1323.4987199306488,1265.9999802708626 L1323.4987199306488,1260.648187249899 L1323.4987199306488,1257.9999767243862 L1313.4640634059906,1257.9999767243862 L1308.4986627101898,1257.9999767243862 L1308.4986627101898,1252.6481945067644 L1308.4986627101898,1249.9999840324151 L1298.4641045331955,1249.9999840324151 L1293.4987038373947,1249.9999840324151 L1293.4987038373947,1259.477110952139 L1293.4987038373947,1264.1666486859322 L1332.1737229824066,1284.7933381795883 L1351.311206817627,1294.9999779462814 L1362.809181213379,1294.9999779462814 L1368.498706817627,1294.9999779462814 L1368.498706817627,1291.655120253563 L1368.498706817627,1289.999982714653 L1368.498706817627,1284.6482008695602 L1368.498706817627,1281.9999784231186 L1358.4640502929688,1281.9999784231186 L1353.4987449645996,1281.9999784231186 Z"/></g><g ifc:guid="3pPaimVyjAVfIvPJLK8jMV" ifc:name="Window" class="IfcWindow material-null cut"><path d="M1609.5001220703125,1355.3800821304321 L1609.5001220703125,1357.584798336029"/><path d="M1613.0001068115234,1297.4151939153671 L1613.0001068115234,1355.3800821304321"/><path d="M1613.0001068115234,1355.3800821304321 L1613.0001068115234,1357.584798336029"/><path d="M1609.5001220703125,1355.3800821304321 L1609.5001220703125,1297.4151939153671"/><path d="M1613.0001068115234,1357.584798336029 L1613.0001068115234,1360.0000023841858"/><path d="M1609.5001220703125,1360.0000023841858 L1609.5001220703125,1357.584798336029"/><path d="M1609.5001220703125,1360.0000023841858 L1609.6092224121094,1360.0000023841858"/><path d="M1609.6092224121094,1360.0000023841858 L1613.0001068115234,1360.0000023841858"/><path d="M1613.0001068115234,1295.0000017881393 L1613.0001068115234,1297.4151939153671"/><path d="M1609.5001220703125,1297.4151939153671 L1609.5001220703125,1295.0000017881393"/><path d="M1609.5001220703125,1295.0000017881393 L1612.8910064697266,1295.0000017881393"/><path d="M1612.8910064697266,1295.0000017881393 L1613.0001068115234,1295.0000017881393"/></g><g ifc:guid="2BRBKprhj7ox11yrDLu5ws" ifc:name="Door" class="IfcDoor material-null cut"><path d="M909.9979400634766,1393.499994277954 L910.3742122650146,1393.499994277954"/><path d="M910.3742122650146,1393.499994277954 L910.4979515075684,1393.499994277954"/><path d="M909.9979400634766,1281.5000027418137 L910.1217269897461,1281.5000027418137"/><path d="M910.1217269897461,1281.5000027418137 L910.4979515075684,1281.5000027418137"/><path d="M910.9979629516602,1393.499994277954 L910.9979629516602,1394.192659854889"/><path d="M909.8692417144775,1393.499994277954 L910.9979629516602,1393.499994277954"/><path d="M910.9979629516602,1394.192659854889 L910.9979629516602,1396.50000333786"/><path d="M910.5790138244629,1396.50000333786 L910.9979629516602,1396.50000333786"/><path d="M910.6266975402832,1281.5000027418137 L910.9979629516602,1281.5000027418137"/><path d="M909.916877746582,1278.4999936819077 L910.9979629516602,1278.4999936819077"/><path d="M910.9979629516602,1278.4999936819077 L910.9979629516602,1279.3941468000412"/><path d="M910.9979629516602,1279.3941468000412 L910.9979629516602,1281.5000027418137"/><path d="M909.4979763031006,1396.50000333786 L910.5790138244629,1396.50000333786"/><path d="M909.4979763031006,1396.50000333786 L909.4979763031006,1394.192659854889"/><path d="M909.4979763031006,1394.192659854889 L909.4979763031006,1393.499994277954"/><path d="M909.4979763031006,1393.499994277954 L909.8692417144775,1393.499994277954"/><path d="M909.4979763031006,1278.4999936819077 L909.916877746582,1278.4999936819077"/><path d="M909.4979763031006,1281.5000027418137 L910.6266975402832,1281.5000027418137"/><path d="M909.4979763031006,1281.5000027418137 L909.4979763031006,1279.3941468000412"/><path d="M909.4979763031006,1279.3941468000412 L909.4979763031006,1278.4999936819077"/><path d="M912.4979496002197,1396.50000333786 L912.4979496002197,1398.459529876709"/><path d="M907.9979419708252,1398.459529876709 L907.9979419708252,1396.50000333786"/><path d="M907.9979419708252,1396.50000333786 L909.916877746582,1396.50000333786"/><path d="M909.916877746582,1396.50000333786 L912.4979496002197,1396.50000333786"/><path d="M912.4979496002197,1398.459529876709 L912.4979496002197,1400.0"/><path d="M907.9979419708252,1400.0 L907.9979419708252,1398.459529876709"/><path d="M907.9979419708252,1400.0 L910.5635643005371,1400.0"/><path d="M910.5635643005371,1400.0 L912.4979496002197,1400.0"/><path d="M912.4979496002197,1274.9999955296516 L912.4979496002197,1276.5404671430588"/><path d="M909.9323272705078,1274.9999955296516 L912.4979496002197,1274.9999955296516"/><path d="M912.4979496002197,1276.5404671430588 L912.4979496002197,1278.4999936819077"/><path d="M910.5790138244629,1278.4999936819077 L912.4979496002197,1278.4999936819077"/><path d="M907.9979419708252,1274.9999955296516 L909.9323272705078,1274.9999955296516"/><path d="M907.9979419708252,1278.4999936819077 L910.5790138244629,1278.4999936819077"/><path d="M907.9979419708252,1278.4999936819077 L907.9979419708252,1276.5404671430588"/><path d="M907.9979419708252,1276.5404671430588 L907.9979419708252,1274.9999955296516"/><path d="M909.9979877471924,1393.499994277954 L909.9979877471924,1309.2211067676544"/><path d="M909.9979877471924,1393.499994277954 L910.3742122650146,1393.499994277954"/><path d="M909.9979877471924,1309.2211067676544 L909.9979877471924,1281.5000027418137"/><path d="M909.9979877471924,1281.5000027418137 L910.1217269897461,1281.5000027418137"/><path d="M910.3742122650146,1393.499994277954 L910.4979515075684,1393.499994277954"/><path d="M910.1217269897461,1281.5000027418137 L910.4979515075684,1281.5000027418137"/><path d="M910.4979515075684,1309.2211067676544 L910.4979515075684,1281.5000027418137"/><path d="M910.4979515075684,1309.2211067676544 L910.4979515075684,1393.499994277954"/></g><g ifc:guid="1R50XvKDL8EfbTnGY_njcY" ifc:name="Furniture" class="IfcFurniture material-null cut"><path d="M1107.724666595459,1361.0000014305115 L1099.802017211914,1361.0000014305115"/><path d="M1107.724666595459,1363.4999990463257 L1099.802017211914,1363.4999990463257"/><path d="M1107.724666595459,1363.4999990463257 L1107.724666595459,1363.3349418640137"/><path d="M1107.724666595459,1363.3349418640137 L1107.724666595459,1361.0000014305115"/><path d="M987.7246856689453,1361.0000014305115 L1099.802017211914,1361.0000014305115"/><path d="M1099.802017211914,1363.4999990463257 L987.7246856689453,1363.4999990463257"/><path d="M987.7246856689453,1363.4999990463257 L987.7246856689453,1361.1650586128235"/><path d="M987.7246856689453,1361.0000014305115 L987.7246856689453,1361.1650586128235"/></g><g ifc:guid="1pyzphdPn2wPXtlMZS2eDj" ifc:name="Roof" class="IfcRoof material-Roof cut"><path d="M867.67578125,1115.1442646980286 L867.67578125,1119.3133473396301 L867.67578125,1120.144259929657 L903.410816192627,1120.144259929657 L1082.7104091644287,1120.144259929657 L1082.7104091644287,1119.3133473396301 L1082.7104091644287,1115.1442646980286 L1046.9754219055176,1115.1442646980286 Z"/></g><g ifc:guid="2ilc2v$8T1nRjOn1sVtEDZ" ifc:name="Roof" class="IfcRoof material-Roof cut"><path d="M1458.4338188171387,964.4490718841553 L1421.4442253112793,964.4490718841553 L1266.545481979847,964.4490718841553 L1228.6620572209358,932.6611042022705 L1203.5446137189865,953.7371158599854 L990.6320571899414,1132.3919892311096 L990.6320571899414,1134.7890973091125 L990.6320571899414,1137.391984462738 L1203.5446137189865,958.7371349334717 L1228.6620572209358,937.661075592041 L1266.545481979847,969.4490909576416 L1421.4442253112793,969.4490909576416 L1458.4338188171387,969.4490909576416 L1658.5803985595703,1137.391984462738 L1658.5803985595703,1135.3738903999329 L1658.5803985595703,1132.3919892311096 Z"/></g><g ifc:guid="3gCapxxTj7CeYkptY8ge_9" ifc:name="Railing" class="IfcRailing material-Glass cut"><path d="M922.3757743835449,1249.9999959533448 L922.3757743835449,1234.3777135014534"/><path d="M922.3757743835449,1249.9999959533448 L921.9852447509766,1249.9999959533448"/><path d="M919.8757648468018,1215.622267127037 L919.8757648468018,1249.9999959533448"/><path d="M921.9852447509766,1249.9999959533448 L921.1257934570312,1249.9999959533448"/><path d="M921.1257934570312,1249.9999959533448 L920.7352161407471,1249.9999959533448"/><path d="M920.7352161407471,1249.9999959533448 L919.8757648468018,1249.9999959533448"/><path d="M919.8757648468018,1200.0000089406967 L919.8757648468018,1215.622267127037"/><path d="M922.3757743835449,1234.3777135014534 L922.3757743835449,1200.0000089406967"/><path d="M922.3757743835449,1200.0000089406967 L920.6568717956543,1200.0000089406967"/><path d="M920.6568717956543,1200.0000089406967 L919.8757648468018,1200.0000089406967"/></g><g ifc:guid="2bm1M_pM175B1$rsd2bckk" ifc:name="Roof" class="IfcRoof material-Roof cut"><path d="M1269.200511276722,974.9955177307129 L1269.2027047276497,970.8637237548828 L1246.9306904822588,952.1753311157227 L1196.434062719345,952.1753311157227 L1179.3964803218842,966.4715766906738 L1048.365831375122,1076.4193654060364 L998.6743450164795,1118.1154370307922 L998.6743450164795,1122.0276951789856 L998.6743450164795,1123.1154561042786 L1048.365831375122,1081.4193367958069 L1179.3964803218842,971.4715480804443 L1196.434062719345,957.1753025054932 L1246.9306904822588,957.1753025054932 L1269.2000344395638,975.8615016937256 Z"/><path d="M912.2661590576172,1190.6205236911774 L907.2707653045654,1194.812136888504 L878.9985656738281,1218.5353368520737 L878.9985656738281,1221.3273853063583 L878.9985656738281,1223.535332083702 L907.2707653045654,1199.8121321201324 L912.2661590576172,1195.6205189228058 L912.2661590576172,1193.664389848709 Z"/></g><g ifc:guid="1Q_c7uVcTCngKTLSlSECoW" ifc:name="Site" class="IfcSite material-null cut"><path d="M1441.15571975708,1422.5000143051147 L698.5595226287842,1422.5000143051147"/><path d="M1790.4193878173828,1422.5000143051147 L1441.15571975708,1422.5000143051147"/></g><g class="IfcWall 0R6ynCLsLAcec_q9E8Ic4t 1aAa8cgmD4mvKup6NNHiKL 3PPEKA0qP28Bdd0QhJ_gm2 material-null 1jv1$ib1XDYuoVZOluvqnT 0MuvIxI8bFFxmzWw1hEsL7 1oh7zEnUH4yxmpd05lCSWC 0lZX8X4012ux6T$fM5b9SU cut 0ger0g3pfBQfJD7OM8jOCN 1PzxetMNn7avsyHCxKbrs1 0vQHFjq6DDjRfeuf4$xxQH 2$tbsWQJT3PftHdFdSZRzF"><path d="M1248.5567052848637,1249.999995953344 L1249.9999959533454,1249.999995953344 L1249.9999959533454,1158.1779301166534 L1249.9999959533454,1139.9798512458801 L1249.9999959533454,1127.5814175605774 L1249.9999959533454,1104.9999833106995 L1241.4582215249538,1104.9999833106995 L1238.4999714791775,1104.9999833106995 L1238.4999714791775,1127.5814175605774 L1238.4999714791775,1139.9798512458801 L1238.4999714791775,1158.1779301166534 L1238.4999714791775,1249.999995953344 Z"/></g><g class="IfcWall 0R6ynCLsLAcec_q9E8Ic4t 1aAa8cgmD4mvKup6NNHiKL 3PPEKA0qP28Bdd0QhJ_gm2 material-null 1jv1$ib1XDYuoVZOluvqnT 0MuvIxI8bFFxmzWw1hEsL7 1oh7zEnUH4yxmpd05lCSWC 0lZX8X4012ux6T$fM5b9SU cut 0ger0g3pfBQfJD7OM8jOCN 1PzxetMNn7avsyHCxKbrs1 0vQHFjq6DDjRfeuf4$xxQH 2$tbsWQJT3PftHdFdSZRzF"><path d="M911.5887641906738,1117.0983910560608 L911.5887641906738,1153.4571468830109 L911.5887641906738,1192.9353773593903 L911.5887641906738,1249.9999959533448 L914.2467498779297,1249.9999959533448 L918.0887699127197,1249.9999959533448 L918.0887699127197,1192.9353773593903 L918.0887699127197,1153.4571468830109 L918.0887699127197,1117.0983910560608 L916.9047355651855,1117.0983910560608 Z"/></g><g class="IfcWall 0R6ynCLsLAcec_q9E8Ic4t 1aAa8cgmD4mvKup6NNHiKL 3PPEKA0qP28Bdd0QhJ_gm2 material-null 1jv1$ib1XDYuoVZOluvqnT 0MuvIxI8bFFxmzWw1hEsL7 1oh7zEnUH4yxmpd05lCSWC 0lZX8X4012ux6T$fM5b9SU cut 0ger0g3pfBQfJD7OM8jOCN 1PzxetMNn7avsyHCxKbrs1 0vQHFjq6DDjRfeuf4$xxQH 2$tbsWQJT3PftHdFdSZRzF"><path d="M906.4290046691895,1205.0000041723251 L900.9979724884033,1205.0000041723251 L900.9979724884033,1212.400421500206 L900.9979724884033,1249.9999959533448 L906.4290046691895,1249.9999959533448 L907.4979782104492,1249.9999959533448 L907.4979782104492,1242.5995670259 L907.4979782104492,1205.0000041723251 Z"/></g><g class="IfcWall 0R6ynCLsLAcec_q9E8Ic4t 1aAa8cgmD4mvKup6NNHiKL 3PPEKA0qP28Bdd0QhJ_gm2 material-null 1jv1$ib1XDYuoVZOluvqnT 0MuvIxI8bFFxmzWw1hEsL7 1oh7zEnUH4yxmpd05lCSWC 0lZX8X4012ux6T$fM5b9SU cut 0ger0g3pfBQfJD7OM8jOCN 1PzxetMNn7avsyHCxKbrs1 0vQHFjq6DDjRfeuf4$xxQH 2$tbsWQJT3PftHdFdSZRzF"><path d="M905.9413433074951,1274.9999955296516 L912.4979496002197,1274.9999955296516 L912.4979496002197,1265.5546143651009 L912.4979496002197,1254.999991133809 L902.8891563415527,1254.999991133809 L900.9979248046875,1254.999991133809 L900.9979248046875,1265.5546143651009 L900.9979248046875,1274.9999955296516 Z"/></g><g class="IfcWall 0R6ynCLsLAcec_q9E8Ic4t 1aAa8cgmD4mvKup6NNHiKL 3PPEKA0qP28Bdd0QhJ_gm2 material-null 1jv1$ib1XDYuoVZOluvqnT 0MuvIxI8bFFxmzWw1hEsL7 1oh7zEnUH4yxmpd05lCSWC 0lZX8X4012ux6T$fM5b9SU cut 0ger0g3pfBQfJD7OM8jOCN 1PzxetMNn7avsyHCxKbrs1 0vQHFjq6DDjRfeuf4$xxQH 2$tbsWQJT3PftHdFdSZRzF"><path d="M1232.0506528019905,1400.0 L1242.7517376840115,1400.0 L1243.550630658865,1400.0 L1243.550630658865,1265.0730803608894 L1243.550630658865,1254.999991133809 L1242.7517376840115,1254.999991133809 L1232.0506528019905,1254.999991133809 L1232.0506528019905,1389.9269223213196 Z"/></g><g class="IfcWall 0R6ynCLsLAcec_q9E8Ic4t 1aAa8cgmD4mvKup6NNHiKL 3PPEKA0qP28Bdd0QhJ_gm2 material-null 1jv1$ib1XDYuoVZOluvqnT 0MuvIxI8bFFxmzWw1hEsL7 1oh7zEnUH4yxmpd05lCSWC 0lZX8X4012ux6T$fM5b9SU cut 0ger0g3pfBQfJD7OM8jOCN 1PzxetMNn7avsyHCxKbrs1 0vQHFjq6DDjRfeuf4$xxQH 2$tbsWQJT3PftHdFdSZRzF"><path d="M706.7806243896484,1422.5000023841858 L706.7806243896484,1357.4003338813782 L706.7806243896484,1332.499998807907 L700.2706527709961,1332.499998807907 L697.7806568145752,1332.499998807907 L697.7806568145752,1397.7268695831299 L697.7806568145752,1422.5000023841858 L700.2706527709961,1422.5000023841858 Z"/></g><g class="IfcWall 0R6ynCLsLAcec_q9E8Ic4t 1aAa8cgmD4mvKup6NNHiKL 3PPEKA0qP28Bdd0QhJ_gm2 material-null 1jv1$ib1XDYuoVZOluvqnT 0MuvIxI8bFFxmzWw1hEsL7 1oh7zEnUH4yxmpd05lCSWC 0lZX8X4012ux6T$fM5b9SU cut 0ger0g3pfBQfJD7OM8jOCN 1PzxetMNn7avsyHCxKbrs1 0vQHFjq6DDjRfeuf4$xxQH 2$tbsWQJT3PftHdFdSZRzF"><path d="M1418.498706817627,1139.6499752998352 L1418.498706817627,1249.9999959533436 L1421.2468147277832,1249.9999959533436 L1429.9986839294434,1249.9999959533436 L1429.9986839294434,1215.350016951561 L1429.9986839294434,1104.9999833106995 L1421.2468147277832,1104.9999833106995 L1418.498706817627,1104.9999833106995 Z"/></g><g class="IfcWall 0R6ynCLsLAcec_q9E8Ic4t 1aAa8cgmD4mvKup6NNHiKL 3PPEKA0qP28Bdd0QhJ_gm2 material-null 1jv1$ib1XDYuoVZOluvqnT 0MuvIxI8bFFxmzWw1hEsL7 1oh7zEnUH4yxmpd05lCSWC 0lZX8X4012ux6T$fM5b9SU cut 0ger0g3pfBQfJD7OM8jOCN 1PzxetMNn7avsyHCxKbrs1 0vQHFjq6DDjRfeuf4$xxQH 2$tbsWQJT3PftHdFdSZRzF"><path d="M1601.5000343322754,1214.8103326559067 L1601.5000343322754,1249.9999959533434 L1607.877254486084,1249.9999959533434 L1613.0000114440918,1249.9999959533434 L1613.0000114440918,1214.8103326559067 L1613.0000114440918,1204.7710746526718 L1613.0000114440918,1153.3662617206573 L1613.0000114440918,1144.9999928474426 L1613.0000114440918,1140.1896595954895 L1613.0000114440918,1104.9999833106995 L1607.877254486084,1104.9999833106995 L1601.5000343322754,1104.9999833106995 L1601.5000343322754,1140.1896595954895 L1601.5000343322754,1144.9999928474426 L1601.5000343322754,1153.3662617206573 L1601.5000343322754,1204.7710746526718 Z"/></g><g class="IfcWall 0R6ynCLsLAcec_q9E8Ic4t 1aAa8cgmD4mvKup6NNHiKL 3PPEKA0qP28Bdd0QhJ_gm2 material-null 1jv1$ib1XDYuoVZOluvqnT 0MuvIxI8bFFxmzWw1hEsL7 1oh7zEnUH4yxmpd05lCSWC 0lZX8X4012ux6T$fM5b9SU cut 0ger0g3pfBQfJD7OM8jOCN 1PzxetMNn7avsyHCxKbrs1 0vQHFjq6DDjRfeuf4$xxQH 2$tbsWQJT3PftHdFdSZRzF"><path d="M1418.498706817627,1285.0000113248825 L1420.0494766235352,1285.0000113248825 L1429.9986839294434,1285.0000113248825 L1429.9986839294434,1280.9543579816818 L1429.9986839294434,1255.000003054738 L1420.0494766235352,1255.000003054738 L1418.498706817627,1255.000003054738 L1418.498706817627,1259.0456567704678 Z"/></g><g class="IfcWall 0R6ynCLsLAcec_q9E8Ic4t 1aAa8cgmD4mvKup6NNHiKL 3PPEKA0qP28Bdd0QhJ_gm2 material-null 1jv1$ib1XDYuoVZOluvqnT 0MuvIxI8bFFxmzWw1hEsL7 1oh7zEnUH4yxmpd05lCSWC 0lZX8X4012ux6T$fM5b9SU cut 0ger0g3pfBQfJD7OM8jOCN 1PzxetMNn7avsyHCxKbrs1 0vQHFjq6DDjRfeuf4$xxQH 2$tbsWQJT3PftHdFdSZRzF"><path d="M1613.0000114440918,1295.0000017881393 L1613.0000114440918,1294.4889038801193 L1613.0000114440918,1254.999991133809 L1607.877254486084,1254.999991133809 L1601.5000343322754,1254.999991133809 L1601.5000343322754,1294.4889038801193 L1601.5000343322754,1295.0000017881393 L1612.6416206359863,1295.0000017881393 Z"/></g><g class="IfcWall 0R6ynCLsLAcec_q9E8Ic4t 1aAa8cgmD4mvKup6NNHiKL 3PPEKA0qP28Bdd0QhJ_gm2 material-null 1jv1$ib1XDYuoVZOluvqnT 0MuvIxI8bFFxmzWw1hEsL7 1oh7zEnUH4yxmpd05lCSWC 0lZX8X4012ux6T$fM5b9SU cut 0ger0g3pfBQfJD7OM8jOCN 1PzxetMNn7avsyHCxKbrs1 0vQHFjq6DDjRfeuf4$xxQH 2$tbsWQJT3PftHdFdSZRzF"><path d="M1790.4194831848145,1422.5000023841858 L1790.4194831848145,1344.2249476909637 L1790.4194831848145,1332.499998807907 L1789.198112487793,1332.499998807907 L1781.0677528381348,1332.499998807907 L1781.0677528381348,1344.7659194469452 L1781.0677528381348,1422.5000023841858 L1789.198112487793,1422.5000023841858 Z"/></g><g class="IfcWall 0R6ynCLsLAcec_q9E8Ic4t 1aAa8cgmD4mvKup6NNHiKL 3PPEKA0qP28Bdd0QhJ_gm2 material-null 1jv1$ib1XDYuoVZOluvqnT 0MuvIxI8bFFxmzWw1hEsL7 1oh7zEnUH4yxmpd05lCSWC 0lZX8X4012ux6T$fM5b9SU cut 0ger0g3pfBQfJD7OM8jOCN 1PzxetMNn7avsyHCxKbrs1 0vQHFjq6DDjRfeuf4$xxQH 2$tbsWQJT3PftHdFdSZRzF"><path d="M1613.0000114440918,1400.0 L1613.0000114440918,1360.5111002922058 L1613.0000114440918,1360.0000023841858 L1601.8584251403809,1360.0000023841858 L1601.5000343322754,1360.0000023841858 L1601.5000343322754,1360.5111002922058 L1601.5000343322754,1400.0 L1607.877254486084,1400.0 Z"/></g><g class="material-null 16mjUDaTv508o_jLa3Fzff 0jKIsjEsnD1OzlWHdbrHaP cut 3moCxSwFL1w8slcgM_ciTa IfcSlab 2zuPSYDAL5VgmGKHnYEo6Y"><path d="M1418.498706817627,1250.75462651439 L1418.498706817627,1255.000003054738 L1432.1011543273926,1255.000003054738 L1612.9999160766602,1255.000003054738 L1612.9999160766602,1252.2447306662798 L1612.9999160766602,1250.0000078742723 L1432.1011543273926,1250.0000078742723 L1418.498706817627,1250.0000078742723 Z"/></g><g class="material-null 16mjUDaTv508o_jLa3Fzff 0jKIsjEsnD1OzlWHdbrHaP cut 3moCxSwFL1w8slcgM_ciTa IfcSlab 2zuPSYDAL5VgmGKHnYEo6Y"><path d="M942.9162979125977,1250.0000078742737 L900.9978771209717,1250.0000078742737 L900.9978771209717,1250.8222778327763 L900.9978771209717,1255.000003054738 L942.9162979125977,1255.000003054738 L1008.9593410491943,1255.000003054738 L1226.393361389637,1255.000003054738 L1281.3069313764572,1255.000003054738 L1292.1246498823166,1255.000003054738 L1292.1246498823166,1253.7159997969866 L1292.1246498823166,1250.000007874273 L1281.3069313764572,1250.000007874273 L1226.393361389637,1250.000007874273 L1008.9593410491943,1250.0000078742737 Z"/></g><g class="material-null 16mjUDaTv508o_jLa3Fzff 0jKIsjEsnD1OzlWHdbrHaP cut 3moCxSwFL1w8slcgM_ciTa IfcSlab 2zuPSYDAL5VgmGKHnYEo6Y"><path d="M1368.498706817627,1289.8000091314316 L1368.498706817627,1294.1155403852463 L1368.498706817627,1294.80000436306 L1421.5797424316406,1294.80000436306 L1429.9986839294434,1294.80000436306 L1429.9986839294434,1290.4844731092453 L1429.9986839294434,1289.8000091314316 L1421.5797424316406,1289.8000091314316 Z"/></g><g class="material-null 16mjUDaTv508o_jLa3Fzff 0jKIsjEsnD1OzlWHdbrHaP cut 3moCxSwFL1w8slcgM_ciTa IfcSlab 2zuPSYDAL5VgmGKHnYEo6Y"><path d="M1115.3213500976562,1400.0 L991.7506217956543,1400.0 L963.9303684234619,1400.0 L942.9162979125977,1400.0 L900.9978771209717,1400.0 L900.9978771209717,1418.7997817993164 L900.9978771209717,1422.000014781952 L802.4032115936279,1422.000014781952 L706.742000579834,1422.000014781952 L706.742000579834,1422.24622964859 L706.742000579834,1422.5000143051147 L802.4032115936279,1422.5000143051147 L900.9978771209717,1422.5000143051147 L900.9978771209717,1422.5000023841858 L942.9162979125977,1422.5000023841858 L963.9303684234619,1422.5000023841858 L991.7506217956543,1422.5000023841858 L1115.3213500976562,1422.5000023841858 L1357.7689170837402,1422.5000023841858 L1471.0779190063477,1422.5000023841858 L1571.921443939209,1422.5000023841858 L1612.9999160766602,1422.5000023841858 L1612.9999160766602,1412.3987197875977 L1612.9999160766602,1400.0 L1571.921443939209,1400.0 L1471.0779190063477,1400.0 L1357.7689170837402,1400.0 Z"/></g></g>
</svg>