<svg xmlns="http://www.w3.org/2000/svg" xmlns:xlink="http://www.w3.org/1999/xlink" xmlns:ifc="http://www.ifcopenshell.org/ns" width="300mm" height="149.153mm" viewBox="0 0 300 149.153">
    <defs>
        <marker id="arrowend" markerWidth="10" markerHeight="7" refX="10" refY="3.5" orient="auto">
          <polygon points="0 0, 10 3.5, 0 7"/>
        </marker>
        <marker id="arrowstart" markerWidth="10" markerHeight="7" refX="0" refY="3.5" orient="auto">
          <polygon points="10 0, 0 3.5, 10 7"/>
        </marker>
    </defs>
    <g ifc:name="Elevation WEST TOILET" class="section" ifc:plane="[[1.000000,0.000000,0.000000,0.000000],[0.000000,1.000000,0.000000,0.000000],[0.000000,0.000000,1.000000,0.000000],[0.000000,0.000000,0.000000,1.000000]]" ifc:matrix3="[[50.000001,0.000000,-1312.804046],[0.000000,50.000001,80.323446],[0.000000,0.000000,1.000000]]">
        <g id="product-0d42ff74-021e-4753-a4ad-33928113dbee" class="IfcSanitaryTerminal material-null projection" ifc:name="SanitaryTerminal" ifc:guid="0DGlzq0Xv7KwIjCvA14zlk">
            <path d="M66.9348,57.6234 L21.9348,57.6234"/>
            <path d="M66.9348,-47.3766 L66.9348,57.6234"/>
            <path d="M66.9348,-47.3766 L21.9348,-47.3766"/>
            <path d="M21.9348,57.6234 L21.9348,-47.3766"/>
        </g>
        <g id="product-b9343ddc-aa67-4b78-8bd9-c5452550918b" class="IfcSanitaryTerminal material-null projection" ifc:name="SanitaryTerminal" ifc:guid="2vD3tSgcTBU8lPnKKbK96B">
            <path d="M109.694,7.82339 L109.694,2.62339"/>
            <path d="M109.884,2.62339 L109.884,10.1234"/>
            <path d="M109.779,2.62339 L109.884,2.62339"/>
            <path d="M109.715,2.62339 L109.779,2.62339"/>
            <path d="M109.694,2.62339 L109.715,2.62339"/>
            <path d="M109.884,2.62339 L139.503,2.62339"/>
            <path d="M109.884,10.1234 L139.503,10.1234"/>
            <path d="M139.503,2.62339 L139.503,10.1234"/>
            <path d="M139.673,2.62339 L139.694,2.62339"/>
            <path d="M139.609,2.62339 L139.673,2.62339"/>
            <path d="M139.503,2.62339 L139.609,2.62339"/>
            <path d="M139.694,7.82339 L139.694,2.62339"/>
            <path d="M139.694,2.62339 L139.694,2.62339"/>
            <path d="M139.694,2.62339 L139.694,2.62339"/>
        </g>
        <g id="product-3f3b436a-58d3-4dd5-a77d-f566898c9e95" class="IfcDoor material-null projection" ifc:name="Door" ifc:guid="0$EqDgMDDDrQTzzMQ9Z9wL">
            <path d="M158.434,-48.4266 L158.434,-48.4266"/>
        </g>
        <g id="product-34323c8c-c353-412c-9318-154a80cef67a" class="IfcSanitaryTerminal material-null projection" ifc:name="SanitaryTerminal" ifc:guid="0qCZoCmrD1B9CO5Kg0plPw">
            <path d="M98.9657,47.6234 L92.3343,47.6234"/>
            <path d="M86.6974,47.6234 L78.9657,47.6234"/>
            <path d="M98.9657,45.1234 L98.9657,47.6234"/>
            <path d="M98.9657,45.1234 L92.3343,45.1234"/>
            <path d="M86.6974,45.1234 L78.9657,45.1234"/>
            <path d="M78.9657,47.6234 L78.9657,45.1234"/>
            <path d="M98.9657,45.1234 L92.3343,45.1234"/>
            <path d="M86.6974,45.1234 L78.9657,45.1234"/>
            <path d="M98.9657,37.6234 L98.9657,45.1234"/>
            <path d="M98.9657,37.6234 L92.3343,37.6234"/>
            <path d="M86.6974,37.6234 L78.9657,37.6234"/>
            <path d="M78.9657,45.1234 L78.9657,37.6234"/>
        </g>
        <g id="product-dae53764-a320-43b5-b134-0002f7a79cf4" class="IfcWall material-null projection" ifc:name="Wall" ifc:guid="3QvJTaeo13jR4q00Btfvpq">
            <path d="M544.461,-9.67661 L280.433,-9.67663"/>
            <path d="M544.461,80.3234 L279.933,80.3234"/>
            <path d="M556.118,-9.67661 L544.461,-9.67661"/>
            <path d="M544.461,80.3234 L544.461,-9.67661"/>
            <path d="M556.118,80.3234 L544.461,80.3234"/>
            <path d="M556.118,-9.67661 L556.118,80.3234"/>
        </g>
        <g id="product-e72042f2-1516-454e-9829-d15a0d41f9c6" class="IfcWall material-null projection" ifc:name="Wall" ifc:guid="3d84Bo5HP5JfWfqLeDGVd6">
            <path d="M170.934,130.323 L170.934,130.323"/>
            <path d="M292.933,130.323 L292.933,130.323"/>
        </g>
        <g id="product-17c2eae3-04f6-494e-aa29-970e9ff8195b" class="IfcWall material-null projection" ifc:name="Wall" ifc:guid="0NmkhZ1FP9JgefbmwV_1bR">
            <path d="M292.933,136.323 L292.933,130.323"/>
        </g>
        <g id="product-b891bd62-9789-4e2d-a1af-bd9bf0e2a451" class="IfcWall material-null projection" ifc:name="Wall" ifc:guid="2uaRrYbubEBQ6llPlmugHH">
            <path d="M167.185,130.323 L167.185,130.323"/>
            <path d="M170.934,136.323 L170.934,136.323"/>
            <path d="M133.434,130.323 L133.434,130.323"/>
            <path d="M-65.6056,130.323 L-65.6056,130.323"/>
            <path d="M-28.1056,130.323 L-28.1056,130.323"/>
        </g>
        <g id="product-781b6950-ca21-4d30-9044-17960526544b" class="IfcWall material-null projection" ifc:name="Wall" ifc:guid="1u6sbGoY5DC9145vO59bHB">
            <path d="M-3.06519,130.323 L-199.565,130.323"/>
            <path d="M-3.06519,136.323 L-199.565,136.323"/>
            <path d="M-199.565,136.323 L-199.565,130.323"/>
            <path d="M-3.06514,136.323 L-3.06519,136.323"/>
            <path d="M-3.06519,136.323 L-3.06519,130.323"/>
        </g>
        <g id="product-798f1061-a81a-4043-9314-a8756016ebd8" class="IfcWall material-null projection" ifc:name="Wall" ifc:guid="1vZn1Xg1f0GvCKg7LW5klO">
            <path d="M34.4349,136.323 L-3.06514,136.323"/>
            <path d="M34.4349,130.323 L34.4349,136.323"/>
            <path d="M34.4349,130.323 L-3.06514,130.323"/>
            <path d="M-3.06514,136.323 L-3.06514,130.323"/>
        </g>
        <g id="product-8ac5d6fa-f4a7-4415-9b95-adcf7b8110b7" class="IfcWall material-null projection" ifc:name="Wall" ifc:guid="2AnTRwzAT45PkLhSzxWH2t">
            <path d="M170.934,136.323 L133.434,136.323"/>
            <path d="M170.934,130.323 L170.934,136.323"/>
            <path d="M170.934,130.323 L133.434,130.323"/>
            <path d="M133.434,136.323 L133.434,130.323"/>
        </g>
        <g id="product-49a6b6db-d40e-4e49-a47e-ce7ca572266a" class="IfcWall material-null projection" ifc:name="Wall" ifc:guid="19fhRRr0vEIQH_pdobSYPg">
            <path d="M133.434,136.323 L34.4348,136.323"/>
            <path d="M133.434,130.323 L133.434,136.323"/>
            <path d="M133.434,130.323 L34.4348,130.323"/>
            <path d="M34.4348,136.323 L34.4348,130.323"/>
        </g>
        <g id="product-86e69032-ab82-4c0c-8042-d8f9f6b42476" class="IfcSlab material-null projection" ifc:name="Slab" ifc:guid="26vf0ogu9C3812sFdsj2Hs">
            <path d="M-103.606,55.3234 L-101.639,55.3234"/>
            <path d="M-103.606,57.8234 L-101.639,57.8234"/>
            <path d="M-103.606,57.8234 L-103.606,55.3234"/>
            <path d="M-314.605,55.3234 L-160.565,55.3234"/>
            <path d="M-151.639,55.3234 L-103.606,55.3234"/>
            <path d="M-314.605,57.8234 L-160.565,57.8234"/>
            <path d="M-151.639,57.8234 L-103.606,57.8234"/>
            <path d="M-103.606,55.3234 L-103.606,55.3234"/>
            <path d="M-314.605,57.8234 L-314.605,55.3234"/>
        </g>
        <g id="product-645db62e-aa49-44d8-beaa-cfe289a8cfd7" class="IfcWall material-null projection" ifc:name="Wall" ifc:guid="1aNROkgab4sBwgp_A9gC$N">
            <path d="M292.933,130.323 L257.434,130.323"/>
            <path d="M219.934,130.323 L170.934,130.323"/>
            <path d="M292.933,136.323 L170.934,136.323"/>
            <path d="M170.934,136.323 L170.934,136.323"/>
            <path d="M292.933,136.323 L292.933,130.323"/>
        </g>
        <g id="product-a904d33a-ca3d-4d01-b0e0-8ef1df417b54" class="IfcWall material-null projection" ifc:name="Wall" ifc:guid="2f1DCwoZrD0R3WZl7VGNjK">
            <path d="M257.434,136.323 L219.934,136.323"/>
            <path d="M257.434,130.323 L257.434,136.323"/>
            <path d="M257.434,130.323 L219.934,130.323"/>
            <path d="M219.934,136.323 L219.934,130.323"/>
        </g>
        <g id="product-40c460a9-2ab0-4756-9b51-72d2c4343204" class="IfcSlab material-null projection" ifc:name="Slab" ifc:guid="10n62fAh17LfjHSjB4D384">
            <path d="M145.934,57.8234 L145.934,57.8234"/>
            <path d="M158.434,55.3234 L158.434,55.3234"/>
            <path d="M158.434,57.8234 L158.434,57.8234"/>
        </g>
        <g id="product-5f7cdc38-05ca-4f7c-8f59-6c4271e2f6e2" class="IfcWall material-randomrubble projection" ifc:name="Wall" ifc:guid="1VVDmu1SfFV8zPR49nulRY">
            <path d="M279.933,100.323 L279.933,95.3234"/>
            <path d="M279.933,80.3234 L279.933,65.3234"/>
        </g>
        <g id="product-5db6722c-8589-4971-a97a-4bb154f45ce5" class="IfcWall material-randomrubble projection" ifc:name="Wall" ifc:guid="1Tjd8iXOb9SQbwIx5Kz5pb">
            <path d="M4.27863,65.3234 L4.27861,65.3234"/>
        </g>
        <g id="product-46809020-2d3d-4f74-ba89-6b3bceea0f88" class="IfcWall material-concrete projection" ifc:name="Wall" ifc:guid="16W90WBJrFTBg9QplEwW_8">
            <path d="M289.183,130.323 L289.183,100.323"/>
        </g>
        <g id="product-f69ab863-fcc2-4002-a945-7e4d0023143b" class="IfcWall material-concrete projection" ifc:name="Wall" ifc:guid="3schXZ$C900gb5Vaq08nGx">
            <path d="M253.684,130.323 L223.684,130.323"/>
            <path d="M253.684,100.323 L253.684,130.323"/>
            <path d="M253.684,100.323 L223.684,100.323"/>
            <path d="M223.684,130.323 L223.684,100.323"/>
        </g>
        <g id="product-6f4a6839-3ae4-4012-9c23-17eb562de5b9" class="IfcWall material-concrete projection" ifc:name="Wall" ifc:guid="1lIcWvEkH04fmZ5_jMBUMv">
            <path d="M137.185,130.323 L28.3986,130.323"/>
            <path d="M137.185,100.323 L137.185,130.323"/>
            <path d="M137.185,100.323 L28.3986,100.323"/>
            <path d="M28.3986,130.323 L28.3986,100.323"/>
        </g>
        <g id="product-9f56c6d0-f3b0-4f92-8282-52ffcf4e657f" class="IfcWall material-concrete projection" ifc:name="Wall" ifc:guid="2VLiRGyx1FaeA2Kl$FJcL$">
            <path d="M28.3987,130.323 L-1.6013,130.323"/>
            <path d="M28.3987,100.323 L28.3987,130.323"/>
            <path d="M28.3987,100.323 L-1.6013,100.323"/>
            <path d="M-1.6013,130.323 L-1.6013,100.323"/>
        </g>
        <g id="product-5d1600e3-482d-48f8-9758-7824ad812e90" class="IfcWall material-concrete projection" ifc:name="Wall" ifc:guid="1T5W3ZI2r8_9TOU2IjWIwG">
            <path d="M-1.60136,100.323 L-203.315,100.323"/>
            <path d="M-3.06514,130.323 L-203.315,130.323"/>
            <path d="M-203.315,130.323 L-203.315,100.323"/>
            <path d="M-1.6013,100.323 L-1.60136,100.323"/>
            <path d="M-1.60136,130.323 L-1.60136,100.323"/>
        </g>
        <g id="product-9284c44e-a01a-491b-83a8-1884f08fa805" class="IfcWall material-concrete projection" ifc:name="Wall" ifc:guid="2IXCHEe1f96uEe68JmZwW5">
            <path d="M167.185,130.323 L167.185,130.323"/>
        </g>
        <g id="product-fc195f10-3218-44aa-a77a-13132de0a6d0" class="IfcWall material-concrete projection" ifc:name="Wall" ifc:guid="3y6LyGCXX4ggTw4nCjuARG">
            <path d="M4.4348,100.323 L4.43477,100.323"/>
        </g>
        <g id="product-7a69cf9e-a453-4ebf-9a68-dee8aa4088ad" class="IfcWall material-concrete projection" ifc:name="Wall" ifc:guid="1wQS_Uf5DElvfetkYgG8Yj">
            <path d="M-207.065,100.323 L-305.855,100.323"/>
            <path d="M-203.315,130.323 L-305.855,130.323"/>
            <path d="M-327.105,100.323 L-335.855,100.323"/>
            <path d="M-335.855,130.323 L-335.855,100.323"/>
            <path d="M-305.855,130.323 L-305.855,100.323"/>
        </g>
        <g id="product-1b99fad0-d90b-4eb9-900b-555a5ee42567" class="IfcWall material-null projection" ifc:name="Wall" ifc:guid="0RcVhGsGjEkP0BLLfUv2Ld">
            <path d="M-199.565,136.323 L-302.105,136.323"/>
            <path d="M-302.105,130.323 L-339.605,130.323"/>
            <path d="M-302.105,136.323 L-339.605,136.323"/>
            <path d="M-339.605,136.323 L-339.605,130.323"/>
            <path d="M-302.105,136.323 L-302.105,130.323"/>
        </g>
        <g id="product-884dc263-7ddd-4cd6-b5c4-199ffba38d49" class="IfcWall material-randomrubble projection" ifc:name="Wall" ifc:guid="28JS9ZVTrCrhN46P$xeur9">
            <path d="M140.934,100.323 L26.7786,100.323"/>
            <path d="M140.934,72.8234 L140.934,82.606"/>
            <path d="M140.934,88.2665 L140.934,100.323"/>
            <path d="M140.934,72.8234 L92.3343,72.8234"/>
            <path d="M86.6974,72.8234 L26.7786,72.8234"/>
            <path d="M26.7786,100.323 L26.7786,72.8234"/>
        </g>
        <g id="product-c86ae56b-98d6-4456-9585-e8c0514ff7af" class="IfcWall material-concrete projection" ifc:name="Wall" ifc:guid="38QkLhcDP4LfM5wC1HJ$Ul">
            <path d="M289.183,100.323 L244.934,100.323"/>
            <path d="M223.684,100.323 L167.185,100.323"/>
            <path d="M167.185,100.323 L167.185,100.323"/>
            <path d="M289.183,130.323 L289.183,100.323"/>
        </g>
        <g id="product-60b74b77-67fe-460e-80d2-cca72e63ecea" class="IfcWall material-randomrubble projection" ifc:name="Wall" ifc:guid="1WjqjtP$v63e3IpASkO_pg">
            <path d="M-208.245,80.3234 L-207.065,80.3234"/>
            <path d="M-208.245,65.3234 L-208.245,80.3234"/>
            <path d="M-208.245,65.3234 L-292.105,65.3234"/>
            <path d="M-292.105,80.3234 L-292.105,65.3234"/>
            <path d="M-299.605,80.3234 L-292.105,80.3234"/>
            <path d="M-299.605,65.3234 L-299.605,80.3234"/>
            <path d="M-299.605,65.3234 L-305.855,65.3234"/>
            <path d="M-207.065,100.323 L-305.855,100.323"/>
            <path d="M-305.855,100.323 L-327.105,100.323"/>
            <path d="M-327.105,100.323 L-327.105,65.3234"/>
            <path d="M-305.855,65.3234 L-327.105,65.3234"/>
            <path d="M-305.855,100.323 L-305.855,65.3234"/>
        </g>
        <g id="product-6e1087d4-667e-407e-afb2-5f4da9fce8eb" class="IfcWall material-brick projection" ifc:name="Wall" ifc:guid="1k48VKPdv0Vg_oNqsf$EZh">
            <path d="M280.433,-92.1766 L158.434,-92.1766"/>
            <path d="M280.433,57.8234 L244.934,57.8234"/>
            <path d="M232.434,57.8234 L158.434,57.8234"/>
            <path d="M158.434,57.8234 L158.434,-92.1766"/>
            <path d="M280.433,57.8234 L280.433,-92.1766"/>
        </g>
        <g id="product-98d7eb3a-3f31-4649-be42-839eef86d929" class="IfcWall material-randomrubble projection" ifc:name="Wall" ifc:guid="2Or_iwFp56IRv2WvxlXjaf">
            <path d="M4.43477,100.323 L4.43477,65.3234"/>
            <path d="M4.27863,65.3234 L4.27861,65.3234"/>
            <path d="M-149.815,75.3234 L-149.815,65.3234"/>
            <path d="M-169.815,75.3234 L-149.815,75.3234"/>
            <path d="M-169.815,65.3234 L-169.815,75.3234"/>
            <path d="M-207.065,100.323 L-207.065,65.3234"/>
            <path d="M-203.315,100.323 L-207.065,100.323"/>
        </g>
        <g id="product-607f8fd1-d88a-4ee1-8533-570e4855de3c" class="IfcWall material-brick projection" ifc:name="Wall" ifc:guid="1WVu$Hs8fEuOKpLmv8LTuy">
            <path d="M244.934,57.8234 L232.434,57.8234"/>
            <path d="M244.934,-92.1766 L244.934,57.8234"/>
            <path d="M244.934,-92.1766 L232.434,-92.1766"/>
            <path d="M232.434,57.8234 L232.434,-92.1766"/>
        </g>
        <g id="product-79c115d9-8e3a-4314-a0ff-8fdbd20ebd4b" class="IfcWall material-brick2 projection" ifc:name="Wall" ifc:guid="1vmHNPZZf35A3$ZzlI3hrB">
            <path d="M145.934,-92.1766 L21.9348,-92.1766"/>
            <path d="M145.934,57.8234 L145.934,57.8234"/>
            <path d="M21.9348,-92.1766 L21.9348,-92.1766"/>
            <path d="M145.934,-92.1766 L145.934,-92.1766"/>
        </g>
        <g id="product-daf24263-8936-491c-b07b-da94ac78ba35" class="IfcWall material-brick projection" ifc:name="Wall" ifc:guid="3Qya9ZYJP97B1xsfIiUBer">
            <path d="M280.433,57.8234 L280.433,-92.1766"/>
        </g>
        <g id="product-9a16232e-f72d-495e-ab69-df9ab502b4df" class="IfcWall material-brick projection" ifc:name="Wall" ifc:guid="2Q5YCkzor9Ngjftvgr0hJV">
            <path d="M-53.6056,-92.1766 L-53.6056,-92.1766"/>
            <path d="M-41.1056,-92.1766 L-53.6056,-92.1766"/>
            <path d="M-41.1056,-92.1766 L-41.1056,-92.1766"/>
            <path d="M145.934,-92.1766 L145.934,-92.1766"/>
            <path d="M21.9348,-92.1766 L-41.1056,-92.1766"/>
            <path d="M145.934,-92.1766 L145.934,-92.1766"/>
            <path d="M158.434,-92.1766 L145.934,-92.1766"/>
            <path d="M158.434,-92.1766 L158.434,-92.1766"/>
        </g>
        <g id="product-7c98f16b-c8b9-4b03-8bf8-e40613e7af26" class="IfcWall material-randomrubble projection" ifc:name="Wall" ifc:guid="1ycF5hoBbB0uluv0OJvwyc">
            <path d="M26.9348,65.3234 L4.4348,65.3234"/>
            <path d="M4.4348,100.323 L4.4348,65.3234"/>
            <path d="M26.9348,100.323 L4.4348,100.323"/>
            <path d="M26.9348,65.3234 L26.9348,100.323"/>
        </g>
        <g id="product-fdd1f946-adc7-4da8-9590-230721cf489a" class="IfcWall material-randomrubble projection" ifc:name="Wall" ifc:guid="3zqVb6hSTDg9MG8mSXpqYQ">
            <path d="M279.933,65.3234 L244.934,65.3234"/>
            <path d="M279.933,100.323 L279.933,95.3234"/>
            <path d="M279.933,80.3234 L279.933,65.3234"/>
            <path d="M223.684,65.3234 L223.684,65.3234"/>
            <path d="M223.684,65.3234 L223.684,65.3234"/>
        </g>
        <g id="product-950034dd-be37-4f51-aedd-91e108554553" class="IfcWall material-randomrubble projection" ifc:name="Wall" ifc:guid="2L03JTlZTFKQxTaU48LKLJ">
            <path d="M223.684,65.3234 L163.435,65.3234"/>
            <path d="M167.185,100.323 L167.185,100.323"/>
            <path d="M163.435,100.323 L163.435,88.6841"/>
            <path d="M163.435,82.9682 L163.435,65.3234"/>
            <path d="M223.684,100.323 L223.684,89.7358"/>
            <path d="M223.684,84.0199 L223.684,65.3234"/>
        </g>
        <g id="product-72ac7f4e-c5e4-44f3-bc33-9c016f31c80c" class="IfcWall material-brick projection" ifc:name="Wall" ifc:guid="1oh7zEnUH4yxmpd05lCSWC">
            <path d="M9.43475,-92.1766 L-160.565,-92.1766"/>
            <path d="M-160.565,57.8234 L-160.565,-92.1766"/>
            <path d="M-151.639,57.8234 L-160.565,57.8234"/>
            <path d="M-151.639,-47.1766 L-151.639,57.8234"/>
            <path d="M-101.639,-47.1766 L-151.639,-47.1766"/>
            <path d="M-101.639,57.8234 L-101.639,-47.1766"/>
            <path d="M9.43475,57.8234 L-101.639,57.8234"/>
        </g>
        <g id="product-0b2853c1-4ef5-4e82-a531-50ef452530b9" class="IfcWall material-brick projection" ifc:name="Wall" ifc:guid="0BA5F1JlLEWgKnKEz59J2v">
            <path d="M145.934,7.82339 L21.9347,7.82339"/>
            <path d="M21.9347,57.8234 L21.9347,7.82339"/>
            <path d="M145.934,57.8234 L92.3343,57.8234"/>
            <path d="M86.6974,57.8234 L21.9347,57.8234"/>
            <path d="M145.934,7.82339 L145.934,57.8234"/>
        </g>
        <g id="product-f263e387-068d-47ea-ae00-b271a7bf00c0" class="IfcWall material-brick projection" ifc:name="Wall" ifc:guid="3oO_E71er7wgu0id6dlm30">
            <path d="M66.9348,-92.1766 L21.9347,-92.1766"/>
            <path d="M21.9347,57.8234 L21.9347,-92.1766"/>
            <path d="M66.9348,57.8234 L21.9347,57.8234"/>
            <path d="M66.9348,-92.1766 L66.9348,57.8234"/>
        </g>
        <g id="product-5a777a81-4677-490b-a251-016a833d5bf8" class="IfcWall material-concrete projection" ifc:name="Wall" ifc:guid="1QTtg1HdT92w9H0Mg3FLlu">
            <path d="M289.183,100.323 L279.933,100.323"/>
            <path d="M289.183,100.323 L289.183,100.323"/>
        </g>
        <g id="product-5c5d8b5f-05a4-4cab-a8a0-b63b0de1ccd0" class="IfcWall material-concrete projection" ifc:name="Wall" ifc:guid="1SNOjV1QHCgwYWjZiDuSpG">
            <path d="M167.185,130.323 L137.185,130.323"/>
            <path d="M167.185,100.323 L167.185,130.323"/>
            <path d="M167.185,100.323 L137.185,100.323"/>
            <path d="M137.185,130.323 L137.185,100.323"/>
        </g>
        <g id="product-f24c8e19-188d-4430-b8c0-b43fe2590853" class="IfcWall material-randomrubble projection" ifc:name="Wall" ifc:guid="3oJ8uP68r4CBZ0j3$YMGXJ">
            <path d="M244.934,100.323 L223.684,100.323"/>
            <path d="M244.934,80.3234 L244.934,84.4277"/>
            <path d="M244.934,90.0706 L244.934,100.323"/>
            <path d="M244.934,80.3234 L223.684,80.3234"/>
            <path d="M223.684,100.323 L223.684,89.702"/>
            <path d="M223.684,84.055 L223.684,80.3234"/>
            <path d="M244.934,80.3234 L244.934,80.3234"/>
            <path d="M223.684,65.3234 L223.684,80.3234"/>
            <path d="M223.684,65.3234 L223.684,65.3234"/>
            <path d="M244.934,80.3234 L244.934,65.3234"/>
        </g>
        <g id="product-59f7ba37-597c-4793-9dbc-44ced4975d81" class="IfcWall material-brick projection" ifc:name="Wall" ifc:guid="1PzxetMNn7avsyHCxKbrs1">
            <path d="M-314.605,57.8234 L-327.105,57.8234"/>
            <path d="M-327.105,57.8234 L-327.105,-92.1766"/>
            <path d="M-314.605,-92.1766 L-327.105,-92.1766"/>
            <path d="M-127.596,-47.1766 L-127.596,17.8234"/>
            <path d="M-127.596,17.8234 L-101.639,17.8234"/>
            <path d="M-314.605,55.3234 L-314.605,-92.1766"/>
            <path d="M19.8944,-92.1766 L-314.605,-92.1766"/>
            <path d="M19.8944,-92.1766 L19.8944,-92.1766"/>
            <path d="M21.9348,-92.1766 L19.8944,-92.1766"/>
        </g>
        <g id="product-36bc4484-8919-4c02-8b6f-5988f273c937" class="IfcPipeSegment material-kitchenwater projection" ifc:name="PipeSegment" ifc:guid="0sl4I4YHbC0ejlMOZoSyat">
            <path d="M63.6628,72.8234 L63.6628,57.8234"/>
            <path d="M60.4878,72.8234 L60.4878,57.8234"/>
        </g>
        <g id="product-4a464a74-cd1c-4022-8301-9021513c8aa5" class="IfcSlab material-null projection" ifc:name="Slab" ifc:guid="1AHafqpHn08eC1a25HF8gb">
            <path d="M-103.606,57.8234 L-101.639,57.8234"/>
            <path d="M-53.6057,57.8234 L-53.6057,57.8234"/>
            <path d="M-103.606,57.8234 L-103.606,57.8234"/>
            <path d="M-314.605,57.8234 L-160.565,57.8234"/>
            <path d="M-151.639,57.8234 L-103.606,57.8234"/>
            <path d="M-314.605,62.8234 L-207.065,62.8234"/>
            <path d="M-103.606,57.8234 L-103.606,57.8234"/>
            <path d="M-314.605,62.8234 L-314.605,57.8234"/>
        </g>
        <g id="product-d5569db6-6f7b-4d57-98eb-a3a2b1b168d9" class="IfcDistributionChamberElement material-null projection" ifc:name="DistributionChamberElement" ifc:guid="3LLfssRtjDLvZhewAniMZP">
            <path d="M288.072,95.3234 L268.072,95.3234"/>
            <path d="M268.072,95.3234 L268.072,90.4719"/>
            <path d="M268.072,84.8334 L268.072,80.3234"/>
            <path d="M268.072,95.3234 L268.072,95.3234"/>
            <path d="M268.072,80.3234 L268.072,80.3234"/>
            <path d="M268.072,80.3234 L288.072,80.3234"/>
            <path d="M288.072,95.3234 L288.072,95.3234"/>
            <path d="M288.072,80.3234 L288.072,80.3234"/>
            <path d="M288.072,80.3234 L288.072,95.3234"/>
            <path d="M288.072,95.3234 L288.072,80.3234"/>
            <path d="M288.072,80.3234 L268.072,80.3234"/>
            <path d="M268.072,80.3234 L268.072,84.7947"/>
            <path d="M268.072,90.5105 L268.072,95.3234"/>
            <path d="M288.072,95.3234 L268.072,95.3234"/>
        </g>
        <g id="product-7c8c543a-5e80-45a4-ad5c-f7598399740e" class="IfcWall material-brick projection" ifc:name="Wall" ifc:guid="1yZ5GwNe15fArSzrc3cNGE">
            <path d="M158.434,57.8234 L145.934,57.8234"/>
            <path d="M158.434,-8.42661 L158.434,57.8234"/>
            <path d="M158.434,-8.42661 L145.934,-8.42661"/>
            <path d="M145.934,57.8234 L145.934,-8.42661"/>
            <path d="M158.434,-8.42661 L158.434,-8.42661"/>
            <path d="M145.934,-48.4266 L145.934,-8.42661"/>
            <path d="M158.434,-48.4266 L158.434,-48.4266"/>
            <path d="M158.434,-8.42661 L158.434,-48.4266"/>
            <path d="M145.934,-48.4266 L158.434,-48.4266"/>
            <path d="M158.434,-92.1766 L158.434,-48.4266"/>
            <path d="M158.434,-92.1766 L145.934,-92.1766"/>
            <path d="M145.934,-48.4266 L145.934,-92.1766"/>
        </g>
        <g id="product-d059c4e3-84a0-44e4-bba5-1764d1616e6f" class="IfcWall material-brick projection" ifc:name="Wall" ifc:guid="3GMSJZXA14vBkb5sJHOMvl">
            <path d="M145.934,-8.42661 L145.934,-48.4266"/>
            <path d="M158.434,-92.1766 L158.434,-92.1766"/>
            <path d="M158.434,-74.6766 L158.434,-92.1766"/>
        </g>
        <g id="product-2d170c8c-a3d6-4436-8db8-4cb99c215fba" class="IfcPipeSegment material-blackwater projection" ifc:name="PipeSegment" ifc:guid="0j5moCezP4DesuJBcS8L_w">
            <path d="M92.3734,72.8234 L92.3734,57.8234"/>
            <path d="M92.2903,24.6218 L92.3343,24.6218"/>
            <path d="M92.0461,24.6218 L92.2903,24.6218"/>
            <path d="M91.6548,24.6218 L92.0461,24.6218"/>
            <path d="M91.1391,24.6218 L91.6548,24.6218"/>
            <path d="M90.5292,24.6218 L91.1391,24.6218"/>
            <path d="M89.8603,24.6218 L90.5292,24.6218"/>
            <path d="M89.1715,24.6218 L89.8603,24.6218"/>
            <path d="M88.5026,24.6218 L89.1715,24.6218"/>
            <path d="M87.8926,24.6218 L88.5026,24.6218"/>
            <path d="M87.377,24.6218 L87.8926,24.6218"/>
            <path d="M86.9857,24.6218 L87.377,24.6218"/>
            <path d="M86.7414,24.6218 L86.9857,24.6218"/>
            <path d="M86.6974,24.6218 L86.7414,24.6218"/>
            <path d="M92.2903,79.4782 L92.3343,79.4782"/>
            <path d="M92.0461,79.4782 L92.2903,79.4782"/>
            <path d="M91.6548,79.4782 L92.0461,79.4782"/>
            <path d="M91.1391,79.4782 L91.6548,79.4782"/>
            <path d="M90.5292,79.4782 L91.1391,79.4782"/>
            <path d="M89.8603,79.4782 L90.5292,79.4782"/>
            <path d="M89.1715,79.4782 L89.8603,79.4782"/>
            <path d="M88.5026,79.4782 L89.1715,79.4782"/>
            <path d="M87.8926,79.4782 L88.5026,79.4782"/>
            <path d="M87.377,79.4782 L87.8926,79.4782"/>
            <path d="M86.9857,79.4782 L87.377,79.4782"/>
            <path d="M86.7414,79.4782 L86.9857,79.4782"/>
            <path d="M86.6974,79.4782 L86.7414,79.4782"/>
            <path d="M86.6584,72.8234 L86.6584,57.8234"/>
        </g>
        <g id="product-678fce96-a614-48ac-b4e6-eaa9f1d6cf30" class="IfcWall material-brick projection" ifc:name="Wall" ifc:guid="1dZywMfXH8hBJcwgdnriym">
            <path d="M21.9347,-92.1766 L9.43475,-92.1766"/>
            <path d="M9.43475,57.8234 L9.43475,-92.1766"/>
            <path d="M21.9347,57.8234 L9.43475,57.8234"/>
            <path d="M21.9347,-92.1766 L21.9347,57.8234"/>
        </g>
        <g id="product-45d22e4d-7288-4b12-af81-79c21eb94de1" class="IfcPipeSegment material-blackwater projection" ifc:name="PipeSegment" ifc:guid="15qYvDSeXB4g_1US8UkKtX">
            <path d="M140.934,88.2914 L140.934,88.2914"/>
            <path d="M163.434,88.6841 L223.684,89.7358"/>
            <path d="M244.934,90.1067 L272.297,90.5843"/>
            <path d="M272.299,90.5013 L272.297,90.5843"/>
            <path d="M272.303,90.2571 L272.299,90.5013"/>
            <path d="M272.31,89.8658 L272.303,90.2571"/>
            <path d="M272.319,89.3502 L272.31,89.8658"/>
            <path d="M272.33,88.7404 L272.319,89.3502"/>
            <path d="M272.341,88.0716 L272.33,88.7404"/>
            <path d="M272.353,87.3829 L272.341,88.0716"/>
            <path d="M272.365,86.7141 L272.353,87.3829"/>
            <path d="M272.376,86.1042 L272.365,86.7141"/>
            <path d="M272.385,85.5887 L272.376,86.1042"/>
            <path d="M272.392,85.1974 L272.385,85.5887"/>
            <path d="M272.396,84.9532 L272.392,85.1974"/>
            <path d="M272.397,84.8702 L272.396,84.9532"/>
            <path d="M140.934,82.5755 L140.934,82.5755"/>
            <path d="M163.434,82.9682 L223.684,84.0199"/>
            <path d="M244.934,84.3908 L272.397,84.8702"/>
            <path d="M95.0058,81.8248 L95.0058,81.8043"/>
            <path d="M95.0058,81.9759 L95.0058,81.8248"/>
            <path d="M95.0058,82.2217 L95.0058,81.9759"/>
            <path d="M95.0058,82.5535 L95.0058,82.2217"/>
            <path d="M95.0058,83.2869 L95.0058,82.5535"/>
            <path d="M95.0058,83.8591 L95.0058,83.2869"/>
            <path d="M95.0058,84.5907 L95.0058,83.8591"/>
            <path d="M95.0058,85.468 L95.0058,84.5907"/>
            <path d="M95.0058,86.3075 L95.0058,85.468"/>
            <path d="M95.0058,86.7335 L95.0058,86.3075"/>
            <path d="M95.0058,87.1025 L95.0058,86.7335"/>
            <path d="M95.0058,87.3568 L95.0058,87.1025"/>
            <path d="M95.0058,87.4639 L95.0058,87.3568"/>
        </g>
        <g id="product-a5c3afe0-ef83-47e3-a329-ea7700260156" class="IfcWall material-randomrubble projection" ifc:name="Wall" ifc:guid="2bmw$WxuD7uwCfwdS09W5M">
            <path d="M163.435,65.3234 L163.435,65.3234"/>
            <path d="M163.435,75.3233 L163.435,75.3233"/>
            <path d="M163.435,80.3234 L163.434,80.3234"/>
            <path d="M140.935,65.3234 L140.935,80.3234"/>
            <path d="M163.435,65.3234 L163.434,65.3234"/>
            <path d="M163.435,80.3234 L163.435,65.3234"/>
            <path d="M163.434,80.3234 L140.934,80.3234"/>
            <path d="M140.934,100.323 L140.934,88.2665"/>
            <path d="M140.934,82.606 L140.934,80.3234"/>
            <path d="M163.434,100.323 L140.934,100.323"/>
            <path d="M163.434,80.3234 L163.434,82.9987"/>
            <path d="M163.434,88.6568 L163.434,100.323"/>
        </g>
        <g id="product-19e2d35b-529f-4d5d-b077-e9e8bdd2968d" class="IfcPipeFitting material-null projection" ifc:name="PipeFitting" ifc:guid="0PujDRKfzDNR1twUYzqfQD">
            <path d="M92.2174,81.8305 L92.163,81.7859"/>
            <path d="M92.3224,79.4782 L92.3174,81.0841"/>
            <path d="M92.3174,81.0841 L92.3161,81.7318"/>
            <path d="M92.3161,81.7318 L92.3156,82.0141"/>
            <path d="M87.1093,84.0949 L86.8103,83.1092"/>
            <path d="M92.163,81.7859 L92.101,81.7527"/>
            <path d="M89.953,86.9386 L89.0446,86.453"/>
            <path d="M92.101,81.7527 L92.0338,81.7323"/>
            <path d="M92.262,81.8848 L92.2174,81.8305"/>
            <path d="M94.906,87.3386 L91.8261,87.3352"/>
            <path d="M89.0446,86.453 L88.2483,85.7996"/>
            <path d="M86.7127,82.2218 L86.7093,79.4782"/>
            <path d="M92.3156,82.0141 L92.2951,81.9469"/>
            <path d="M92.2951,81.9469 L92.262,81.8848"/>
            <path d="M88.2483,85.7996 L87.5949,85.0033"/>
            <path d="M93.0863,81.7304 L94.906,81.7254"/>
            <path d="M92.0338,81.7323 L92.3161,81.7318"/>
            <path d="M92.3161,81.7318 L93.0863,81.7304"/>
            <path d="M87.5949,85.0033 L87.1093,84.0949"/>
            <path d="M86.8103,83.1092 L86.7127,82.2218"/>
            <path d="M91.8261,87.3352 L90.9387,87.2376"/>
            <path d="M90.9387,87.2376 L89.953,86.9386"/>
        </g>
        <g id="product-2404dd0c-0165-4abb-9bb3-4893379a67fb" class="IfcPipeSegment material-blackwater projection" ifc:name="PipeSegment" ifc:guid="0a1DqC0MLAkvkpI9CtccVx">
            <path d="M24.4775,-92.1766 L24.4775,-186.464"/>
            <path d="M19.5732,-186.616 L19.3975,-186.464"/>
            <path d="M20.0725,-186.745 L19.5732,-186.616"/>
            <path d="M20.8164,-186.829 L20.0725,-186.745"/>
            <path d="M21.3323,-186.852 L20.8164,-186.829"/>
            <path d="M21.9706,-186.851 L21.3323,-186.852"/>
            <path d="M22.6938,-186.807 L21.9706,-186.851"/>
            <path d="M23.3872,-186.701 L22.6938,-186.807"/>
            <path d="M23.6446,-186.625 L23.3872,-186.701"/>
            <path d="M23.8073,-186.533 L23.6446,-186.625"/>
            <path d="M23.8425,-186.464 L23.8073,-186.533"/>
            <path d="M23.8368,-186.436 L23.8425,-186.464"/>
            <path d="M23.7286,-186.34 L23.8368,-186.436"/>
            <path d="M23.4899,-186.252 L23.7286,-186.34"/>
            <path d="M23.1363,-186.177 L23.4899,-186.252"/>
            <path d="M22.69,-186.12 L23.1363,-186.177"/>
            <path d="M22.1787,-186.084 L22.69,-186.12"/>
            <path d="M21.6334,-186.072 L22.1787,-186.084"/>
            <path d="M21.0871,-186.083 L21.6334,-186.072"/>
            <path d="M20.5727,-186.118 L21.0871,-186.083"/>
            <path d="M20.122,-186.174 L20.5727,-186.118"/>
            <path d="M19.7631,-186.248 L20.122,-186.174"/>
            <path d="M19.5315,-186.33 L19.7631,-186.248"/>
            <path d="M19.3975,-186.464 L19.5315,-186.33"/>
            <path d="M18.8586,-186.593 L18.7625,-186.464"/>
            <path d="M19.1405,-186.714 L18.8586,-186.593"/>
            <path d="M19.5891,-186.818 L19.1405,-186.714"/>
            <path d="M20.3614,-186.916 L19.5891,-186.818"/>
            <path d="M21.2425,-186.963 L20.3614,-186.916"/>
            <path d="M22.0617,-186.961 L21.2425,-186.963"/>
            <path d="M22.9909,-186.906 L22.0617,-186.961"/>
            <path d="M23.436,-186.853 L22.9909,-186.906"/>
            <path d="M23.8478,-186.779 L23.436,-186.853"/>
            <path d="M24.1848,-186.686 L23.8478,-186.779"/>
            <path d="M24.3981,-186.582 L24.1848,-186.686"/>
            <path d="M24.4775,-186.464 L24.3981,-186.582"/>
            <path d="M24.4179,-186.361 L24.4775,-186.464"/>
            <path d="M24.2235,-186.256 L24.4179,-186.361"/>
            <path d="M23.9039,-186.161 L24.2235,-186.256"/>
            <path d="M23.4752,-186.08 L23.9039,-186.161"/>
            <path d="M22.9583,-186.018 L23.4752,-186.08"/>
            <path d="M22.3781,-185.978 L22.9583,-186.018"/>
            <path d="M21.7621,-185.96 L22.3781,-185.978"/>
            <path d="M21.1391,-185.967 L21.7621,-185.96"/>
            <path d="M20.5386,-185.997 L21.1391,-185.967"/>
            <path d="M19.989,-186.05 L20.5386,-185.997"/>
            <path d="M19.5169,-186.123 L19.989,-186.05"/>
            <path d="M19.1453,-186.212 L19.5169,-186.123"/>
            <path d="M18.9023,-186.308 L19.1453,-186.212"/>
            <path d="M18.7625,-186.464 L18.9023,-186.308"/>
            <path d="M18.7625,-92.1766 L18.7625,-186.464"/>
        </g>
    <g ifc:guid="0DGlzq0Xv7KwIjCvA14zlk" ifc:name="SanitaryTerminal" class="IfcSanitaryTerminal material-null cut"><path d="M66.93477630615234,-47.37660824242285 L23.97756576538086,-47.37660824242285 L21.934795379638672,-47.37660824242285 L21.934795379638672,-42.610203613669185 L21.934795379638672,57.62338698920557 L23.97756576538086,57.62338698920557 L66.93477630615234,57.62338698920557 L66.93477630615234,52.857012162774296 Z"/></g><g ifc:guid="2vD3tSgcTBU8lPnKKbK96B" ifc:name="SanitaryTerminal" class="IfcSanitaryTerminal material-null cut"><path d="M110.15491485595703,2.623385797112676 L109.91249084472656,2.623385797112676"/><path d="M110.65120697021484,2.623385797112676 L110.15491485595703,2.623385797112676"/><path d="M113.59643936157227,2.623385797112676 L112.19396591186523,2.623385797112676"/><path d="M112.19396591186523,2.623385797112676 L110.65120697021484,2.623385797112676"/><path d="M138.73672485351562,2.623385797112676 L137.19396591186523,2.623385797112676"/><path d="M137.19396591186523,2.623385797112676 L113.59643936157227,2.623385797112676"/><path d="M139.3589973449707,2.623385797112676 L138.73672485351562,2.623385797112676"/><path d="M139.43824768066406,2.623385797112676 L139.3589973449707,2.623385797112676"/><path d="M109.91249084472656,10.12338460501978 L110.15491485595703,10.12338460501978"/><path d="M110.65120697021484,10.12338460501978 L110.15491485595703,10.12338460501978"/><path d="M113.59643936157227,10.12338460501978 L112.19396591186523,10.12338460501978"/><path d="M112.19396591186523,10.12338460501978 L110.65120697021484,10.12338460501978"/><path d="M138.73672485351562,10.12338460501978 L137.19396591186523,10.12338460501978"/><path d="M137.19396591186523,10.12338460501978 L113.59643936157227,10.12338460501978"/><path d="M139.3589973449707,10.12338460501978 L138.73672485351562,10.12338460501978"/><path d="M139.43824768066406,10.12338460501978 L139.3589973449707,10.12338460501978"/><path d="M139.49098587036133,10.12338460501978 L139.43824768066406,10.12338460501978"/><path d="M139.49098587036133,10.12338460501978 L139.49098587036133,4.432601342766973"/><path d="M139.49098587036133,2.623385797112676 L139.49098587036133,4.432601342766973"/><path d="M139.49098587036133,2.623385797112676 L139.43824768066406,2.623385797112676"/><path d="M109.91249084472656,10.12338460501978 L109.89694595336914,10.12338460501978"/><path d="M109.89694595336914,10.12338460501978 L109.89694595336914,8.314341912835332"/><path d="M109.89694595336914,2.623385797112676 L109.89694595336914,8.314341912835332"/><path d="M109.91249084472656,2.623385797112676 L109.89694595336914,2.623385797112676"/></g><g ifc:guid="0qCZoCmrD1B9CO5Kg0plPw" ifc:name="SanitaryTerminal" class="IfcSanitaryTerminal material-null cut"><path d="M97.0956802368164,45.12338698920557 L98.96574020385742,45.12338698920557"/><path d="M97.0956802368164,47.62338758525202 L98.96574020385742,47.62338758525202"/><path d="M98.96574020385742,47.62338758525202 L98.96574020385742,47.38963306960413"/><path d="M98.96574020385742,47.38963306960413 L98.96574020385742,45.12338698920557"/><path d="M78.96566390991211,45.12338698920557 L97.0956802368164,45.12338698920557"/><path d="M78.96566390991211,47.62338758525202 L97.0956802368164,47.62338758525202"/><path d="M78.96566390991211,47.62338758525202 L78.96566390991211,45.35714150485346"/><path d="M78.96566390991211,45.35714150485346 L78.96566390991211,45.12338698920557"/><path d="M98.37865829467773,37.623388181298466 L98.51350784301758,37.623388181298466"/><path d="M98.20709228515625,37.623388181298466 L98.37865829467773,37.623388181298466"/><path d="M98.00195693969727,37.623388181298466 L98.20709228515625,37.623388181298466"/><path d="M97.77202606201172,37.623388181298466 L98.00195693969727,37.623388181298466"/><path d="M97.3043441772461,37.623388181298466 L97.53274917602539,37.623388181298466"/><path d="M97.53274917602539,37.623388181298466 L97.77202606201172,37.623388181298466"/><path d="M80.73043823242188,37.623388181298466 L97.3043441772461,37.623388181298466"/><path d="M80.5154800415039,37.623388181298466 L80.73043823242188,37.623388181298466"/><path d="M80.27896881103516,37.623388181298466 L80.5154800415039,37.623388181298466"/><path d="M80.04217147827148,37.623388181298466 L80.27896881103516,37.623388181298466"/><path d="M79.82311248779297,37.623388181298466 L80.04217147827148,37.623388181298466"/><path d="M79.63399887084961,37.623388181298466 L79.82311248779297,37.623388181298466"/><path d="M79.36391830444336,37.623388181298466 L79.48074340820312,37.623388181298466"/><path d="M79.48074340820312,37.623388181298466 L79.63399887084961,37.623388181298466"/><path d="M98.37865829467773,45.12338698920557 L98.51350784301758,45.12338698920557"/><path d="M98.20709228515625,45.12338698920557 L98.37865829467773,45.12338698920557"/><path d="M98.00195693969727,45.12338698920557 L98.20709228515625,45.12338698920557"/><path d="M97.77202606201172,45.12338698920557 L98.00195693969727,45.12338698920557"/><path d="M97.3043441772461,45.12338698920557 L97.53274917602539,45.12338698920557"/><path d="M97.53274917602539,45.12338698920557 L97.77202606201172,45.12338698920557"/><path d="M80.73043823242188,45.12338698920557 L97.3043441772461,45.12338698920557"/><path d="M80.73043823242188,45.12338698920557 L80.5154800415039,45.12338698920557"/><path d="M80.5154800415039,45.12338698920557 L80.27896881103516,45.12338698920557"/><path d="M80.04217147827148,45.12338698920557 L80.27896881103516,45.12338698920557"/><path d="M79.82311248779297,45.12338698920557 L80.04217147827148,45.12338698920557"/><path d="M79.63399887084961,45.12338698920557 L79.82311248779297,45.12338698920557"/><path d="M79.36391830444336,45.12338698920557 L79.48074340820312,45.12338698920557"/><path d="M79.48074340820312,45.12338698920557 L79.63399887084961,45.12338698920557"/><path d="M98.51350784301758,37.623388181298466 L98.96574020385742,37.623388181298466"/><path d="M98.51350784301758,45.12338698920557 L98.96574020385742,45.12338698920557"/><path d="M98.96574020385742,45.12338698920557 L98.96574020385742,44.42212046202967"/><path d="M98.96574020385742,44.42212046202967 L98.96574020385742,37.623388181298466"/><path d="M78.96566390991211,37.623388181298466 L79.36391830444336,37.623388181298466"/><path d="M78.96566390991211,45.12338698920557 L79.36391830444336,45.12338698920557"/><path d="M78.96566390991211,45.12338698920557 L78.96566390991211,38.32464874800989"/><path d="M78.96566390991211,38.32464874800989 L78.96566390991211,37.623388181298466"/></g><g ifc:guid="3LLfssRtjDLvZhewAniMZP" ifc:name="DistributionChamberElement" class="IfcDistributionChamberElement material-null cut"><path d="M268.0715560913086,95.32338590440104 L287.5192642211914,95.32338590440104"/><path d="M268.0715560913086,95.32338590440104 L268.0715560913086,94.9091664057667"/><path d="M268.0715560913086,80.32338642594168 L268.0715560913086,94.9091664057667"/><path d="M268.62382888793945,80.32338642594168 L268.0715560913086,80.32338642594168"/><path d="M287.5192642211914,80.32338642594168 L271.93756103515625,80.32338642594168"/><path d="M268.62382888793945,80.32338642594168 L271.93756103515625,80.32338642594168"/><path d="M288.0716323852539,80.32338642594168 L287.99266815185547,80.32338642594168"/><path d="M287.5192642211914,80.32338642594168 L287.99266815185547,80.32338642594168"/><path d="M288.0716323852539,95.32338590440104 L287.5192642211914,95.32338590440104"/><path d="M288.0716323852539,95.32338590440104 L288.0716323852539,80.73760629710505"/><path d="M288.0716323852539,80.32338642594168 L288.0716323852539,80.73760629710505"/></g><g ifc:guid="0PujDRKfzDNR1twUYzqfQD" ifc:name="PipeFitting" class="IfcPipeFitting material-null cut"><path d="M92.31557846069336,82.0141291719372 L92.31739044189453,81.0841618579323"/><path d="M92.32244491577148,79.47820783671686 L92.31739044189453,81.0841618579323"/><path d="M92.1630859375,81.78588212546656 L92.17796325683594,81.79810033258745"/><path d="M92.1630859375,81.78588212546656 L92.11797714233398,81.7618167501385"/><path d="M92.10100173950195,81.75273747262308 L92.11797714233398,81.7618167501385"/><path d="M92.03376770019531,81.73232660707781 L92.05217361450195,81.7379182678158"/><path d="M92.10100173950195,81.75273747262308 L92.05217361450195,81.7379182678158"/><path d="M92.21735000610352,81.8304857712681 L92.17796325683594,81.79810033258745"/><path d="M92.21735000610352,81.8304857712681 L92.24977493286133,81.86995000657389"/><path d="M92.26198196411133,81.88483850178072 L92.24977493286133,81.86995000657389"/><path d="M94.90604400634766,87.33855546531031 L93.78585815429688,87.33736486253092"/><path d="M89.04457092285156,86.45302415904352 L89.36986923217773,86.6268842023308"/><path d="M89.04457092285156,86.45302415904352 L88.7594223022461,86.2190483611519"/><path d="M88.24834823608398,85.79956651744196 L88.7594223022461,86.2190483611519"/><path d="M86.71274185180664,82.22181783136675 L86.7105484008789,80.47590204593489"/><path d="M86.70930862426758,79.47821156200716 L86.7105484008789,80.47590204593489"/><path d="M92.31557846069336,82.0141291719372 L92.30995178222656,81.99569867071459"/><path d="M92.29516983032227,81.94684670385668 L92.30995178222656,81.99569867071459"/><path d="M92.29516983032227,81.94684670385668 L92.28601455688477,81.92986087021181"/><path d="M92.26198196411133,81.88483850178072 L92.28601455688477,81.92986087021181"/><path d="M87.59489059448242,85.00332371410677 L88.01431655883789,85.51446558055231"/><path d="M88.24834823608398,85.79956651744196 L88.01431655883789,85.51446558055231"/><path d="M94.90604400634766,81.72543332990954 L93.08624267578125,81.73043862995455"/><path d="M92.03376770019531,81.73232660707781 L93.08624267578125,81.73043862995455"/><path d="M87.10927963256836,84.09489677366564 L87.00218200683594,83.74195979055712"/><path d="M87.10927963256836,84.09489677366564 L87.28313446044922,84.42016677078554"/><path d="M87.59489059448242,85.00332371410677 L87.28313446044922,84.42016677078554"/><path d="M86.810302734375,83.10919986185381 L87.00218200683594,83.74195979055712"/><path d="M86.810302734375,83.10919986185381 L86.74764633178711,82.5402921539242"/><path d="M86.71274185180664,82.22181783136675 L86.74764633178711,82.5402921539242"/><path d="M91.82605743408203,87.33517737206766 L93.78585815429688,87.33736486253092"/><path d="M91.82605743408203,87.33517737206766 L91.50762557983398,87.3002192479069"/><path d="M90.93866348266602,87.23759562787363 L91.50762557983398,87.3002192479069"/><path d="M89.95294570922852,86.93858818229982 L89.36986923217773,86.6268842023308"/><path d="M89.95294570922852,86.93858818229982 L90.58570861816406,87.13053376492807"/><path d="M90.93866348266602,87.23759562787363 L90.58570861816406,87.13053376492807"/></g><g ifc:guid="0j5moCezP4DesuJBcS8L_w" ifc:name="PipeSegment" class="IfcPipeSegment material-blackwater cut"><path d="M91.67442321777344,24.621838937371464 L91.67442321777344,58.732760558694096 L91.67442321777344,79.47820783671686 L91.86115264892578,79.47820783671686 L92.30937957763672,79.47820783671686 L92.30937957763672,40.75702191409418 L92.30937957763672,24.621838937371464 L91.86115264892578,24.621838937371464 Z"/><path d="M86.72237396240234,24.621838937371464 L86.72237396240234,63.34291161116907 L86.72237396240234,79.47820783671686 L87.17060089111328,79.47820783671686 L87.35733032226562,79.47820783671686 L87.35733032226562,45.367006073563786 L87.35733032226562,24.621838937371464 L87.17060089111328,24.621838937371464 Z"/></g><g ifc:guid="15qYvDSeXB4g_1US8UkKtX" ifc:name="PipeSegment" class="IfcPipeSegment material-blackwater cut"><path d="M157.84130096435547,83.5421948235924 L272.38550186157227,85.54411889132807 L272.39065170288086,85.24555475529978 L272.3965644836426,84.90921543058703 L151.23872756958008,82.78203145679781 L95.00579833984375,81.80048302826235 L95.00579833984375,82.00179697093317 L95.00579833984375,82.44539783415148 Z"/><path d="M272.30920791625977,89.91036028680155 L196.85935974121094,88.59519125041315 L95.00579833984375,86.81468875226328 L95.00579833984375,87.18114555892298 L95.00579833984375,87.45355070647547 L167.5135612487793,88.72439027842829 L272.29814529418945,90.54526300248453 L272.3048210144043,90.16139418896982 Z"/></g><g ifc:guid="1Q_c7uVcTCngKTLSlSECoW" ifc:name="Site" class="IfcSite material-null cut"><path d="M-1180.6480407714844,80.32339834687063 L-1059.0544700622559,80.32339871939966"/><path d="M-1059.0544700622559,80.32339871939966 L-915.8176422119141,80.32339871939966"/><path d="M-915.8176422119141,80.32339871939966 L-691.9628143310547,80.32339871939966"/><path d="M-691.9628143310547,80.32339871939966 L-226.74131393432617,80.32339871939966"/><path d="M-226.74131393432617,80.32339871939966 L553.3388137817383,80.32339871939966"/></g><g ifc:guid="0BA5F1JlLEWgKnKEz59J2v" ifc:name="Wall" ifc:layer-id="201047" class="IfcWall material-brick IfcMaterialLayer layer-material-Plaster cut"/><g ifc:guid="3oO_E71er7wgu0id6dlm30" ifc:name="Wall" ifc:layer-id="201047" class="IfcWall material-brick IfcMaterialLayer layer-material-Plaster cut"/><g class="1WVu$Hs8fEuOKpLmv8LTuy 1yZ5GwNe15fArSzrc3cNGE 3oO_E71er7wgu0id6dlm30 0BA5F1JlLEWgKnKEz59J2v 1dZywMfXH8hBJcwgdnriym material-brick cut IfcWall"><path d="M145.934,-92.177 L145.934,-48.427 L146.434,-48.427 L157.934,-48.427 L158.434,-48.427 L158.434,-92.177 L157.934,-92.177 L146.434,-92.177 Z"/></g><g class="1WVu$Hs8fEuOKpLmv8LTuy 1yZ5GwNe15fArSzrc3cNGE 3oO_E71er7wgu0id6dlm30 0BA5F1JlLEWgKnKEz59J2v 1dZywMfXH8hBJcwgdnriym material-brick cut IfcWall"><path d="M9.435,57.823 L9.935,57.823 L21.435,57.823 L21.935,57.823 L66.935,57.823 L145.934,57.823 L146.434,57.823 L157.934,57.823 L158.434,57.823 L158.434,-8.427 L157.934,-8.427 L146.434,-8.427 L145.934,-8.427 L145.934,7.823 L66.935,7.823 L66.935,-92.177 L21.935,-92.177 L21.435,-92.177 L9.935,-92.177 L9.435,-92.177 Z"/></g><g class="1WVu$Hs8fEuOKpLmv8LTuy 1yZ5GwNe15fArSzrc3cNGE 3oO_E71er7wgu0id6dlm30 0BA5F1JlLEWgKnKEz59J2v 1dZywMfXH8hBJcwgdnriym material-brick cut IfcWall"><path d="M232.434,-92.177 L232.434,57.823 L232.934,57.823 L244.434,57.823 L244.934,57.823 L244.934,-92.177 L244.434,-92.177 L232.934,-92.177 Z"/></g><g class="2f1DCwoZrD0R3WZl7VGNjK 2AnTRwzAT45PkLhSzxWH2t 3QvJTaeo13jR4q00Btfvpq material-null 19fhRRr0vEIQH_pdobSYPg 1vZn1Xg1f0GvCKg7LW5klO cut IfcWall"><path d="M544.461,80.323 L549.205,80.323 L556.118,80.323 L556.118,26.95 L556.118,-9.677 L549.205,-9.677 L544.461,-9.677 L544.461,43.61 Z"/></g><g class="2f1DCwoZrD0R3WZl7VGNjK 2AnTRwzAT45PkLhSzxWH2t 3QvJTaeo13jR4q00Btfvpq material-null 19fhRRr0vEIQH_pdobSYPg 1vZn1Xg1f0GvCKg7LW5klO cut IfcWall"><path d="M-3.065,130.323 L-3.065,131.564 L-3.065,136.323 L23.301,136.323 L34.435,136.323 L55.442,136.323 L133.434,136.323 L150.25,136.323 L170.934,136.323 L170.934,133.014 L170.934,130.323 L152.805,130.323 L133.434,130.323 L112.427,130.323 L34.435,130.323 L4.69,130.323 Z"/></g><g class="2f1DCwoZrD0R3WZl7VGNjK 2AnTRwzAT45PkLhSzxWH2t 3QvJTaeo13jR4q00Btfvpq material-null 19fhRRr0vEIQH_pdobSYPg 1vZn1Xg1f0GvCKg7LW5klO cut IfcWall"><path d="M219.934,131.013 L219.934,136.323 L253.124,136.323 L257.434,136.323 L257.434,135.634 L257.434,130.323 L224.244,130.323 L219.934,130.323 Z"/></g><g class="2VLiRGyx1FaeA2Kl$FJcL$ 1lIcWvEkH04fmZ5_jMBUMv 1SNOjV1QHCgwYWjZiDuSpG material-concrete 3schXZ$C900gb5Vaq08nGx cut IfcWall"><path d="M-1.601,100.323 L-1.601,106.747 L-1.601,130.323 L19.832,130.323 L28.399,130.323 L43.655,130.323 L137.185,130.323 L150.854,130.323 L167.185,130.323 L167.185,113.993 L167.185,100.323 L152.674,100.323 L137.185,100.323 L121.928,100.323 L28.399,100.323 L4.822,100.323 Z"/></g><g class="2VLiRGyx1FaeA2Kl$FJcL$ 1lIcWvEkH04fmZ5_jMBUMv 1SNOjV1QHCgwYWjZiDuSpG material-concrete 3schXZ$C900gb5Vaq08nGx cut IfcWall"><path d="M223.684,100.323 L223.684,104.693 L223.684,130.323 L249.314,130.323 L253.684,130.323 L253.684,125.953 L253.684,100.323 L228.054,100.323 Z"/></g><g class="material-randomrubble 1ycF5hoBbB0uluv0OJvwyc 28JS9ZVTrCrhN46P$xeur9 2bmw$WxuD7uwCfwdS09W5M 3oJ8uP68r4CBZ0j3$YMGXJ cut IfcWall"><path d="M4.435,88.356 L4.435,100.323 L10.675,100.323 L26.779,100.323 L26.935,100.323 L29.098,100.323 L140.934,100.323 L149.654,100.323 L163.435,100.323 L163.435,83.665 L163.435,80.528 L163.435,80.323 L160.658,80.323 L140.934,80.323 L140.934,72.823 L138.614,72.823 L26.935,72.823 L26.935,72.678 L26.935,65.323 L26.498,65.323 L4.435,65.323 L4.435,72.678 L4.435,72.872 L4.435,73.284 L4.435,76.517 L4.435,87.509 Z"/></g><g class="material-randomrubble 1ycF5hoBbB0uluv0OJvwyc 28JS9ZVTrCrhN46P$xeur9 2bmw$WxuD7uwCfwdS09W5M 3oJ8uP68r4CBZ0j3$YMGXJ cut IfcWall"><path d="M244.934,100.323 L244.934,80.323 L244.434,80.323 L224.184,80.323 L223.684,80.323 L223.684,100.323 L224.184,100.323 L244.434,100.323 Z"/></g><g class="1WVu$Hs8fEuOKpLmv8LTuy layer-material-Plaster 1yZ5GwNe15fArSzrc3cNGE 1dZywMfXH8hBJcwgdnriym IfcMaterialLayer material-brick cut IfcWall"><path d="M145.934,-92.177 L145.934,-48.427 L146.434,-48.427 L146.434,-92.177 Z"/></g><g class="1WVu$Hs8fEuOKpLmv8LTuy layer-material-Plaster 1yZ5GwNe15fArSzrc3cNGE 1dZywMfXH8hBJcwgdnriym IfcMaterialLayer material-brick cut IfcWall"><path d="M157.934,-92.177 L157.934,-48.427 L158.434,-48.427 L158.434,-92.177 Z"/></g><g class="1WVu$Hs8fEuOKpLmv8LTuy layer-material-Plaster 1yZ5GwNe15fArSzrc3cNGE 1dZywMfXH8hBJcwgdnriym IfcMaterialLayer material-brick cut IfcWall"><path d="M9.935,57.823 L9.935,-92.177 L9.435,-92.177 L9.435,57.823 Z"/></g><g class="1WVu$Hs8fEuOKpLmv8LTuy layer-material-Plaster 1yZ5GwNe15fArSzrc3cNGE 1dZywMfXH8hBJcwgdnriym IfcMaterialLayer material-brick cut IfcWall"><path d="M21.435,-92.177 L21.435,57.823 L21.935,57.823 L21.935,-92.177 Z"/></g><g class="1WVu$Hs8fEuOKpLmv8LTuy layer-material-Plaster 1yZ5GwNe15fArSzrc3cNGE 1dZywMfXH8hBJcwgdnriym IfcMaterialLayer material-brick cut IfcWall"><path d="M232.434,-92.177 L232.434,57.823 L232.934,57.823 L232.934,-92.177 Z"/></g><g class="1WVu$Hs8fEuOKpLmv8LTuy layer-material-Plaster 1yZ5GwNe15fArSzrc3cNGE 1dZywMfXH8hBJcwgdnriym IfcMaterialLayer material-brick cut IfcWall"><path d="M244.434,-92.177 L244.434,57.823 L244.934,57.823 L244.934,-92.177 Z"/></g><g class="1WVu$Hs8fEuOKpLmv8LTuy layer-material-Plaster 1yZ5GwNe15fArSzrc3cNGE 1dZywMfXH8hBJcwgdnriym IfcMaterialLayer material-brick cut IfcWall"><path d="M145.934,57.823 L146.434,57.823 L146.434,-8.427 L145.934,-8.427 L145.934,32.507 Z"/></g><g class="1WVu$Hs8fEuOKpLmv8LTuy layer-material-Plaster 1yZ5GwNe15fArSzrc3cNGE 1dZywMfXH8hBJcwgdnriym IfcMaterialLayer material-brick cut IfcWall"><path d="M157.934,-8.427 L157.934,57.823 L158.434,57.823 L158.434,-8.427 Z"/></g><g class="1WVu$Hs8fEuOKpLmv8LTuy 1yZ5GwNe15fArSzrc3cNGE layer-material-Brick 3oO_E71er7wgu0id6dlm30 0BA5F1JlLEWgKnKEz59J2v 1dZywMfXH8hBJcwgdnriym IfcMaterialLayer material-brick cut IfcWall"><path d="M157.934,-92.177 L146.434,-92.177 L146.434,-48.427 L157.934,-48.427 Z"/></g><g class="1WVu$Hs8fEuOKpLmv8LTuy 1yZ5GwNe15fArSzrc3cNGE layer-material-Brick 3oO_E71er7wgu0id6dlm30 0BA5F1JlLEWgKnKEz59J2v 1dZywMfXH8hBJcwgdnriym IfcMaterialLayer material-brick cut IfcWall"><path d="M9.935,-92.177 L9.935,57.823 L21.435,57.823 L21.435,-92.177 Z"/></g><g class="1WVu$Hs8fEuOKpLmv8LTuy 1yZ5GwNe15fArSzrc3cNGE layer-material-Brick 3oO_E71er7wgu0id6dlm30 0BA5F1JlLEWgKnKEz59J2v 1dZywMfXH8hBJcwgdnriym IfcMaterialLayer material-brick cut IfcWall"><path d="M66.935,57.823 L145.934,57.823 L145.934,7.823 L66.935,7.823 L66.935,-92.177 L21.935,-92.177 L21.935,7.823 L21.935,57.823 Z"/></g><g class="1WVu$Hs8fEuOKpLmv8LTuy 1yZ5GwNe15fArSzrc3cNGE layer-material-Brick 3oO_E71er7wgu0id6dlm30 0BA5F1JlLEWgKnKEz59J2v 1dZywMfXH8hBJcwgdnriym IfcMaterialLayer material-brick cut IfcWall"><path d="M244.434,-92.177 L232.934,-92.177 L232.934,57.823 L244.434,57.823 Z"/></g><g class="1WVu$Hs8fEuOKpLmv8LTuy 1yZ5GwNe15fArSzrc3cNGE layer-material-Brick 3oO_E71er7wgu0id6dlm30 0BA5F1JlLEWgKnKEz59J2v 1dZywMfXH8hBJcwgdnriym IfcMaterialLayer material-brick cut IfcWall"><path d="M146.434,-8.427 L146.434,57.823 L157.934,57.823 L157.934,-8.427 Z"/></g><g class="2f1DCwoZrD0R3WZl7VGNjK 1vZn1Xg1f0GvCKg7LW5klO 2AnTRwzAT45PkLhSzxWH2t 3QvJTaeo13jR4q00Btfvpq layer-material-Wall material-null 19fhRRr0vEIQH_pdobSYPg IfcMaterialLayer cut IfcWall"><path d="M544.461,80.323 L549.205,80.323 L556.118,80.323 L556.118,26.95 L556.118,-9.677 L549.205,-9.677 L544.461,-9.677 L544.461,43.61 Z"/></g><g class="2f1DCwoZrD0R3WZl7VGNjK 1vZn1Xg1f0GvCKg7LW5klO 2AnTRwzAT45PkLhSzxWH2t 3QvJTaeo13jR4q00Btfvpq layer-material-Wall material-null 19fhRRr0vEIQH_pdobSYPg IfcMaterialLayer cut IfcWall"><path d="M-3.065,130.323 L-3.065,131.564 L-3.065,136.323 L23.301,136.323 L34.435,136.323 L55.442,136.323 L133.434,136.323 L150.25,136.323 L170.934,136.323 L170.934,133.014 L170.934,130.323 L152.805,130.323 L133.434,130.323 L112.427,130.323 L34.435,130.323 L4.69,130.323 Z"/></g><g class="2f1DCwoZrD0R3WZl7VGNjK 1vZn1Xg1f0GvCKg7LW5klO 2AnTRwzAT45PkLhSzxWH2t 3QvJTaeo13jR4q00Btfvpq layer-material-Wall material-null 19fhRRr0vEIQH_pdobSYPg IfcMaterialLayer cut IfcWall"><path d="M219.934,131.013 L219.934,136.323 L253.124,136.323 L257.434,136.323 L257.434,135.634 L257.434,130.323 L224.244,130.323 L219.934,130.323 Z"/></g><g class="2VLiRGyx1FaeA2Kl$FJcL$ 1lIcWvEkH04fmZ5_jMBUMv 1SNOjV1QHCgwYWjZiDuSpG layer-material-Wall material-concrete IfcMaterialLayer 3schXZ$C900gb5Vaq08nGx cut IfcWall"><path d="M-1.601,100.323 L-1.601,106.747 L-1.601,130.323 L19.832,130.323 L28.399,130.323 L43.655,130.323 L137.185,130.323 L150.854,130.323 L167.185,130.323 L167.185,113.993 L167.185,100.323 L152.674,100.323 L137.185,100.323 L121.928,100.323 L28.399,100.323 L4.822,100.323 Z"/></g><g class="2VLiRGyx1FaeA2Kl$FJcL$ 1lIcWvEkH04fmZ5_jMBUMv 1SNOjV1QHCgwYWjZiDuSpG layer-material-Wall material-concrete IfcMaterialLayer 3schXZ$C900gb5Vaq08nGx cut IfcWall"><path d="M223.684,100.323 L223.684,104.693 L223.684,130.323 L249.314,130.323 L253.684,130.323 L253.684,125.953 L253.684,100.323 L228.054,100.323 Z"/></g><g class="layer-material-Stone material-randomrubble 1ycF5hoBbB0uluv0OJvwyc 28JS9ZVTrCrhN46P$xeur9 2bmw$WxuD7uwCfwdS09W5M 3oJ8uP68r4CBZ0j3$YMGXJ IfcMaterialLayer cut IfcWall"><path d="M4.435,88.356 L4.435,100.323 L10.675,100.323 L26.779,100.323 L26.935,100.323 L29.098,100.323 L140.934,100.323 L149.654,100.323 L163.435,100.323 L163.435,83.665 L163.435,80.528 L163.435,80.323 L160.658,80.323 L140.934,80.323 L140.934,72.823 L138.614,72.823 L26.935,72.823 L26.935,72.678 L26.935,65.323 L26.498,65.323 L4.435,65.323 L4.435,72.678 L4.435,72.872 L4.435,73.284 L4.435,76.517 L4.435,87.509 Z"/></g><g class="layer-material-Stone material-randomrubble 1ycF5hoBbB0uluv0OJvwyc 28JS9ZVTrCrhN46P$xeur9 2bmw$WxuD7uwCfwdS09W5M 3oJ8uP68r4CBZ0j3$YMGXJ IfcMaterialLayer cut IfcWall"><path d="M244.434,80.323 L224.184,80.323 L224.184,100.323 L244.434,100.323 Z"/></g><g class="layer-material-Plaster material-randomrubble 3oJ8uP68r4CBZ0j3$YMGXJ IfcMaterialLayer cut IfcWall"><path d="M224.184,100.323 L224.184,80.323 L223.684,80.323 L223.684,100.323 Z"/></g><g class="layer-material-Plaster material-randomrubble 3oJ8uP68r4CBZ0j3$YMGXJ IfcMaterialLayer cut IfcWall"><path d="M244.434,80.323 L244.434,100.323 L244.934,100.323 L244.934,80.323 Z"/></g><g id="product-18c3f70b-a633-455d-b7f0-1b92b77359ca" class="IfcColumn material-rcc projection" ifc:name="Column" ifc:guid="0Om$SBfZD5NRVm6vAtSrdA">
            <path d="M158.434,-74.6766 L158.434,-74.6766"/>
            <path d="M158.434,57.8234 L158.434,-74.6766"/>
            <path d="M145.934,57.8234 L145.934,57.8234"/>
        </g>
        <g id="product-68f71379-2652-4865-91f9-3042b14392fd" class="IfcBeam material-concrete projection" ifc:name="Beam" ifc:guid="1eznDv9b98PP7vC4AnGvBz">
            <path d="M-35.6056,57.8234 L-35.6056,57.8234"/>
        </g>
        <g id="product-9cbf91e8-347f-4e6f-a2ec-a1bde5506a1e" class="IfcBeam material-concrete projection" ifc:name="Beam" ifc:guid="2Slv7eD7zERwBieRtbK6eU">
            <path d="M279.933,57.8234 L244.934,57.8234"/>
            <path d="M279.933,65.3234 L244.934,65.3234"/>
            <path d="M223.684,57.8234 L223.684,57.8234"/>
            <path d="M223.684,57.8234 L223.684,57.8234"/>
            <path d="M244.934,57.8234 L244.934,57.8234"/>
        </g>
        <g id="product-56fe1097-0896-4f55-aec2-11be460281f7" class="IfcBeam material-concrete projection" ifc:name="Beam" ifc:guid="1M$X2N29PFLQx24Rv60e7t">
            <path d="M223.684,57.8234 L163.434,57.8234"/>
            <path d="M163.435,65.3234 L163.435,65.3234"/>
            <path d="M223.684,65.3234 L223.684,57.8234"/>
        </g>
        <g id="product-e4c10551-55e8-4d78-aef5-0f07cd7e127d" class="IfcBeam material-concrete projection" ifc:name="Beam" ifc:guid="3amGLHLUXDUAxr3mVDVX9z">
            <path d="M279.933,57.8234 L279.933,57.8234"/>
            <path d="M279.933,65.3234 L279.933,65.3234"/>
            <path d="M279.933,65.3234 L279.933,57.8234"/>
        </g>
        <g id="product-e0ce187c-f137-4eca-8541-9ee8256780da" class="IfcBeam material-concrete projection" ifc:name="Beam" ifc:guid="3WpXXyyJTEoeL1dkWbPu3Q">
            <path d="M137.184,57.8234 L137.184,57.8234"/>
        </g>
        <g id="product-50f31408-5559-4cd9-8d91-e835b1441c90" class="IfcBeam material-concrete projection" ifc:name="Beam" ifc:guid="1GynG8LLbCsOsHw3MnH1oG">
            <path d="M223.684,65.3234 L223.684,65.3234"/>
            <path d="M137.184,57.8234 L137.184,57.8234"/>
            <path d="M258.683,57.8234 L258.683,57.8234"/>
            <path d="M279.933,57.8234 L279.933,57.8234"/>
        </g>
        <g id="product-2db7c6e7-d95f-470b-9930-1b7e471db07c" class="IfcBeam material-concrete projection" ifc:name="Beam" ifc:guid="0jjyRdsLz72vam6tv77R1y">
            <path d="M244.934,65.3234 L223.684,65.3234"/>
            <path d="M244.934,57.8234 L244.934,65.3234"/>
            <path d="M244.934,57.8234 L223.684,57.8234"/>
            <path d="M223.684,65.3234 L223.684,57.8234"/>
        </g>
        <g id="product-616f13b0-5094-402d-a27a-15ff44aab10c" class="IfcBeam material-concrete projection" ifc:name="Beam" ifc:guid="1XRnEmK9H0BQ9w5Vz4gh4C">
            <path d="M4.27861,57.8234 L-207.065,57.8234"/>
            <path d="M4.27861,65.3234 L-207.065,65.3234"/>
            <path d="M-207.065,65.3234 L-207.065,57.8234"/>
            <path d="M4.27861,65.3234 L4.27861,57.8234"/>
        </g>
        <g id="product-a7ce0ebf-06cb-4b0a-bf1a-6e2f4b4cd76e" class="IfcBeam material-concrete projection" ifc:name="Beam" ifc:guid="2dpWw$1ijB2hyQRYzBJDTk">
            <path d="M4.43469,57.8234 L4.43469,57.8234"/>
            <path d="M140.934,57.8234 L99.6025,57.8234"/>
            <path d="M163.435,75.3234 L163.435,75.3234"/>
            <path d="M140.935,75.3234 L140.934,75.3234"/>
            <path d="M4.4348,75.3233 L4.43477,75.3233"/>
        </g>
        <g id="product-9e0e68ef-ea33-4d1e-9b4b-786a86e935ba" class="IfcBeam material-concrete projection" ifc:name="Beam" ifc:guid="2U3cZlwZDD7fjBU6g6wJMw">
            <path d="M163.434,57.8234 L140.934,57.8234"/>
            <path d="M140.934,65.3234 L140.934,57.8234"/>
            <path d="M163.434,65.3234 L140.934,65.3234"/>
            <path d="M163.434,57.8234 L163.434,65.3234"/>
        </g>
        <g id="product-1d824fca-f347-480d-9818-2c13414e1ee8" class="IfcBeam material-concrete projection" ifc:name="Beam" ifc:guid="0TWa$AyqT83PWOB1D1JXxe">
            <path d="M26.7786,57.8234 L4.27863,57.8234"/>
            <path d="M4.27863,65.3234 L4.27863,57.8234"/>
            <path d="M26.7786,65.3234 L4.27863,65.3234"/>
            <path d="M26.7786,57.8234 L26.7786,65.3234"/>
        </g>
        <g ifc:guid="0jjyRdsLz72vam6tv77R1y" ifc:name="Beam" class="IfcBeam material-concrete cut"><path d="M224.18413162231445,65.32339961346933 L244.43416595458984,65.32339961346933 L244.93408203125,65.32339961346933 L244.93408203125,57.82340527591059 L244.43416595458984,57.82340527591059 L224.18413162231445,57.82339931544611 L223.68412017822266,57.82339931544611 L223.68412017822266,65.32339961346933 Z"/></g><g ifc:guid="2U3cZlwZDD7fjBU6g6wJMw" ifc:name="Beam" class="IfcBeam material-concrete cut"><path d="M141.43447875976562,65.32340259370157 L162.93439865112305,65.32340259370157 L163.43441009521484,65.32340259370157 L163.43441009521484,57.82340229567835 L162.93439865112305,57.82340229567835 L141.43447875976562,57.82340229567835 L140.93446731567383,57.82340229567835 L140.93446731567383,65.32340259370157 Z"/></g><g ifc:guid="0TWa$AyqT83PWOB1D1JXxe" ifc:name="Beam" class="IfcBeam material-concrete cut"><path d="M4.7786712646484375,65.32340259370157 L26.27859115600586,65.32340259370157 L26.778602600097656,65.32340259370157 L26.778602600097656,57.82340229567835 L26.27859115600586,57.82340229567835 L4.7786712646484375,57.82340229567835 L4.278659820556641,57.82340229567835 L4.278659820556641,65.32340259370157 Z"/></g><g ifc:guid="0jjyRdsLz72vam6tv77R1y" ifc:name="Beam" ifc:layer-id="141591" class="IfcBeam material-concrete IfcMaterialLayer layer-material-Plaster cut"><path d="M223.68412017822266,65.32339961346933 L224.18413162231445,65.32339961346933 L224.18413162231445,57.82339931544611 L223.68412017822266,57.82339931544611 Z"/></g><g ifc:guid="0jjyRdsLz72vam6tv77R1y" ifc:name="Beam" ifc:layer-id="141592" class="IfcBeam material-concrete IfcMaterialLayer layer-material-Concrete cut"><path d="M224.18413162231445,65.32339961346933 L244.43416595458984,65.32339961346933 L244.43416595458984,57.82340527591059 L224.18413162231445,57.82339931544611 Z"/></g><g ifc:guid="0jjyRdsLz72vam6tv77R1y" ifc:name="Beam" ifc:layer-id="141593" class="IfcBeam material-concrete IfcMaterialLayer layer-material-Plaster cut"><path d="M244.93408203125,57.82340527591059 L244.43416595458984,57.82340527591059 L244.43416595458984,65.32339961346933 L244.93408203125,65.32339961346933 Z"/></g><g ifc:guid="2U3cZlwZDD7fjBU6g6wJMw" ifc:name="Beam" ifc:layer-id="140685" class="IfcBeam material-concrete IfcMaterialLayer layer-material-Plaster cut"><path d="M163.43441009521484,57.82340229567835 L162.93439865112305,57.82340229567835 L162.93439865112305,65.32340259370157 L163.43441009521484,65.32340259370157 Z"/></g><g ifc:guid="2U3cZlwZDD7fjBU6g6wJMw" ifc:name="Beam" ifc:layer-id="140658" class="IfcBeam material-concrete IfcMaterialLayer layer-material-Stone cut"><path d="M162.93439865112305,57.82340229567835 L141.43447875976562,57.82340229567835 L141.43447875976562,65.32340259370157 L162.93439865112305,65.32340259370157 Z"/></g><g ifc:guid="2U3cZlwZDD7fjBU6g6wJMw" ifc:name="Beam" ifc:layer-id="140577" class="IfcBeam material-concrete IfcMaterialLayer layer-material-Plaster cut"><path d="M140.93446731567383,65.32340259370157 L141.43447875976562,65.32340259370157 L141.43447875976562,57.82340229567835 L140.93446731567383,57.82340229567835 Z"/></g><g ifc:guid="0TWa$AyqT83PWOB1D1JXxe" ifc:name="Beam" ifc:layer-id="140685" class="IfcBeam material-concrete IfcMaterialLayer layer-material-Plaster cut"><path d="M26.778602600097656,57.82340229567835 L26.27859115600586,57.82340229567835 L26.27859115600586,65.32340259370157 L26.778602600097656,65.32340259370157 Z"/></g><g ifc:guid="0TWa$AyqT83PWOB1D1JXxe" ifc:name="Beam" ifc:layer-id="140658" class="IfcBeam material-concrete IfcMaterialLayer layer-material-Stone cut"><path d="M26.27859115600586,57.82340229567835 L4.7786712646484375,57.82340229567835 L4.7786712646484375,65.32340259370157 L26.27859115600586,65.32340259370157 Z"/></g><g ifc:guid="0TWa$AyqT83PWOB1D1JXxe" ifc:name="Beam" ifc:layer-id="140577" class="IfcBeam material-concrete IfcMaterialLayer layer-material-Plaster cut"><path d="M4.278659820556641,65.32340259370157 L4.7786712646484375,65.32340259370157 L4.7786712646484375,57.82340229567835 L4.278659820556641,57.82340229567835 Z"/></g></g>
</svg>